<svg width="326" height="120" viewBox="0 0 326 120" fill="none" xmlns="http://www.w3.org/2000/svg">
<rect width="100" height="100" rx="3" fill="#B8D958"/>
<rect x="226" y="20" width="100" height="100" rx="3" fill="#B8D6ED"/>
<rect x="10" y="10" width="306" height="100" rx="3" fill="#F5F7F9"/>
<path d="M138.065 33.5895C137.6 32.3364 136.206 31.6979 134.953 32.1633C133.7 32.6287 133.062 34.0218 133.527 35.2749L138.065 33.5895ZM153.975 83.3778L151.706 84.2205L151.706 84.2205L153.975 83.3778ZM154.624 83.3773L152.353 82.5383L152.353 82.5383L154.624 83.3773ZM174.982 35.2712C175.445 34.0174 174.805 32.6253 173.551 32.1619C172.297 31.6986 170.905 32.3394 170.442 33.5932L174.982 35.2712ZM37 34.4322L34.5797 34.4321L34.5797 34.4322L37 34.4322ZM70.1962 83.3432L72.1989 81.9841L72.1988 81.984L70.1962 83.3432ZM70.8681 83.3154L68.4478 83.3154V83.3154H70.8681ZM70.8681 83.171L73.2885 83.1711L73.2885 83.171L70.8681 83.171ZM73.2884 34C73.2884 32.6633 72.2048 31.5797 70.8681 31.5797C69.5314 31.5797 68.4478 32.6633 68.4478 34L73.2884 34ZM70.2364 83.4162L68.0745 84.5044L68.0762 84.5078L70.2364 83.4162ZM70.842 83.4333L72.9396 84.6407L72.9396 84.6407L70.842 83.4333ZM70.2318 83.4071L68.0689 84.4932L68.0699 84.4952L70.2318 83.4071ZM37.6719 34.26L35.6692 35.6191L35.6693 35.6192L37.6719 34.26ZM37 34.2878L39.4203 34.2879V34.2878H37ZM34.5797 83.6032C34.5797 84.9399 35.6633 86.0235 37 86.0235C38.3367 86.0235 39.4203 84.9399 39.4203 83.6032L34.5797 83.6032ZM37.6317 34.187L39.7938 33.0991L39.7919 33.0954L37.6317 34.187ZM37.0262 34.1699L34.9285 32.9625L34.9285 32.9625L37.0262 34.1699ZM37.6363 34.1961L39.7992 33.11L39.7984 33.1082L37.6363 34.1961ZM223.193 34.4322C223.193 33.0955 222.11 32.0119 220.773 32.0119C219.436 32.0119 218.353 33.0955 218.353 34.4322H223.193ZM245.063 86.1237C246.399 86.1237 247.483 85.0401 247.483 83.7034C247.483 82.3667 246.399 81.283 245.063 81.283V86.1237ZM268.834 34.4322C268.834 33.0955 267.75 32.0119 266.414 32.0119C265.077 32.0119 263.993 33.0955 263.993 34.4322H268.834ZM263.993 83.7034C263.993 85.0401 265.077 86.1237 266.414 86.1237C267.75 86.1237 268.834 85.0401 268.834 83.7034H263.993ZM278.126 49.6025L276.21 48.1234L276.206 48.1293L276.201 48.1351L278.126 49.6025ZM291.755 35.9113C292.572 34.8533 292.376 33.3333 291.318 32.5164C290.26 31.6995 288.74 31.895 287.923 32.9531L291.755 35.9113ZM272.27 57.1877L270.366 55.6929L270.36 55.7007L270.354 55.7086L272.27 57.1877ZM291.42 84.9904C292.131 86.1225 293.624 86.464 294.757 85.7531C295.889 85.0423 296.23 83.5484 295.519 82.4163L291.42 84.9904ZM256.732 34.4322C256.732 33.0955 255.649 32.0119 254.312 32.0119C252.975 32.0119 251.892 33.0955 251.892 34.4322H256.732ZM251.892 83.7034C251.892 85.0401 252.975 86.1237 254.312 86.1237C255.649 86.1237 256.732 85.0401 256.732 83.7034H251.892ZM190.718 34.6576L192.956 35.5796L192.972 35.5402L192.987 35.5003L190.718 34.6576ZM191.366 34.6581L189.096 35.4971L189.113 35.5422L189.131 35.5865L191.366 34.6581ZM168.313 82.6811C167.804 83.917 168.393 85.3318 169.629 85.841C170.865 86.3502 172.279 85.7612 172.789 84.5252L168.313 82.6811ZM205.343 68.3077L207.579 67.3793L205.343 68.3077ZM209.461 84.5316C209.974 85.7661 211.391 86.3511 212.625 85.8384C213.859 85.3256 214.445 83.9092 213.932 82.6748L209.461 84.5316ZM129.578 59.0678C129.578 72.2646 119.588 82.5797 107.103 82.5797V87.4203C122.453 87.4203 134.419 74.7422 134.419 59.0678H129.578ZM107.103 82.5797C93.882 82.5797 84.283 71.1839 84.283 59.5864H79.4424C79.4424 73.5754 90.935 87.4203 107.103 87.4203V82.5797ZM84.283 59.5864C84.283 47.3582 93.2764 36.4203 107.103 36.4203V31.5797C90.2814 31.5797 79.4424 45.0181 79.4424 59.5864H84.283ZM107.103 36.4203C120.964 36.4203 129.578 46.6156 129.578 59.0678H134.419C134.419 44.2047 123.892 31.5797 107.103 31.5797V36.4203ZM133.527 35.2749L151.706 84.2205L156.244 82.5351L138.065 33.5895L133.527 35.2749ZM156.894 84.2163L174.982 35.2712L170.442 33.5932L152.353 82.5383L156.894 84.2163ZM151.706 84.2205C152.6 86.6267 156.004 86.6237 156.894 84.2163L152.353 82.5383C153.021 80.7327 155.574 80.7304 156.244 82.5351L151.706 84.2205ZM34.9974 35.7914L68.1935 84.7024L72.1988 81.984L39.0026 33.073L34.9974 35.7914ZM73.2884 83.3155L73.2885 83.1711L68.4478 83.1709L68.4478 83.3154L73.2884 83.3155ZM73.2885 83.171L73.2884 34L68.4478 34L68.4478 83.171L73.2885 83.171ZM68.0762 84.5078C69.078 86.4904 71.8575 86.5207 72.9396 84.6407L68.7443 82.2259C69.5593 80.8099 71.6409 80.8291 72.3966 82.3246L68.0762 84.5078ZM68.4478 83.3154C68.4478 83.17 68.46 82.7197 68.7443 82.2259L72.9396 84.6407C73.2647 84.076 73.2884 83.5427 73.2884 83.3154H68.4478ZM68.1935 84.7023C68.1421 84.6266 68.1069 84.5641 68.0886 84.5306C68.0725 84.5009 68.0604 84.4764 68.0689 84.4932L72.3947 82.3209C72.3922 82.3159 72.3692 82.2696 72.3414 82.2185C72.3115 82.1635 72.264 82.08 72.1989 81.9841L68.1935 84.7023ZM68.0699 84.4952L68.0745 84.5044L72.3983 82.328L72.3937 82.3189L68.0699 84.4952ZM72.8708 81.8118L39.6746 32.9008L35.6693 35.6192L68.8655 84.5302L72.8708 81.8118ZM34.5797 34.2877L34.5797 34.4321L39.4203 34.4323L39.4203 34.2879L34.5797 34.2877ZM34.5797 34.4322L34.5797 83.6032L39.4203 83.6032L39.4203 34.4322L34.5797 34.4322ZM39.7919 33.0954C38.7901 31.1128 36.0106 31.0825 34.9285 32.9625L39.1238 35.3773C38.3088 36.7933 36.2272 36.7741 35.4715 35.2786L39.7919 33.0954ZM39.4203 34.2878C39.4203 34.4333 39.4081 34.8835 39.1238 35.3773L34.9285 32.9625C34.6034 33.5272 34.5797 34.0604 34.5797 34.2878H39.4203ZM39.6747 32.9009C39.7261 32.9766 39.7613 33.0391 39.7795 33.0726C39.7957 33.1023 39.8077 33.1268 39.7992 33.11L35.4734 35.2823C35.4759 35.2873 35.4989 35.3336 35.5267 35.3847C35.5566 35.4397 35.6041 35.5232 35.6692 35.6191L39.6747 32.9009ZM39.7984 33.1082L39.7938 33.0991L35.4696 35.2749L35.4743 35.284L39.7984 33.1082ZM218.353 34.4322V83.3576H223.193V34.4322H218.353ZM218.353 83.3576C218.353 84.8853 219.591 86.1237 221.119 86.1237V81.283C222.264 81.283 223.193 82.2119 223.193 83.3576H218.353ZM263.993 34.4322V64.7729H268.834V34.4322H263.993ZM263.993 64.7729V83.7034H268.834V64.7729H263.993ZM280.042 51.0817L291.755 35.9113L287.923 32.9531L276.21 48.1234L280.042 51.0817ZM268.329 66.252L274.186 58.6668L270.354 55.7086L264.498 63.2937L268.329 66.252ZM274.174 58.6825L276.702 55.4626L272.895 52.473L270.366 55.6929L274.174 58.6825ZM276.723 55.4352L280.051 51.0699L276.201 48.1351L272.874 52.5004L276.723 55.4352ZM272.749 55.2549L291.42 84.9904L295.519 82.4163L276.848 52.6807L272.749 55.2549ZM251.892 34.4322V83.7034H256.732V34.4322H251.892ZM192.987 35.5003C192.317 37.305 189.763 37.3027 189.096 35.4971L193.637 33.8191C192.747 31.4116 189.343 31.4087 188.449 33.8149L192.987 35.5003ZM189.131 35.5865L203.108 69.2361L207.579 67.3793L193.602 33.7297L189.131 35.5865ZM203.108 69.2361L209.461 84.5316L213.932 82.6748L207.579 67.3793L203.108 69.2361ZM176.853 70.728H205.343V65.8874H176.853V70.728ZM221.119 86.1237H245.063V81.283H221.119V86.1237ZM179.091 69.2297L192.956 35.5796L188.48 33.7355L174.615 67.3856L179.091 69.2297ZM172.789 84.5252L179.091 69.2297L174.615 67.3856L168.313 82.6811L172.789 84.5252Z" fill="#96CA2D"/>
</svg>
