<svg width="56" height="56" viewBox="0 0 56 56" fill="none" xmlns="http://www.w3.org/2000/svg">
<circle cx="28" cy="28" r="28" fill="#B8D6ED"/>
<path d="M34.25 32.05H40C40.3 32.05 40.5 31.85 40.5 31.55C40.5 31.25 40.3 31.05 40 31.05H34.25C33.95 31.05 33.75 31.25 33.75 31.55C33.75 31.85 34 32.05 34.25 32.05Z" fill="#0088CC"/>
<path d="M34.25 33.85H40C40.3 33.85 40.5 33.65 40.5 33.35C40.5 33.05 40.3 32.85 40 32.85H34.25C33.95 32.85 33.75 33.05 33.75 33.35C33.75 33.65 34 33.85 34.25 33.85Z" fill="#0088CC"/>
<path d="M37.1499 28.7H38.0999V29.65C38.0999 29.95 38.2999 30.15 38.5999 30.15C38.8999 30.15 39.0999 29.95 39.0999 29.65V28.7H40.0499C40.3499 28.7 40.5499 28.5 40.5499 28.2C40.5499 27.9 40.3499 27.7 40.0499 27.7H39.0999V26.75C39.0999 26.45 38.8999 26.25 38.5999 26.25C38.2999 26.25 38.0999 26.45 38.0999 26.75V27.7H37.1499C36.8499 27.7 36.6499 27.9 36.6499 28.2C36.6499 28.5 36.8999 28.7 37.1499 28.7Z" fill="#0088CC"/>
<path d="M17.5002 41.25L15.3002 41.65C14.5002 41.8 13.7002 41.25 13.5502 40.45C13.4002 39.65 13.9502 38.85 14.7502 38.7L20.1502 37.75C20.6002 37.65 21.1002 37.8 21.4502 38.15C21.6502 38.35 21.9502 38.35 22.1502 38.1C22.3502 37.9 22.3502 37.6 22.1002 37.4C21.5502 36.85 20.7502 36.65 19.9502 36.75L14.6002 37.7C13.2502 37.95 12.3502 39.25 12.5502 40.6C12.7502 41.8 13.8002 42.65 15.0002 42.65C15.1502 42.65 15.3002 42.65 15.4502 42.6L17.6502 42.2C17.9002 42.15 18.1002 41.9 18.0502 41.6C18.0002 41.4 17.7502 41.2 17.5002 41.25Z" fill="#0088CC"/>
<path d="M40.2501 19.1V17.6H41.5001C41.8001 17.6 42.0001 17.4 42.0001 17.1V13.5C42.0001 12.65 41.3501 12 40.5001 12H27.7001C26.8501 12 26.2001 12.65 26.2001 13.5V17.1C26.2001 17.4 26.4001 17.6 26.7001 17.6H28.0501V19.1C26.1501 19.35 24.7501 20.95 24.7501 22.85V39H21.3501C19.9501 39 18.8501 40.1 18.8501 41.5C18.8501 42.9 19.9501 44 21.3501 44H26.8501C28.0501 44 29.0501 43.15 29.3001 42H42.4001C43.0001 42 43.5001 41.5 43.5001 40.9V22.85C43.4501 21 42.1001 19.4 40.2501 19.1ZM27.2001 16.6V13.5C27.2001 13.2 27.4001 13 27.7001 13H40.5001C40.8001 13 41.0001 13.2 41.0001 13.5V16.6H39.5501V16.05C39.5501 15.75 39.3501 15.55 39.0501 15.55C38.7501 15.55 38.5501 15.75 38.5501 16.05V16.6H37.1001V16.05C37.1001 15.75 36.9001 15.55 36.6001 15.55C36.3001 15.55 36.1001 15.75 36.1001 16.05V16.6H34.6501V16.05C34.6501 15.75 34.4501 15.55 34.1501 15.55C33.8501 15.55 33.6501 15.75 33.6501 16.05V16.6H32.2001V16.05C32.2001 15.75 32.0001 15.55 31.7001 15.55C31.4001 15.55 31.2001 15.75 31.2001 16.05V16.6H29.7501V16.05C29.7501 15.75 29.5501 15.55 29.2501 15.55C28.9501 15.55 28.7501 15.75 28.7501 16.05V16.6H27.2001ZM26.8501 43H21.3501C20.5001 43 19.8501 42.35 19.8501 41.5C19.8501 40.65 20.5001 40 21.3501 40H26.8501C27.7001 40 28.3501 40.65 28.3501 41.5C28.3501 42.35 27.6501 43 26.8501 43ZM42.4001 41H29.3001C29.0501 39.85 28.0501 39 26.8501 39H25.7501V22.85C25.7501 21.3 27.0001 20.05 28.5501 20.05H29.0501V17.6H39.2501V19.05H34.1001C33.8001 19.05 33.6001 19.25 33.6001 19.55C33.6001 19.85 33.8001 20.05 34.1001 20.05H39.6501C41.2001 20.05 42.4501 21.3 42.4501 22.85V24H31.3501C31.0501 24 30.8501 24.2 30.8501 24.5V36.15C30.8501 36.45 31.0501 36.65 31.3501 36.65H42.5001V40.9C42.4501 40.95 42.4501 41 42.4001 41ZM42.4501 35.65H31.8501V25H42.5001L42.4501 35.65Z" fill="#1E3F6D"/>
</svg>
