<svg width="56" height="56" viewBox="0 0 56 56" fill="none" xmlns="http://www.w3.org/2000/svg">
<circle cx="28" cy="28" r="28" fill="#B8D6ED"/>
<path d="M22.9995 15.5H37.9999C38.2763 15.5 38.4999 15.2761 38.4999 15C38.4999 14.7239 38.2763 14.5 37.9999 14.5H22.9995C22.7231 14.5 22.4995 14.7239 22.4995 15C22.4995 15.2761 22.7231 15.5 22.9995 15.5Z" fill="#0088CC"/>
<path d="M22.9995 17.5H37.9999C38.2763 17.5 38.4999 17.2761 38.4999 17C38.4999 16.7239 38.2763 16.5 37.9999 16.5H22.9995C22.7231 16.5 22.4995 16.7239 22.4995 17C22.4995 17.2761 22.7231 17.5 22.9995 17.5Z" fill="#0088CC"/>
<path d="M22.9995 19.5H37.9999C38.2763 19.5 38.4999 19.2761 38.4999 19C38.4999 18.7238 38.2763 18.5 37.9999 18.5H22.9995C22.7231 18.5 22.4995 18.7238 22.4995 19C22.4995 19.2761 22.7231 19.5 22.9995 19.5Z" fill="#0088CC"/>
<path d="M22.9995 21.5H37.9999C38.2763 21.5 38.4999 21.2761 38.4999 21C38.4999 20.7238 38.2763 20.5 37.9999 20.5H22.9995C22.7231 20.5 22.4995 20.7238 22.4995 21C22.4995 21.2761 22.7231 21.5 22.9995 21.5Z" fill="#0088CC"/>
<path d="M22.9995 23.4999H37.9999C38.2763 23.4999 38.4999 23.2761 38.4999 22.9999C38.4999 22.7238 38.2763 22.4999 37.9999 22.4999H22.9995C22.7231 22.4999 22.4995 22.7238 22.4995 22.9999C22.4995 23.2761 22.7231 23.4999 22.9995 23.4999Z" fill="#0088CC"/>
<path d="M22.9995 25.4999H31.5C31.7763 25.4999 32 25.2761 32 24.9999C32 24.7238 31.7763 24.4999 31.5 24.4999H22.9995C22.7231 24.4999 22.4995 24.7238 22.4995 24.9999C22.4995 25.2761 22.7231 25.4999 22.9995 25.4999Z" fill="#0088CC"/>
<path d="M34.5 29.4999C32.8457 29.4999 31.5 30.8456 31.5 32.4999C31.5 34.1542 32.8457 35.4999 34.5 35.4999C36.1543 35.4999 37.5 34.1542 37.5 32.4999C37.5 30.8456 36.1543 29.4999 34.5 29.4999ZM34.5 34.4999C33.397 34.4999 32.5 33.6027 32.5 32.4999C32.5 31.3971 33.397 30.4999 34.5 30.4999C35.603 30.4999 36.5 31.3971 36.5 32.4999C36.5 33.6027 35.603 34.4999 34.5 34.4999Z" fill="#0088CC"/>
<path d="M15.5 20H18C18.2764 20 18.5 19.7761 18.5 19.5C18.5 19.2238 18.2764 19 18 19H16V14.75C16 13.7851 16.7851 13 17.75 13C18.7148 13 19.5 13.7851 19.5 14.75V19.5V21.739C19.4468 24.1599 19.0093 30.7497 17.6421 32.1508C15.6978 34.1434 15.5 34.9435 15.5 37.4999C15.5 37.776 15.7236 37.9999 16 37.9999H18C18.2764 37.9999 18.5 37.776 18.5 37.4999C18.5 37.2238 18.2764 36.9999 18 36.9999H16.5029C16.5278 35.0499 16.7554 34.4913 18.3579 32.849C18.8377 32.3573 19.2102 31.4587 19.5 30.3779V39.9999C19.5 40.276 19.7236 40.4999 20 40.4999H28.9999C29.2763 40.4999 29.4999 40.276 29.4999 39.9999C29.4999 39.7237 29.2763 39.4999 28.9999 39.4999H20.5V19.5V14.75C20.5 14.0857 20.2631 13.4758 19.8696 13H38.7499C39.7147 13 40.4999 13.7851 40.4999 14.75V31.7929L39.2426 30.5356V28.7572C39.2426 28.2057 38.7938 27.7572 38.2426 27.7572H36.4643L35.2069 26.4999C34.8173 26.1098 34.1825 26.1098 33.7929 26.4999L32.5356 27.7572H30.7572C30.206 27.7572 29.7573 28.2057 29.7573 28.7572V30.5356L28.4999 31.7929C28.1098 32.1828 28.1098 32.817 28.4999 33.2069L29.7573 34.4642V36.2426C29.7573 36.7941 30.206 37.2426 30.7572 37.2426H31.6377L29.0405 43.3028C28.9511 43.5111 29.0131 43.753 29.1908 43.8929C29.3691 44.0328 29.6186 44.0362 29.7997 43.8997L31.3769 42.7169L32.0839 43.7772C32.1777 43.9176 32.3344 43.9998 32.4999 43.9998C32.5238 43.9998 32.5478 43.9981 32.5722 43.9947C32.7631 43.9666 32.9208 43.8314 32.9779 43.6468L33.9462 40.4999H35.0536L36.0219 43.6468C36.079 43.8314 36.2367 43.9666 36.4276 43.9947C36.452 43.9981 36.476 43.9998 36.4999 43.9998C36.6654 43.9998 36.8222 43.9176 36.9159 43.7772L37.6229 42.7169L39.2001 43.8997C39.3807 44.0362 39.6307 44.0328 39.809 43.8929C39.9867 43.753 40.0487 43.5111 39.9594 43.3028L37.3621 37.2426H38.2426C38.7938 37.2426 39.2426 36.7941 39.2426 36.2426V34.4642L40.4999 33.2069V39.4999H39.9999C39.7235 39.4999 39.4999 39.7237 39.4999 39.9999C39.4999 40.276 39.7235 40.4999 39.9999 40.4999H40.9999C41.2762 40.4999 41.4999 40.276 41.4999 39.9999V14.75C41.4999 13.2336 40.266 12 38.7499 12H17.5C17.4309 12 17.3651 12.014 17.3053 12.0393C16.0003 12.253 15 13.3854 15 14.75V19.5C15 19.7761 15.2236 20 15.5 20ZM32.3319 42.3463L31.9159 41.7225C31.8398 41.6083 31.7196 41.5301 31.5844 41.5069C31.4487 41.485 31.31 41.5172 31.2001 41.6L30.6962 41.9776L32.6686 37.3755L33.5804 38.2874L32.3319 42.3463ZM34.2538 39.4999L34.4723 38.7897C34.4815 38.79 34.4907 38.7923 34.4999 38.7923C34.5092 38.7923 34.5183 38.79 34.5275 38.7897L34.746 39.4999H34.2538ZM37.7997 41.6C37.6898 41.5169 37.5507 41.4847 37.4154 41.5069C37.2802 41.5301 37.16 41.6083 37.0839 41.7225L36.6679 42.3463L35.4194 38.2874L36.3313 37.3755L38.3036 41.9776L37.7997 41.6ZM38.5355 33.7572C38.3466 33.9462 38.2426 34.1972 38.2426 34.4642V36.2426H36.6029C36.6013 36.2426 36.5998 36.2425 36.5983 36.2426H36.4643C36.2011 36.2426 35.9433 36.3492 35.7572 36.5355L34.4999 37.7928L33.0961 36.389C33.0024 36.2953 32.8754 36.2426 32.7426 36.2426H32.4C32.3992 36.2426 32.3985 36.2426 32.3978 36.2426H30.7572V34.4642C30.7572 34.1972 30.6532 33.9462 30.4643 33.7572L29.207 32.4999L30.4643 31.2426C30.6532 31.0536 30.7572 30.8026 30.7572 30.5356V28.7572H32.5356C32.7987 28.7572 33.0566 28.6506 33.2426 28.4643L34.4999 27.207L35.7572 28.4643C35.9433 28.6506 36.2011 28.7572 36.4643 28.7572H38.2426V30.7426C38.2426 30.8752 38.2953 31.0023 38.389 31.0961L39.7928 32.4999L38.5355 33.7572Z" fill="#1E3F6D"/>
</svg>
