<svg width="56" height="56" viewBox="0 0 56 56" fill="none" xmlns="http://www.w3.org/2000/svg">
<circle cx="28" cy="28" r="28" fill="#B8D6ED"/>
<path d="M12.5333 38.6595H25.3333C25.6277 38.6595 25.8667 38.4211 25.8667 38.1261V19.4595C25.8667 19.3256 25.816 19.1965 25.7253 19.0973L19.3253 12.164C19.1232 11.9453 18.7435 11.9453 18.5413 12.164L12.1413 19.0973C12.0507 19.1965 12 19.3256 12 19.4595V38.1261C12 38.4211 12.2389 38.6595 12.5333 38.6595ZM13.0667 19.668L18.9333 13.3128L24.8 19.668V37.5928H13.0667V19.668Z" fill="#1E3F6D"/>
<path d="M18.9331 20.5261C20.1097 20.5261 21.0665 19.5693 21.0665 18.3928C21.0665 17.2162 20.1097 16.2594 18.9331 16.2594C17.7566 16.2594 16.7998 17.2162 16.7998 18.3928C16.7998 19.5693 17.7566 20.5261 18.9331 20.5261ZM18.9331 17.3261C19.5214 17.3261 19.9998 17.8045 19.9998 18.3928C19.9998 18.981 19.5214 19.4594 18.9331 19.4594C18.3449 19.4594 17.8665 18.981 17.8665 18.3928C17.8665 17.8045 18.3449 17.3261 18.9331 17.3261Z" fill="#0088CC"/>
<path d="M23.2 22.6594H14.6666C14.3722 22.6594 14.1333 22.8978 14.1333 23.1928V34.9261C14.1333 35.221 14.3722 35.4594 14.6666 35.4594H23.2C23.4944 35.4594 23.7333 35.221 23.7333 34.9261V23.1928C23.7333 22.8978 23.4944 22.6594 23.2 22.6594ZM22.6666 34.3928H15.2V23.7261H22.6666V34.3928Z" fill="#0088CC"/>
<path d="M21.5999 32.2594H20.5332V33.3261H21.5999V32.2594Z" fill="#0088CC"/>
<path d="M19.4666 32.2594H18.3999V33.3261H19.4666V32.2594Z" fill="#0088CC"/>
<path d="M17.3333 32.2594H16.2666V33.3261H17.3333V32.2594Z" fill="#0088CC"/>
<path d="M35.4666 21.3426C32.5258 21.3426 30.1333 23.7352 30.1333 26.676C30.1333 29.6168 32.5258 32.0093 35.4666 32.0093C38.4074 32.0093 40.8 29.6168 40.8 26.676C40.8 23.7352 38.4074 21.3426 35.4666 21.3426ZM35.4666 30.9426C33.1141 30.9426 31.2 29.0285 31.2 26.676C31.2 24.3234 33.1141 22.4093 35.4666 22.4093C37.8192 22.4093 39.7333 24.3234 39.7333 26.676C39.7333 29.0285 37.8192 30.9426 35.4666 30.9426Z" fill="#0088CC"/>
<path d="M38.2141 24.9864L36.6525 24.7474L35.9496 23.2493C35.8616 23.0621 35.6733 22.9426 35.4669 22.9426C35.2605 22.9426 35.0717 23.0626 34.9843 23.2493L34.2813 24.7474L32.7197 24.9864C32.5224 25.0168 32.3581 25.1544 32.2947 25.3442C32.2312 25.5341 32.2792 25.7426 32.4184 25.8861L33.5635 27.06L33.292 28.7234C33.2589 28.925 33.3443 29.1277 33.5112 29.2456C33.6787 29.3634 33.8973 29.3757 34.0765 29.2765L35.4669 28.508L36.8568 29.276C36.9373 29.3208 37.0264 29.3426 37.1149 29.3426C37.2227 29.3426 37.3304 29.3096 37.4221 29.245C37.5891 29.1272 37.6744 28.9245 37.6413 28.7229L37.3699 27.0594L38.5149 25.8856C38.6547 25.7421 38.7027 25.5336 38.6387 25.3437C38.5747 25.1538 38.4115 25.0168 38.2141 24.9864ZM36.4184 26.508C36.3 26.6296 36.2467 26.7992 36.2739 26.9661L36.4115 27.8114L35.7245 27.4317C35.644 27.3874 35.5555 27.365 35.4664 27.365C35.3773 27.365 35.2888 27.3874 35.2083 27.4317L34.5213 27.8114L34.6589 26.9661C34.6861 26.7992 34.6328 26.629 34.5144 26.508L33.9059 25.884L34.7229 25.7592C34.8989 25.7325 35.0493 25.6194 35.1251 25.4589L35.4669 24.7314L35.8083 25.4584C35.884 25.6194 36.0344 25.7325 36.2104 25.7586L37.0275 25.8834L36.4184 26.508Z" fill="#0088CC"/>
<path d="M42.4718 31.2477L42.5182 28.8264L43.9038 26.8397C44.0318 26.6563 44.0318 26.4125 43.9038 26.2291L42.5182 24.2429L42.4718 21.8216C42.4675 21.5981 42.324 21.4013 42.1128 21.3277L39.8243 20.5357L38.364 18.604C38.2291 18.4259 37.9966 18.3496 37.7832 18.4152L35.4664 19.1203L33.1496 18.4157C32.9363 18.3501 32.7043 18.4264 32.5688 18.6045L31.1086 20.5363L28.82 21.3283C28.6088 21.4019 28.4654 21.5987 28.4611 21.8221L28.4147 24.2435L27.0291 26.2296C26.9011 26.4131 26.9011 26.6568 27.0291 26.8403L28.4147 28.8269L28.4611 31.2483C28.4654 31.4717 28.6088 31.6685 28.82 31.7421L30.9294 32.4723C30.3854 35.8424 28.899 39.14 27.0894 40.9496C26.9102 41.1288 26.8819 41.4088 27.0211 41.6205C27.1603 41.8317 27.4286 41.9144 27.6648 41.8221L29.4515 41.1075L29.0739 43.3725C29.0339 43.612 29.1608 43.8483 29.3827 43.9469C29.4526 43.9779 29.5267 43.9928 29.5998 43.9928C29.7582 43.9928 29.9134 43.9219 30.0168 43.7923L31.5731 41.8408C33.348 39.6264 34.4387 36.9779 34.7528 34.1661L35.4664 33.9491L36.1795 34.1656C36.4936 36.9768 37.5843 39.6259 39.3587 41.8403L40.916 43.7923C41.02 43.9219 41.1747 43.9928 41.3331 43.9928C41.4062 43.9928 41.4798 43.9779 41.5502 43.9464C41.772 43.8472 41.899 43.6115 41.859 43.372L41.4814 41.1069L43.268 41.8216C43.5038 41.9149 43.772 41.8312 43.9118 41.62C44.051 41.4088 44.0227 41.1283 43.8435 40.9491C41.7443 38.8499 40.4926 35.1555 40.019 32.4659L42.1128 31.7411C42.324 31.668 42.4675 31.4707 42.4718 31.2477ZM30.74 41.1747L30.4632 41.5213L30.659 40.3469C30.691 40.1576 30.6174 39.9645 30.4675 39.844C30.3176 39.7235 30.1144 39.6936 29.9347 39.7645L29.1806 40.0659C30.5294 38.0712 31.3832 35.6147 31.8243 33.4808L32.5683 34.4648C32.7027 34.6429 32.9347 34.7192 33.1486 34.6536L33.6344 34.5059C33.2803 36.9448 32.2926 39.2381 30.74 41.1747ZM40.9982 39.764C40.8195 39.6931 40.6163 39.7229 40.4654 39.8435C40.3155 39.9645 40.2419 40.1565 40.2739 40.3464L40.4696 41.5208L40.1918 41.1736C38.6398 39.2371 37.652 36.9437 37.2974 34.5053L37.7832 34.6531C37.8344 34.6685 37.8867 34.676 37.9384 34.676C38.1027 34.676 38.2611 34.5997 38.3635 34.4648L39.1294 33.452C39.5886 35.5661 40.4579 38.084 41.7784 40.0765L40.9982 39.764ZM41.4547 28.6435L41.4126 30.8547L39.3224 31.5779C39.2227 31.6125 39.1352 31.6765 39.0718 31.7603L37.7379 33.5245L35.6216 32.8813C35.571 32.8664 35.5192 32.8584 35.4664 32.8584C35.4136 32.8584 35.3619 32.8664 35.3112 32.8813L33.195 33.5245L31.8611 31.7603C31.7976 31.6765 31.7102 31.6131 31.6104 31.5779L29.5203 30.8547L29.4782 28.6435C29.476 28.5384 29.443 28.4349 29.3822 28.3485L28.1166 26.5347L29.3822 24.7213C29.4424 24.6349 29.476 24.532 29.4782 24.4264L29.5203 22.2152L31.6104 21.492C31.7102 21.4573 31.7976 21.3933 31.8616 21.3096L33.1955 19.5453L35.3112 20.1885C35.412 20.2189 35.5208 20.2189 35.6216 20.1885L37.7374 19.5453L39.0712 21.3096C39.1352 21.3933 39.2227 21.4568 39.3224 21.492L41.4126 22.2152L41.4547 24.4264C41.4568 24.5315 41.4899 24.6349 41.5507 24.7213L42.8163 26.5347L41.5507 28.3485C41.4899 28.4349 41.4568 28.5379 41.4547 28.6435Z" fill="#1E3F6D"/>
</svg>
