<svg width="56" height="56" viewBox="0 0 56 56" fill="none" xmlns="http://www.w3.org/2000/svg">
<circle cx="28" cy="28" r="28" fill="#B8D6ED"/>
<path d="M32.3218 44H23.8628C23.3641 44 22.9578 43.5937 22.9578 43.095V36.8893L17.5869 39.9885C17.1511 40.2359 16.597 40.0882 16.3458 39.6597L12.12 32.3384C11.8725 31.9026 12.0203 31.3485 12.4488 31.0973L17.8233 27.9982L12.4525 24.899C12.2419 24.7808 12.0905 24.5813 12.0314 24.3486C11.9686 24.1159 12.0018 23.8721 12.1237 23.6615L16.3532 16.3366C16.4714 16.1261 16.6709 15.9746 16.9036 15.9155C17.1363 15.8527 17.3801 15.886 17.5906 16.0078L22.9578 19.1107V12.905C22.9578 12.4063 23.3641 12 23.8628 12H32.3181C32.8168 12 33.2231 12.4063 33.2231 12.905V19.107L38.594 16.0078C39.0299 15.7604 39.5839 15.9081 39.8351 16.3366L44.0646 23.6615C44.3121 24.0974 44.1643 24.6515 43.7358 24.9027L38.3613 27.9982L43.7322 31.0973C44.1643 31.3448 44.3121 31.8989 44.0646 32.3348L39.8388 39.6597C39.5913 40.0919 39.0372 40.2396 38.6014 39.9921L33.2268 36.893V43.095C33.2268 43.5937 32.8205 44 32.3218 44ZM23.2465 35.8713C23.4465 35.7557 23.6966 35.9001 23.6966 36.1311V43.095C23.6966 43.1873 23.7705 43.2612 23.8628 43.2612H32.3218C32.4141 43.2612 32.488 43.1873 32.488 43.095V36.1341C32.488 35.9033 32.7378 35.7589 32.9378 35.8742L38.9671 39.3494C39.0483 39.3974 39.1518 39.3716 39.1961 39.2903L43.4219 31.9691C43.4699 31.8878 43.444 31.7844 43.3628 31.74L37.3338 28.2581C37.1338 28.1426 37.1338 27.8539 37.3339 27.7384L43.3628 24.26C43.4403 24.2156 43.4699 24.1085 43.4219 24.0272L39.1924 16.706C39.1481 16.6247 39.0409 16.5989 38.9597 16.6469L32.9343 20.1253C32.7343 20.2408 32.4843 20.0964 32.4843 19.8655V12.905C32.4843 12.8127 32.4104 12.7388 32.3181 12.7388H23.8628C23.7705 12.7388 23.6966 12.8127 23.6966 12.905V19.8618C23.6966 20.0927 23.4466 20.2371 23.2466 20.1216L17.2212 16.6432C17.14 16.5952 17.0365 16.621 16.9922 16.7023L12.7627 24.0272C12.7147 24.1085 12.7406 24.2119 12.8218 24.2563L18.8511 27.7384C19.051 27.8538 19.051 28.1425 18.8511 28.2579L12.8218 31.74C12.7443 31.7844 12.7147 31.8915 12.7627 31.9728L16.9885 39.294C17.0329 39.3716 17.14 39.4011 17.2212 39.3531L23.2465 35.8713Z" fill="#1E3F6D" stroke="#1E3F6D" stroke-width="0.3"/>
<path d="M28.0256 19.6278C27.6045 19.6278 27.1871 19.517 26.8177 19.3102C26.0568 18.8743 25.584 18.0616 25.584 17.1899C25.584 15.8453 26.6774 14.7519 28.0219 14.7519C28.6721 14.7482 29.2852 14.9994 29.7507 15.4575C30.2124 15.9192 30.4673 16.5324 30.4673 17.1862C30.4673 18.0579 29.9945 18.8706 29.2372 19.3065C28.8678 19.517 28.4504 19.6278 28.0256 19.6278ZM28.0367 15.4907C28.033 15.4907 28.0293 15.4907 28.0256 15.4907C27.0874 15.4907 26.3228 16.2516 26.3228 17.1899C26.3228 17.7957 26.6515 18.3645 27.1834 18.6674C27.4383 18.8115 27.7338 18.8891 28.0256 18.8891C28.3211 18.8891 28.613 18.8115 28.8678 18.6637C29.3998 18.3608 29.7285 17.792 29.7285 17.1862C29.7285 16.7282 29.5512 16.3034 29.2298 15.982C28.9085 15.6643 28.4874 15.4907 28.0367 15.4907Z" fill="#0088CC"/>
<path d="M26.8918 32.6524L26.6997 22.5866L26.8401 22.4721C27.4828 21.9587 28.4063 22.051 29.049 22.1655L29.3593 22.2209L29.2374 28.9549L29.2152 30.3438L29.1783 30.4213C28.8791 31.0087 28.3176 31.4704 27.7783 31.9137C27.6823 31.9949 27.5825 32.0725 27.4902 32.1538L26.8918 32.6524ZM27.4459 22.956L27.601 31.0936C27.963 30.787 28.2881 30.4841 28.4765 30.1517L28.4986 28.9364L28.6094 22.8415C28.096 22.7824 27.7118 22.8194 27.4459 22.956Z" fill="#0088CC"/>
<path d="M27.0359 40.8824L26.8955 33.4872L26.9435 33.3986C27.1689 32.9997 27.6306 32.645 28.1699 32.235C28.3029 32.1353 28.4395 32.0319 28.5725 31.9247L29.1857 31.4445L29.0601 38.1637L29.0564 38.1858C28.9899 38.6771 28.6464 38.9542 28.314 39.2238C28.0886 39.4048 27.8596 39.5895 27.6897 39.8555L27.0359 40.8824ZM27.6417 33.683L27.7377 38.7399C27.7783 38.7067 27.819 38.6734 27.8559 38.6439C28.133 38.4186 28.2955 38.2819 28.325 38.1009L28.4211 32.9738C28.0886 33.2324 27.7894 33.4725 27.6417 33.683Z" fill="#0088CC"/>
<path d="M28.0259 42.0016C27.4903 42.0016 27.0508 41.5694 27.0434 41.0338L27.0249 40.1399L27.0914 40.0439C27.4165 39.5637 27.8782 39.2571 28.2845 38.9837L28.2882 38.98C28.3325 38.9505 28.3769 38.9209 28.4212 38.8877L29.0528 38.4518L29.0085 41.0338C29.0011 41.5768 28.5652 42.0016 28.0259 42.0016ZM27.7711 40.3689L27.7821 41.0227C27.7821 41.1557 27.893 41.2628 28.0259 41.2628C28.1626 41.2628 28.2697 41.1557 28.2734 41.0227L28.2956 39.8776C28.0998 40.0217 27.9151 40.1805 27.7711 40.3689Z" fill="#0088CC"/>
<path d="M26.6738 21.4194L26.6147 18.3387L27.1799 18.6637C27.4311 18.8078 27.7229 18.8854 28.0221 18.8854C28.3176 18.8891 28.6094 18.8115 28.8643 18.6637L29.4295 18.3387L29.3704 21.3233L28.9567 21.2642C28.4875 21.1977 27.7857 21.1497 27.1171 21.3122L26.6738 21.4194ZM27.3794 19.5355L27.3978 20.507C27.8485 20.4442 28.2844 20.4516 28.6538 20.4811L28.6722 19.5355C28.4617 19.5946 28.24 19.6205 28.0221 19.6205C27.8042 19.6205 27.5862 19.5909 27.3794 19.5355Z" fill="#0088CC"/>
<path d="M27.5455 28.1348L26.9434 27.6916C25.8168 26.8641 24.1176 25.6119 24.4944 23.3439C24.7382 21.87 25.5878 20.917 26.9545 20.5846C27.7376 20.3925 28.5392 20.4442 29.0748 20.5218C29.4257 20.5698 29.6953 20.6363 29.8246 20.6732C30.7481 20.5291 31.461 20.6806 31.9486 21.1239C32.632 21.7481 32.5655 22.7048 32.5618 22.7455L32.547 22.9154L32.4103 23.0151C31.4832 23.6985 30.6558 23.6246 30.1275 23.4473C29.7138 23.3069 29.4183 23.0816 29.2816 22.9597C29.1634 22.9339 29.0415 22.908 28.9196 22.8858C28.1365 22.7455 27.6083 22.7972 27.3017 23.0447C27.0875 23.2146 26.9656 23.4879 26.9213 23.8832C26.8954 24.1307 27.0468 24.441 27.3904 24.8325L27.479 24.9359L27.5455 28.1348ZM28.1255 21.194C27.8078 21.194 27.4643 21.2236 27.1281 21.3049C26.0421 21.5708 25.4178 22.2763 25.2221 23.4658C24.9857 24.8916 25.7281 25.7929 26.7772 26.6388L26.7513 25.2167C26.4558 24.8658 26.1271 24.3671 26.1899 23.8019C26.2564 23.2072 26.478 22.7602 26.8437 22.4684C27.4827 21.955 28.4099 22.0473 29.0526 22.1618C29.2225 22.1914 29.3888 22.2283 29.5513 22.2653L29.6584 22.2911L29.7323 22.3687C29.7323 22.3687 29.9909 22.6273 30.3935 22.7566C30.8626 22.908 31.3428 22.8304 31.823 22.5275C31.8045 22.3096 31.7344 21.9291 31.4462 21.6706C31.1212 21.3787 30.593 21.2938 29.869 21.4194L29.784 21.4341L29.699 21.4083C29.6953 21.4083 29.4035 21.3196 28.9713 21.2568C28.7312 21.2236 28.4394 21.194 28.1255 21.194Z" fill="#0088CC"/>
<path d="M27.7081 37.0629L27.0542 36.3758C26.3635 35.6518 25.7134 34.8466 25.6543 33.8566C25.5952 32.8593 26.3192 32.1648 27.0062 31.5923C27.0986 31.5147 27.1872 31.4408 27.2796 31.367C27.7709 30.9643 28.2806 30.5469 28.5133 30.0926C28.6094 29.9005 28.6537 29.7047 28.65 29.5052C28.6463 29.376 28.6094 29.2578 28.5429 29.1396L28.4949 29.0509L28.554 25.9407L29.1561 26.4874C30.0648 27.3111 30.9919 28.3121 30.9734 29.5016C30.9513 30.835 29.9835 31.7733 29.0415 32.5121C28.9049 32.6192 28.7682 32.7226 28.6352 32.826C28.1809 33.1733 27.7524 33.4983 27.6046 33.768C27.5677 33.8345 27.5603 33.8751 27.5603 33.9009V33.9046C27.5566 33.9933 27.5825 34.1004 27.6379 34.2334L27.6637 34.2962L27.7081 37.0629ZM29.2299 28.8662C29.3223 29.0583 29.374 29.2651 29.3814 29.4757V29.4794C29.3888 29.8044 29.3186 30.1147 29.1634 30.4213C28.8605 31.0197 28.2917 31.4852 27.7413 31.9358C27.6527 32.0097 27.5603 32.0836 27.4717 32.1574C26.7735 32.7411 26.3487 33.2176 26.3857 33.8086C26.4152 34.2629 26.6295 34.6914 26.9287 35.0978L26.9176 34.4329C26.84 34.226 26.8031 34.0339 26.8141 33.8566C26.8215 33.7015 26.8659 33.55 26.9471 33.3986C27.1688 32.996 27.6379 32.6376 28.1772 32.2276C28.3065 32.1279 28.4394 32.0282 28.5724 31.921C29.422 31.2561 30.2088 30.4989 30.2236 29.4794C30.2347 28.8182 29.7951 28.1828 29.2521 27.6066L29.2299 28.8662Z" fill="#0088CC"/>
<path d="M27.4383 41.2259H26.7032C26.6515 40.5093 26.7771 39.933 27.0837 39.4565C27.3164 39.0908 27.6193 38.847 27.8631 38.6476C28.1475 38.4186 28.31 38.2782 28.3359 38.0861V38.0787C28.3396 38.0639 28.3396 38.0418 28.3396 38.0122L28.3359 37.9975L28.3876 35.264L29.0303 36.121C29.4293 36.6492 29.843 37.2808 29.8836 37.9531C29.9243 38.6882 29.3886 39.1204 28.8863 39.4676L28.8789 39.475C28.8346 39.5046 28.7902 39.5341 28.7459 39.5637L28.6979 39.5969C28.3285 39.8444 27.948 40.0993 27.7042 40.4576C27.5454 40.6903 27.4604 40.9378 27.4383 41.2259ZM29.0673 38.1895C29.0562 38.256 29.0451 38.3188 29.0229 38.3779C29.1116 38.2597 29.1522 38.1378 29.1448 37.9975C29.1375 37.8903 29.1153 37.7795 29.0784 37.6687L29.0747 37.9162C29.0784 37.942 29.0784 37.9642 29.0784 37.979C29.0784 38.0418 29.0784 38.1157 29.0673 38.1895Z" fill="#0088CC"/>
<path d="M16.2155 32.7704L15.8457 32.1308L14.9951 32.6227L15.3649 33.2623L16.2155 32.7704Z" fill="#0088CC"/>
<path d="M20.32 30.402L19.9507 29.7621L16.649 31.6678L17.0184 32.3076L20.32 30.402Z" fill="#0088CC"/>
</svg>
