<svg width="56" height="56" viewBox="0 0 56 56" fill="none" xmlns="http://www.w3.org/2000/svg">
<circle cx="28" cy="28" r="28" fill="#B8D6ED"/>
<path d="M21.0735 14.7148C21.058 14.6509 21.03 14.5907 20.9912 14.5377C20.9524 14.4846 20.9034 14.4397 20.8472 14.4056C20.791 14.3714 20.7287 14.3487 20.6637 14.3387C20.5987 14.3287 20.5324 14.3317 20.4685 14.3473C18.5494 14.8475 16.8875 16.0491 15.8111 17.7148C15.7746 17.7694 15.7493 17.8308 15.7366 17.8952C15.7238 17.9596 15.7239 18.026 15.7368 18.0904C15.7496 18.1548 15.7751 18.2161 15.8117 18.2706C15.8482 18.3252 15.8952 18.3721 15.9498 18.4085C16.0045 18.445 16.0658 18.4703 16.1302 18.483C16.1947 18.4958 16.261 18.4957 16.3254 18.4828C16.3898 18.4699 16.4511 18.4445 16.5057 18.4079C16.5603 18.3714 16.6071 18.3244 16.6436 18.2698C17.582 16.8128 19.0323 15.7602 20.7085 15.3198C20.8371 15.2879 20.9477 15.2063 21.0162 15.0928C21.0846 14.9794 21.1052 14.8434 21.0735 14.7148Z" fill="#1E3F6D"/>
<path d="M18.2588 19.1398C18.1262 19.1398 17.999 19.1925 17.9052 19.2862C17.8115 19.38 17.7588 19.5072 17.7588 19.6398V24.1397C17.7588 24.2723 17.8115 24.3995 17.9052 24.4933C17.999 24.5871 18.1262 24.6397 18.2588 24.6397C18.3914 24.6397 18.5186 24.5871 18.6123 24.4933C18.7061 24.3995 18.7588 24.2723 18.7588 24.1397V19.6398C18.7588 19.5072 18.7061 19.38 18.6123 19.2862C18.5186 19.1925 18.3914 19.1398 18.2588 19.1398Z" fill="#0088CC"/>
<path d="M38.2583 24.1397V19.6398C38.2583 19.5072 38.2056 19.38 38.1118 19.2862C38.0181 19.1925 37.8909 19.1398 37.7583 19.1398C37.6257 19.1398 37.4985 19.1925 37.4047 19.2862C37.311 19.38 37.2583 19.5072 37.2583 19.6398V24.1397C37.2583 24.2723 37.311 24.3995 37.4047 24.4933C37.4985 24.5871 37.6257 24.6397 37.7583 24.6397C37.8909 24.6397 38.0181 24.5871 38.1118 24.4933C38.2056 24.3995 38.2583 24.2723 38.2583 24.1397Z" fill="#0088CC"/>
<path d="M28.0088 26.7647C28.4043 26.7647 28.791 26.6474 29.1199 26.4277C29.4488 26.2079 29.7051 25.8955 29.8565 25.5301C30.0079 25.1646 30.0475 24.7625 29.9703 24.3746C29.8931 23.9866 29.7027 23.6302 29.423 23.3505C29.1433 23.0708 28.7869 22.8804 28.3989 22.8032C28.011 22.726 27.6089 22.7656 27.2434 22.917C26.878 23.0684 26.5656 23.3247 26.3458 23.6536C26.1261 23.9825 26.0088 24.3692 26.0088 24.7647C26.0088 25.2952 26.2195 25.8039 26.5946 26.1789C26.9696 26.554 27.4783 26.7647 28.0088 26.7647ZM28.0088 23.7647C28.2065 23.7647 28.3999 23.8234 28.5643 23.9333C28.7288 24.0432 28.857 24.1993 28.9326 24.3821C29.0083 24.5648 29.0281 24.7658 28.9895 24.9598C28.951 25.1538 28.8557 25.332 28.7159 25.4718C28.576 25.6117 28.3978 25.7069 28.2039 25.7455C28.0099 25.7841 27.8088 25.7643 27.6261 25.6886C27.4434 25.6129 27.2872 25.4847 27.1773 25.3203C27.0674 25.1559 27.0088 24.9625 27.0088 24.7647C27.0088 24.4995 27.1141 24.2452 27.3017 24.0576C27.4892 23.8701 27.7436 23.7647 28.0088 23.7647Z" fill="#0088CC"/>
<path d="M13.5462 29.0422C13.6029 29.1622 13.705 29.2548 13.8299 29.2995C13.9549 29.3443 14.0925 29.3376 14.2125 29.2809C14.3325 29.2242 14.4251 29.1222 14.4698 28.9973C14.5146 28.8723 14.5079 28.7347 14.4512 28.6147C13.6015 26.8905 13.1108 25.0117 13.0088 23.0922C12.8063 17.5923 16.1112 14.1498 19.2587 13.2723C22.5087 12.3674 25.6861 13.8973 27.5536 17.2723C27.7336 17.5973 27.8911 17.9148 28.0336 18.2398C28.0602 18.2999 28.0984 18.3541 28.1459 18.3995C28.1935 18.4448 28.2495 18.4803 28.3108 18.504C28.3721 18.5277 28.4374 18.539 28.5031 18.5375C28.5688 18.5359 28.6335 18.5214 28.6936 18.4948C28.7537 18.4682 28.8079 18.43 28.8533 18.3825C28.8986 18.3349 28.9341 18.2789 28.9578 18.2176C28.9815 18.1563 28.9928 18.091 28.9913 18.0253C28.9897 17.9596 28.9752 17.8949 28.9486 17.8348C28.7936 17.4848 28.6236 17.1423 28.4286 16.7898C26.3411 12.9848 22.7236 11.2724 19.0087 12.3074C15.4862 13.2873 11.7963 17.0923 12.0088 23.1397C12.1167 25.191 12.6397 27.199 13.5462 29.0422Z" fill="#1E3F6D"/>
<path d="M16.796 32.4546C16.7164 32.3486 16.598 32.2784 16.4667 32.2597C16.3354 32.2409 16.2021 32.2751 16.096 32.3546C15.9899 32.4342 15.9198 32.5527 15.901 32.6839C15.8823 32.8152 15.9164 32.9485 15.996 33.0546C18.3485 36.1996 21.3359 38.8421 23.7584 40.7146V39.4446C21.5084 37.6521 18.891 35.2546 16.796 32.4546Z" fill="#1E3F6D"/>
<path d="M29.8111 15.3498C31.8986 13.0848 34.7986 12.4148 37.5611 13.5548C41.021 14.9798 43.151 18.7223 42.991 23.0922C42.741 29.9372 36.4911 36.0621 32.2411 39.4446V40.7145C37.4911 36.6546 43.716 30.3547 43.991 23.1272C44.166 18.3348 41.7935 14.2148 37.9436 12.6273C34.7686 11.3199 31.4436 12.0823 29.0687 14.6698C29.022 14.7177 28.9854 14.7744 28.9611 14.8366C28.9368 14.8989 28.9251 14.9654 28.9269 15.0322C28.9287 15.099 28.9439 15.1647 28.9715 15.2256C28.9992 15.2864 29.0387 15.3411 29.0879 15.3864C29.137 15.4317 29.1947 15.4667 29.2576 15.4893C29.3205 15.5119 29.3873 15.5217 29.454 15.518C29.5207 15.5144 29.5861 15.4974 29.6461 15.4681C29.7062 15.4387 29.7597 15.3977 29.8036 15.3473L29.8111 15.3498Z" fill="#1E3F6D"/>
<path d="M30.5087 34.6396V30.3572L33.3486 27.7147C33.3989 27.6681 33.4391 27.6116 33.4666 27.5488C33.4941 27.486 33.5084 27.4183 33.5086 27.3497V22.3898H35.2586V25.2647C35.2586 25.3973 35.3113 25.5245 35.4051 25.6183C35.4988 25.712 35.626 25.7647 35.7586 25.7647C35.8912 25.7647 36.0184 25.712 36.1122 25.6183C36.2059 25.5245 36.2586 25.3973 36.2586 25.2647V18.5148C36.2586 18.3822 36.2059 18.255 36.1122 18.1612C36.0184 18.0675 35.8912 18.0148 35.7586 18.0148C35.626 18.0148 35.4988 18.0675 35.4051 18.1612C35.3113 18.255 35.2586 18.3822 35.2586 18.5148V21.3898H20.7588V18.5148C20.7588 18.3822 20.7061 18.255 20.6123 18.1612C20.5186 18.0675 20.3914 18.0148 20.2588 18.0148C20.1262 18.0148 19.999 18.0675 19.9052 18.1612C19.8115 18.255 19.7588 18.3822 19.7588 18.5148V25.2647C19.7588 25.3973 19.8115 25.5245 19.9052 25.6183C19.999 25.712 20.1262 25.7647 20.2588 25.7647C20.3914 25.7647 20.5186 25.712 20.6123 25.6183C20.7061 25.5245 20.7588 25.3973 20.7588 25.2647V22.3898H22.7588V27.3897C22.7593 27.5221 22.8124 27.6489 22.9063 27.7422L25.5087 30.3472V34.6396C25.5087 34.9048 25.6141 35.1592 25.8016 35.3467C25.9892 35.5343 26.2435 35.6396 26.5087 35.6396V38.6396H25.2587C25.1261 38.6396 24.9989 38.6923 24.9052 38.786C24.8114 38.8798 24.7587 39.007 24.7587 39.1396V43.1395C24.7587 43.2721 24.8114 43.3993 24.9052 43.4931C24.9989 43.5869 25.1261 43.6395 25.2587 43.6395H30.7587C30.8913 43.6395 31.0185 43.5869 31.1122 43.4931C31.206 43.3993 31.2587 43.2721 31.2587 43.1395V42.1395C31.2587 42.0069 31.206 41.8798 31.1122 41.786C31.0185 41.6922 30.8913 41.6396 30.7587 41.6396C30.6261 41.6396 30.4989 41.6922 30.4051 41.786C30.3114 41.8798 30.2587 42.0069 30.2587 42.1395V42.6395H25.7587V39.6396H30.2587V40.1396C30.2587 40.2722 30.3114 40.3994 30.4051 40.4931C30.4989 40.5869 30.6261 40.6396 30.7587 40.6396C30.8913 40.6396 31.0185 40.5869 31.1122 40.4931C31.206 40.3994 31.2587 40.2722 31.2587 40.1396V39.1396C31.2587 39.007 31.206 38.8798 31.1122 38.786C31.0185 38.6923 30.8913 38.6396 30.7587 38.6396H29.5087V35.6396C29.7739 35.6396 30.0283 35.5343 30.2158 35.3467C30.4033 35.1592 30.5087 34.9048 30.5087 34.6396ZM25.5087 28.6397V28.9322L23.7587 27.1822V22.3898H32.5087V27.1397L30.5087 28.9997V28.6397C30.5087 28.3745 30.4033 28.1201 30.2158 27.9326C30.0283 27.7451 29.7739 27.6397 29.5087 27.6397H26.5087C26.2435 27.6397 25.9892 27.7451 25.8016 27.9326C25.6141 28.1201 25.5087 28.3745 25.5087 28.6397ZM28.5087 38.6396H27.5087V35.6396H28.5087V38.6396ZM26.5087 34.6396V28.6397H29.5087V34.6396H26.5087Z" fill="#0088CC"/>
<path d="M15.0088 31.3897C15.2849 31.3897 15.5088 31.1658 15.5088 30.8897C15.5088 30.6135 15.2849 30.3897 15.0088 30.3897C14.7326 30.3897 14.5088 30.6135 14.5088 30.8897C14.5088 31.1658 14.7326 31.3897 15.0088 31.3897Z" fill="#1E3F6D"/>
</svg>
