<svg width="56" height="56" viewBox="0 0 56 56" fill="none" xmlns="http://www.w3.org/2000/svg">
<circle cx="28" cy="28" r="28" fill="#B8D6ED"/>
<path d="M34.8105 40.8535C34.6435 41.0983 34.6783 41.4351 34.9096 41.6202C35.1396 41.8043 35.4769 41.7686 35.6456 41.5272C36.4445 40.384 36.9225 39.0436 37.0243 37.6461C37.0396 37.435 37.0473 37.2186 37.0473 36.9968C36.9411 34.4466 36.6554 31.9073 36.1925 29.3976C36.1396 29.1108 35.8645 28.922 35.5772 28.9728C35.2829 29.0248 35.0887 29.3079 35.1428 29.6018C35.5923 32.0443 35.8713 34.5152 35.9776 36.9968C35.9776 37.1921 35.9706 37.3825 35.9573 37.5691C35.8711 38.749 35.4739 39.8816 34.8105 40.8535Z" fill="#0088CC"/>
<path d="M43.4652 15.6036H40.791V15.0688C40.791 14.9269 40.7347 14.7909 40.6344 14.6906C40.5341 14.5903 40.398 14.5339 40.2562 14.5339H37.0472C36.9054 14.5339 36.7693 14.5903 36.669 14.6906C36.5687 14.7909 36.5124 14.9269 36.5124 15.0688V18.8126H34.373C34.373 18.387 34.204 17.9789 33.9031 17.678C33.6022 17.3771 33.1941 17.2081 32.7686 17.2081C32.5859 17.2099 32.405 17.2432 32.2337 17.3065V17.2081C32.2337 16.7825 32.0647 16.3744 31.7638 16.0735C31.4629 15.7726 31.0548 15.6036 30.6292 15.6036C30.4466 15.6054 30.2657 15.6387 30.0944 15.702V15.6036C30.0951 15.215 29.9544 14.8394 29.6986 14.5469C29.4427 14.2544 29.0892 14.065 28.704 14.0139C28.3188 13.9628 27.9281 14.0536 27.6049 14.2694C27.2817 14.4851 27.048 14.8111 26.9475 15.1864C26.7042 15.0876 26.4404 15.0501 26.1793 15.0773C25.9181 15.1046 25.6677 15.1957 25.4502 15.3426C25.2326 15.4896 25.0546 15.6879 24.9318 15.9199C24.809 16.152 24.7452 16.4107 24.7461 16.6733V18.8126H20.4674V15.0688C20.4674 14.9269 20.4111 14.7909 20.3108 14.6906C20.2105 14.5903 20.0745 14.5339 19.9326 14.5339H16.7236C16.5818 14.5339 16.4457 14.5903 16.3454 14.6906C16.2451 14.7909 16.1888 14.9269 16.1888 15.0688V15.6036H13.5146C13.3728 15.6036 13.2368 15.6599 13.1365 15.7602C13.0362 15.8605 12.9798 15.9966 12.9798 16.1384V25.7654C12.9798 25.9072 13.0362 26.0433 13.1365 26.1436C13.2368 26.2439 13.3728 26.3002 13.5146 26.3002H16.1888V26.835C16.1888 26.9769 16.2451 27.1129 16.3454 27.2132C16.4457 27.3135 16.5818 27.3699 16.7236 27.3699H19.9326C20.0745 27.3699 20.2105 27.3135 20.3108 27.2132C20.4111 27.1129 20.4674 26.9769 20.4674 26.835V23.0912H22.2452C22.4933 23.8381 23.0073 24.4677 23.6893 24.8604L25.8158 26.0756V32.5417C24.1029 31.9182 22.2899 31.6154 20.4674 31.6485C15.5951 31.6485 13.1624 33.7599 12.3339 34.68C12.1358 34.9 12.199 35.2289 12.4449 35.3937C12.6905 35.5583 13.0279 35.4964 13.2314 35.2821C14.008 34.4643 16.1698 32.7182 20.4674 32.7182C24.6847 32.7182 26.8893 34.1525 27.7008 34.8368C27.9191 35.0209 28.2523 35.0477 28.4752 34.8693C28.7094 34.6819 28.7376 34.3341 28.5176 34.1303C28.0331 33.6814 27.483 33.3071 26.8854 33.0209V25.7654C26.8856 25.6713 26.861 25.5789 26.814 25.4974C26.7671 25.4159 26.6995 25.3482 26.618 25.3011L24.222 23.9314C23.8881 23.7382 23.6119 23.4592 23.422 23.1235C23.232 22.7877 23.1352 22.4073 23.1416 22.0216C23.1434 21.5487 23.3018 21.0897 23.5921 20.7163C23.8824 20.343 24.2882 20.0764 24.7461 19.9582V21.4867H25.8158V16.6733C25.8158 16.5314 25.8721 16.3954 25.9724 16.2951C26.0727 16.1948 26.2087 16.1384 26.3506 16.1384C26.4924 16.1384 26.6285 16.1948 26.7288 16.2951C26.8291 16.3954 26.8854 16.5314 26.8854 16.6733V18.2777H27.9551V15.6036C27.9551 15.4617 28.0114 15.3257 28.1117 15.2254C28.212 15.1251 28.3481 15.0688 28.4899 15.0688C28.6318 15.0688 28.7678 15.1251 28.8681 15.2254C28.9684 15.3257 29.0247 15.4617 29.0247 15.6036V18.8126H30.0944V17.2081C30.0944 17.0662 30.1507 16.9302 30.251 16.8299C30.3513 16.7296 30.4874 16.6733 30.6292 16.6733C30.7711 16.6733 30.9071 16.7296 31.0074 16.8299C31.1077 16.9302 31.1641 17.0662 31.1641 17.2081V19.3474H32.2337V18.8126C32.2337 18.6707 32.2901 18.5347 32.3904 18.4344C32.4907 18.3341 32.6267 18.2777 32.7686 18.2777C32.9104 18.2777 33.0464 18.3341 33.1467 18.4344C33.247 18.5347 33.3034 18.6707 33.3034 18.8126V23.4998L32.2872 25.5263C32.2331 25.6348 32.2174 25.7586 32.2428 25.8772C32.2615 25.952 33.8382 33.353 33.8382 36.9968C33.8382 37.1395 33.8332 37.2789 33.8232 37.4151C33.707 38.6313 33.1368 39.7591 32.2262 40.5737C31.3155 41.3883 30.1314 41.8298 28.9097 41.8103H12.9798C12.6844 41.8103 12.445 42.0498 12.445 42.3451C12.445 42.6405 12.6844 42.88 12.9798 42.88H28.9097C30.4015 42.8987 31.8456 42.3546 32.954 41.356C34.0624 40.3574 34.7538 38.9777 34.8902 37.4921C34.902 37.3313 34.9079 37.1662 34.9079 36.9968C34.9079 33.5231 33.5826 27.0393 33.3307 25.8376L34.3196 23.8651C34.3556 23.7906 34.374 23.7088 34.373 23.6261V23.0912H36.5124V26.835C36.5124 26.9769 36.5687 27.1129 36.669 27.2132C36.7693 27.3135 36.9054 27.3699 37.0472 27.3699H40.2562C40.398 27.3699 40.5341 27.3135 40.6344 27.2132C40.7347 27.1129 40.791 26.9769 40.791 26.835V26.3002H43.4652C43.607 26.3002 43.7431 26.2439 43.8434 26.1436C43.9437 26.0433 44 25.9072 44 25.7654V16.1384C44 15.9966 43.9437 15.8605 43.8434 15.7602C43.7431 15.6599 43.607 15.6036 43.4652 15.6036ZM14.0495 25.2305V23.6261H15.1191V22.5564H14.0495V21.4867H15.1191V20.4171H14.0495V19.3474H15.1191V18.2777H14.0495V16.6733H16.1888V25.2305H14.0495ZM19.3978 26.3002H17.2585V15.6036H19.3978V26.3002ZM20.4674 19.8822H22.9031C22.3777 20.4719 22.0834 21.2318 22.0746 22.0216H20.4674V19.8822ZM34.373 22.0216V19.8822H36.5124V22.0216H34.373ZM39.7214 26.3002H37.582V15.6036H39.7214V26.3002ZM40.791 25.2305V16.6733H42.9303V18.2777H41.8607V19.3474H42.9303V20.4171H41.8607V21.4867H42.9303V22.5564H41.8607V23.6261H42.9303V25.2305H40.791Z" fill="#1E3F6D"/>
<path d="M25.0822 35.8536C25.3412 35.981 25.6589 35.8978 25.8074 35.6504C25.9624 35.3921 25.8736 35.0555 25.6037 34.9219C24.0116 34.1335 22.2489 33.7429 20.4674 33.7878C19.5008 33.7796 18.5384 33.903 17.6066 34.154C17.3193 34.2314 17.1656 34.5377 17.2598 34.82C17.3529 35.099 17.6532 35.2492 17.9375 35.1741C18.7621 34.9565 19.613 34.8498 20.4674 34.8575C22.0667 34.8062 23.6512 35.1495 25.0822 35.8536Z" fill="#0088CC"/>
<path d="M16.1884 35.2548C16.0571 34.9904 15.7353 34.881 15.4799 35.029C15.403 35.0735 15.3269 35.1193 15.2514 35.1663C15.0006 35.3227 14.9465 35.6587 15.119 35.8987C15.2913 36.1384 15.6242 36.1914 15.8761 36.0377C15.9028 36.0215 15.9295 36.0054 15.9564 35.9895C16.2107 35.8389 16.32 35.5194 16.1884 35.2548Z" fill="#0088CC"/>
</svg>
