<svg width="34" height="34" viewBox="0 0 34 34" fill="none" xmlns="http://www.w3.org/2000/svg">
<circle cx="17" cy="17" r="17" fill="#B8D6ED"/>
<path d="M11.7 8L9 11.6V24.2C9 24.6774 9.18964 25.1352 9.52721 25.4728C9.86477 25.8104 10.3226 26 10.8 26H23.4C23.8774 26 24.3352 25.8104 24.6728 25.4728C25.0104 25.1352 25.2 24.6774 25.2 24.2V11.6L22.5 8H11.7Z" stroke="#1E3F6D" stroke-width="1.5" stroke-linecap="round" stroke-linejoin="round"/>
<path d="M9 11.6H25.2" stroke="#1E3F6D" stroke-width="1.5" stroke-linecap="round" stroke-linejoin="round"/>
<path d="M20.7 15.2C20.7 16.1548 20.3207 17.0705 19.6456 17.7456C18.9705 18.4207 18.0548 18.8 17.1 18.8C16.1452 18.8 15.2295 18.4207 14.5544 17.7456C13.8793 17.0705 13.5 16.1548 13.5 15.2" stroke="#1E3F6D" stroke-width="1.5" stroke-linecap="round" stroke-linejoin="round"/>
</svg>
