<svg width="24" height="26" viewBox="0 0 24 26" fill="none" xmlns="http://www.w3.org/2000/svg">
<path d="M16.6571 17.514C16.5237 17.5267 16.4258 17.6463 16.4258 17.7802L16.4259 19.6013H14.2536C14.112 19.6013 13.9972 19.7162 13.9972 19.8578V24.4872H7.46215C7.03871 24.4872 6.69425 24.1422 6.69425 23.7183V22.0561L13.1107 19.0196C13.468 19.1774 13.8946 19.1752 14.2492 19.0115L14.6074 18.8462C15.0857 18.6254 15.3033 18.0533 15.0926 17.571L14.4187 16.0292C14.2062 15.5431 13.6543 15.3184 13.1622 15.5174L12.7922 15.6671C12.426 15.8153 12.1441 16.1096 12.0116 16.4793C12.0116 16.4793 4.95466 18.9864 4.93497 18.9943L6.49743 15.3597C6.73338 14.8091 7.03333 14.3041 7.39907 13.8614C7.43912 13.8129 7.46174 13.7525 7.46174 13.6896C7.46174 13.4403 7.14989 13.3247 6.98933 13.5153C6.57846 14.0033 6.24907 14.5604 6.02379 15.1629L4.02943 19.802C3.28451 21.1942 4.70594 22.8215 6.18128 22.2892V23.7183C6.18128 24.425 6.75579 25 7.462 25H15.6579C16.3641 25 16.9387 24.425 16.9387 23.7183V17.7692C16.9387 17.6193 16.81 17.4994 16.6571 17.514ZM12.3025 16.9202C12.3783 16.8933 12.4371 16.8324 12.4612 16.7557C12.5296 16.4836 12.7228 16.2485 12.9847 16.1425L13.3547 15.9928C13.5838 15.9001 13.8497 16.0075 13.9489 16.2345L14.6227 17.7763C14.7226 18.0048 14.6194 18.2759 14.3926 18.3805L14.0345 18.5459C13.7566 18.6742 13.4614 18.6162 13.1926 18.5015C13.1271 18.4764 13.0541 18.479 12.9907 18.509L12.0909 18.9348L11.3975 17.2416L12.3025 16.9202ZM6.12143 21.7599C5.81687 21.904 5.47466 21.92 5.15794 21.8051C4.08625 21.4162 4.09189 19.8361 5.166 19.4546L10.9136 17.4134L11.6267 19.1545L6.12143 21.7599ZM15.6581 24.4872H14.51V20.1142H16.4259L16.426 23.7183C16.426 24.1422 16.0815 24.4872 15.6581 24.4872Z" fill="#0088CC" stroke="#0088CC" stroke-width="0.2"/>
<path d="M20.3106 11.8609C20.2815 11.7955 20.2234 11.7473 20.1562 11.7228L18.7785 11.2189L20.1735 8.20103C20.2852 7.95949 19.9837 7.72656 19.7781 7.89528L17.5272 9.74354C17.2067 9.43174 16.8163 9.19149 16.382 9.04826C16.6395 8.80518 16.8008 8.46031 16.8008 8.07805C16.8008 7.49667 16.4281 7.00138 15.9103 6.82026L15.8527 5.37097C15.8522 2.99021 13.8693 1 11.4865 1H11.1811C8.79856 1 6.81512 2.98995 6.81477 5.37113L6.76025 6.79954C6.20918 6.96087 5.80518 7.47272 5.80518 8.078C5.80518 8.81226 6.39954 9.40964 7.1301 9.40964C7.15046 9.40964 7.17046 9.40831 7.19061 9.40738C7.41943 10.4886 8.06584 11.4172 8.95241 12.0166L9.53348 12.3365C9.55 12.3479 9.55615 12.3523 9.57266 12.3637V13.5907C9.57266 14.545 10.3464 15.3187 11.3007 15.3187H11.3053C12.2527 15.3187 13.0242 14.5523 13.0329 13.6068C13.5647 14.3441 14.426 14.8283 15.3996 14.8446L14.9514 15.6626C14.8206 15.9013 15.1203 16.1544 15.3339 15.9881L20.2346 12.1691C20.3258 12.0979 20.3603 11.9723 20.3106 11.8609ZM6.31805 8.078C6.31805 7.63697 6.66589 7.27723 7.09938 7.26077V8.53821C7.09938 8.65882 7.10507 8.77805 7.11507 8.89605C6.67425 8.88785 6.31805 8.52436 6.31805 8.078ZM15.5067 8.53821V7.30303C15.9434 7.30995 16.288 7.61138 16.288 8.07805C16.288 8.52462 15.9314 8.88826 15.4903 8.89615C15.5004 8.778 15.5067 8.65887 15.5067 8.53821ZM7.32743 5.38574C7.40712 3.28195 9.00774 1.51282 11.1811 1.51282H11.4865C13.669 1.51282 15.2487 3.28292 15.3401 5.38615L15.3958 6.78754C13.1868 6.70415 11.8579 5.31344 10.5168 3.76569C10.3971 3.62764 10.1834 3.65928 10.0997 3.80754C9.43646 4.98236 8.46754 5.92533 7.28287 6.55364L7.32743 5.38574ZM12.5205 13.5907C12.5205 14.2607 11.9754 14.8059 11.3053 14.8059H11.3007C10.6307 14.8059 10.0855 14.2607 10.0855 13.5907V12.5568C10.8739 12.7949 11.7321 12.7949 12.5205 12.5568V13.5907ZM11.3091 12.2229H11.2969C9.26513 12.2229 7.61215 10.57 7.61215 8.53821V6.95826C8.738 6.3419 9.67754 5.45815 10.3615 4.36959C11.6333 5.83754 12.9573 7.0638 14.9938 7.27287V8.53815C14.9938 10.5699 13.3409 12.2229 11.3091 12.2229ZM13.0347 12.3631C14.2343 11.8197 15.1348 10.7292 15.4147 9.41113C15.4266 9.41092 15.4383 9.41026 15.4502 9.41026C16.0981 9.41026 16.6879 9.66154 17.1285 10.071L15.0975 11.7387C14.9468 11.8624 14.989 12.1106 15.1722 12.1776L16.5791 12.6923L15.6867 14.3209C14.4506 14.4395 13.2831 13.5821 13.0347 12.3631ZM15.9975 14.8208L17.1722 12.677C17.248 12.5386 17.174 12.3637 17.0354 12.313L15.7698 11.8502L19.2383 9.0021L18.1962 11.2565C18.1425 11.4149 18.1907 11.531 18.3408 11.6048L19.5546 12.0488L15.9975 14.8208Z" fill="#0088CC" stroke="#0088CC" stroke-width="0.2"/>
<path d="M9.09277 7.60967C8.9202 7.60967 8.83892 7.36808 8.97554 7.26496C9.43543 6.9108 10.0778 6.9108 10.5377 7.26485C10.6219 7.32967 10.6376 7.45039 10.5728 7.53454C10.508 7.61875 10.3873 7.63439 10.3031 7.56967C9.98169 7.32224 9.53277 7.32198 9.21107 7.569C9.1761 7.59629 9.13431 7.60967 9.09277 7.60967Z" fill="#0088CC"/>
<path d="M12.187 7.60959C12.0133 7.60959 11.9348 7.36929 12.0698 7.26488C12.5297 6.91072 13.1721 6.91077 13.632 7.26477C13.7162 7.32959 13.7318 7.45031 13.6671 7.53452C13.6022 7.61867 13.4815 7.63426 13.3974 7.56959C13.0759 7.32216 12.6271 7.3219 12.3054 7.56893C12.2704 7.59621 12.2286 7.60959 12.187 7.60959Z" fill="#0088CC"/>
<path d="M12.0187 11.1516H10.5873C10.4811 11.1516 10.395 11.0655 10.395 10.9593C10.395 10.8531 10.4811 10.767 10.5873 10.767H12.0187C12.1249 10.767 12.211 10.8531 12.211 10.9593C12.211 11.0655 12.1249 11.1516 12.0187 11.1516Z" fill="#0088CC"/>
<path d="M9.75626 9.19882C9.92596 9.19882 10.0635 9.03815 10.0635 8.83995C10.0635 8.64175 9.92596 8.48108 9.75626 8.48108C9.58655 8.48108 9.44897 8.64175 9.44897 8.83995C9.44897 9.03815 9.58655 9.19882 9.75626 9.19882Z" fill="#0088CC"/>
<path d="M12.85 9.14755C13.0197 9.14755 13.1573 8.98688 13.1573 8.78868C13.1573 8.59048 13.0197 8.42981 12.85 8.42981C12.6803 8.42981 12.5427 8.59048 12.5427 8.78868C12.5427 8.98688 12.6803 9.14755 12.85 9.14755Z" fill="#0088CC"/>
<path d="M20.9349 4.90903C21.1156 4.90903 21.2621 4.76229 21.2621 4.58128C21.2621 4.40028 21.1156 4.25354 20.9349 4.25354C20.7542 4.25354 20.6077 4.40028 20.6077 4.58128C20.6077 4.76229 20.7542 4.90903 20.9349 4.90903Z" fill="#B8D958" stroke="#B8D958" stroke-width="0.2"/>
<path d="M22.8972 4.39155H22.5126C22.4752 4.18288 22.3931 3.9896 22.2765 3.82206L22.5492 3.54883C22.6493 3.44862 22.6491 3.28627 22.5489 3.18627C22.4487 3.08621 22.2863 3.08632 22.1864 3.18657L21.9141 3.45929C21.7469 3.34268 21.5542 3.26057 21.346 3.22314V2.83734C21.346 2.6957 21.2313 2.58093 21.0896 2.58093C20.948 2.58093 20.8332 2.6957 20.8332 2.83734V3.22314C20.6251 3.26057 20.4323 3.34268 20.2651 3.45929L19.9929 3.18657C19.8929 3.08637 19.7305 3.08627 19.6303 3.18627C19.5301 3.28627 19.5299 3.44862 19.63 3.54883L19.9028 3.82206C19.7861 3.98965 19.704 4.18288 19.6667 4.39155H19.282C19.1404 4.39155 19.0256 4.50632 19.0256 4.64796C19.0256 4.7896 19.1404 4.90437 19.282 4.90437H19.6667C19.704 5.11303 19.7861 5.30632 19.9028 5.47385L19.63 5.74709C19.3958 5.98165 19.7588 6.34416 19.9929 6.10934L20.2651 5.83662C20.4323 5.95324 20.6251 6.03534 20.8332 6.07278V6.45857C20.8332 6.60021 20.948 6.71498 21.0896 6.71498C21.2313 6.71498 21.346 6.60021 21.346 6.45857V6.07278C21.5541 6.03534 21.7469 5.95324 21.9141 5.83662L22.1864 6.10934C22.4206 6.34406 22.7834 5.9816 22.5492 5.74709L22.2765 5.47385C22.3931 5.30626 22.4752 5.11303 22.5126 4.90437H22.8972C23.0388 4.90437 23.1536 4.7896 23.1536 4.64796C23.1536 4.50632 23.0388 4.39155 22.8972 4.39155ZM21.0896 5.58324C20.575 5.58324 20.1563 5.16365 20.1563 4.64796C20.1563 4.13227 20.575 3.71268 21.0896 3.71268C21.6042 3.71268 22.0229 4.13227 22.0229 4.64796C22.0229 5.16365 21.6042 5.58324 21.0896 5.58324Z" fill="#B8D958" stroke="#B8D958" stroke-width="0.2"/>
<path d="M16.6824 16.8187C16.8705 16.8187 17.023 16.666 17.023 16.4776C17.023 16.2892 16.8705 16.1365 16.6824 16.1365C16.4943 16.1365 16.3418 16.2892 16.3418 16.4776C16.3418 16.666 16.4943 16.8187 16.6824 16.8187Z" fill="#0088CC" stroke="#0088CC" stroke-width="0.2"/>
<path d="M7.94706 13.0289C8.13518 13.0289 8.28767 12.8762 8.28767 12.6879C8.28767 12.4995 8.13518 12.3468 7.94706 12.3468C7.75894 12.3468 7.60645 12.4995 7.60645 12.6879C7.60645 12.8762 7.75894 13.0289 7.94706 13.0289Z" fill="#0088CC" stroke="#0088CC" stroke-width="0.2"/>
<path d="M2.90951 4.90909C3.09023 4.90909 3.23674 4.76235 3.23674 4.58134C3.23674 4.40034 3.09023 4.2536 2.90951 4.2536C2.72878 4.2536 2.58228 4.40034 2.58228 4.58134C2.58228 4.76235 2.72878 4.90909 2.90951 4.90909Z" fill="#B8D958" stroke="#B8D958" stroke-width="0.2"/>
<path d="M4.87164 4.39156H4.48697C4.44959 4.18289 4.36754 3.98961 4.25087 3.82207L4.52364 3.54884C4.62369 3.44863 4.62354 3.28628 4.52333 3.18628C4.42313 3.08622 4.26077 3.08633 4.16072 3.18658L3.88846 3.4593C3.72128 3.34269 3.52856 3.26063 3.32041 3.2232V2.8374C3.32041 2.69576 3.20559 2.58099 3.064 2.58099C2.92241 2.58099 2.80759 2.69576 2.80759 2.8374V3.2232C2.59949 3.26063 2.40672 3.34274 2.23954 3.4593L1.96728 3.18658C1.86723 3.08633 1.70487 3.08622 1.60467 3.18628C1.50446 3.28628 1.50431 3.44863 1.60436 3.54884L1.87713 3.82207C1.76046 3.98966 1.67841 4.18289 1.64103 4.39156H1.25641C1.11482 4.39156 1 4.50633 1 4.64797C1 4.78961 1.11482 4.90438 1.25641 4.90438H1.64108C1.67846 5.11305 1.76051 5.30633 1.87718 5.47387L1.60441 5.7471C1.37021 5.98171 1.73313 6.34407 1.96733 6.10935L2.23959 5.83664C2.40677 5.95325 2.59949 6.0353 2.80764 6.07274V6.45853C2.80764 6.60017 2.92246 6.71494 3.06405 6.71494C3.20564 6.71494 3.32046 6.60017 3.32046 6.45853V6.07274C3.52856 6.0353 3.72133 5.9532 3.88851 5.83664L4.16077 6.10935C4.39503 6.34407 4.7579 5.98166 4.52369 5.7471L4.25092 5.47387C4.36759 5.30628 4.44964 5.11305 4.48703 4.90438H4.87169C5.01328 4.90438 5.1281 4.78961 5.1281 4.64797C5.1281 4.50633 5.01323 4.39156 4.87164 4.39156ZM3.06405 5.58325C2.54944 5.58325 2.13077 5.16366 2.13077 4.64797C2.13077 4.13228 2.54944 3.71269 3.06405 3.71269C3.57867 3.71269 3.99733 4.13228 3.99733 4.64797C3.99733 5.16366 3.57867 5.58325 3.06405 5.58325Z" fill="#B8D958" stroke="#B8D958" stroke-width="0.2"/>
<path d="M18.4676 11.3328L19.9521 8.125L15.2321 11.9355L16.9521 12.625L15.0771 15.8125L20.1412 11.9355L18.4676 11.3328Z" stroke="#B8D958" stroke-width="0.7" stroke-linejoin="round"/>
</svg>
