<svg width="24" height="24" viewBox="0 0 24 24" fill="none" xmlns="http://www.w3.org/2000/svg">
<path d="M22.809 11.563L20.8874 9.64141L21.6051 6.97895C21.6514 6.81689 21.6283 6.65483 21.5357 6.49276C21.443 6.35385 21.3041 6.23809 21.1652 6.19179L18.5028 5.52039L17.7851 2.85793C17.6924 2.53381 17.3452 2.32544 17.021 2.41805L14.3817 3.13575L12.4601 1.191C12.2055 0.936333 11.8119 0.936333 11.5804 1.191L9.65878 3.1126L6.97317 2.41805C6.64904 2.32544 6.30176 2.51065 6.20916 2.85793L5.5146 5.49724L2.85214 6.21494C2.52802 6.30755 2.31965 6.65483 2.41226 6.97895L3.12997 9.61826L1.18521 11.5399C1.06946 11.6556 1 11.8177 1 11.9797C1 12.1418 1.06946 12.3039 1.18521 12.4196L3.10681 14.3412L2.41226 17.0268C2.36596 17.1889 2.38911 17.351 2.48172 17.513C2.57432 17.6519 2.71323 17.7677 2.85214 17.814L5.49145 18.4854L6.20916 21.1479C6.30176 21.472 6.64904 21.6803 6.97317 21.5877L9.61247 20.87L11.5572 22.8148C11.673 22.9305 11.835 23 11.9971 23C12.1592 23 12.3212 22.9305 12.437 22.8148L14.3586 20.8932L17.021 21.6109C17.1831 21.6572 17.3452 21.634 17.5072 21.5414C17.6461 21.4488 17.7619 21.3099 17.8082 21.171L18.4796 18.5086L21.1421 17.7908C21.3041 17.7445 21.443 17.6519 21.5125 17.4899C21.6051 17.351 21.6283 17.1657 21.582 17.0037L20.8642 14.3644L22.809 12.4196C23.0637 12.2113 23.0637 11.8177 22.809 11.563ZM19.7298 13.7624C19.5677 13.9245 19.4983 14.156 19.5677 14.3644L20.216 16.749L17.8314 17.3973C17.623 17.4667 17.4378 17.6288 17.3915 17.8371L16.7432 20.2218L14.3586 19.5735C14.1502 19.5041 13.9187 19.5735 13.7566 19.7356L11.974 21.4951L10.2144 19.7356C10.0987 19.6198 9.9366 19.5504 9.77453 19.5504C9.72823 19.5504 9.65878 19.5504 9.61247 19.5735L7.22784 20.2218L6.57959 17.8371C6.51013 17.6288 6.34807 17.4436 6.1397 17.3973L3.75506 16.749L4.40332 14.3644C4.44962 14.156 4.40332 13.9245 4.24125 13.7624L2.50487 11.9797L4.2644 10.2202C4.42647 10.0581 4.49592 9.82662 4.42647 9.61826L3.77822 7.23362L6.16285 6.58537C6.37122 6.51592 6.55643 6.35385 6.60274 6.14549L7.25099 3.76085L9.63562 4.4091C9.84399 4.47856 10.0755 4.4091 10.2376 4.24704L12.0203 2.51065L13.7798 4.27019C13.9419 4.43225 14.1734 4.50171 14.3817 4.43225L16.7664 3.784L17.4146 6.16864C17.4841 6.37701 17.6461 6.56222 17.8545 6.60852L20.2391 7.25677L19.5909 9.64141C19.5214 9.84978 19.5909 10.0813 19.753 10.2434L21.4893 11.9797L19.7298 13.7624Z" fill="#0088CC"/>
<path d="M9.60437 11.4816C10.645 11.4816 11.4775 10.6491 11.4775 9.60846C11.4775 8.56781 10.645 7.73529 9.60437 7.73529C8.56372 7.73529 7.7312 8.56781 7.7312 9.60846C7.7312 10.6491 8.58684 11.4816 9.60437 11.4816ZM9.60437 8.96094C9.95125 8.96094 10.2288 9.23845 10.2288 9.58533C10.2288 9.93221 9.95125 10.2097 9.60437 10.2097C9.25748 10.2097 8.97998 9.93221 8.97998 9.58533C8.97998 9.23845 9.25748 8.96094 9.60437 8.96094Z" fill="#B8D958"/>
<path d="M14.4147 12.4991C13.374 12.4991 12.5415 13.3317 12.5415 14.3723C12.5415 15.413 13.374 16.2455 14.4147 16.2455C15.4553 16.2455 16.2878 15.413 16.2878 14.3723C16.2878 13.3317 15.4322 12.4991 14.4147 12.4991ZM14.4147 15.0198C14.0678 15.0198 13.7903 14.7423 13.7903 14.3954C13.7903 14.0486 14.0678 13.771 14.4147 13.771C14.7616 13.771 15.0391 14.0486 15.0391 14.3954C15.0391 14.7423 14.7616 15.0198 14.4147 15.0198Z" fill="#B8D958"/>
<path d="M15.5708 8.42901C15.3164 8.17463 14.9233 8.17463 14.692 8.42901L8.44811 14.6498C8.19373 14.9041 8.19373 15.2973 8.44811 15.5285C8.56374 15.6442 8.72562 15.7135 8.88749 15.7135C9.04937 15.7135 9.21125 15.6442 9.32688 15.5285L15.5476 9.30778C15.802 9.07652 15.802 8.68339 15.5708 8.42901Z" fill="#B8D958"/>
</svg>
