<svg width="24" height="24" viewBox="0 0 24 24" fill="none" xmlns="http://www.w3.org/2000/svg">
<g clip-path="url(#clip0)">
<path d="M15.0969 3.33871C13.0514 3.33871 11.3872 5.00288 11.3872 7.04839C11.3872 7.25354 11.553 7.41936 11.7582 7.41936C11.9633 7.41936 12.1291 7.25354 12.1291 7.04839C12.1291 5.41205 13.4605 4.08065 15.0969 4.08065C16.7332 4.08065 18.0646 5.41205 18.0646 7.04839C18.0646 7.25354 18.2304 7.41936 18.4356 7.41936C18.6407 7.41936 18.8066 7.25354 18.8066 7.04839C18.8066 5.00288 17.1424 3.33871 15.0969 3.33871Z" fill="#B8D958"/>
<path d="M15.0967 5.56451C15.3018 5.56451 15.4676 5.39868 15.4676 5.19354C15.4676 4.98839 15.3018 4.82257 15.0967 4.82257C13.8691 4.82257 12.8708 5.82085 12.8708 7.04838C12.8708 8.27591 13.8691 9.27418 15.0967 9.27418C15.3018 9.27418 15.4676 9.10836 15.4676 8.90322C15.4676 8.69807 15.3018 8.53225 15.0967 8.53225C14.2783 8.53225 13.6128 7.86673 13.6128 7.04838C13.6128 6.23002 14.2783 5.56451 15.0967 5.56451Z" fill="#B8D958"/>
<path d="M22.1451 7.04839C22.1451 6.40884 21.9163 5.80787 21.4967 5.33377C21.6232 4.71277 21.5204 4.07805 21.201 3.52419C20.8809 2.97034 20.3823 2.56413 19.7817 2.36344C19.581 1.76284 19.1748 1.26426 18.621 0.944113C18.0675 0.62471 17.4327 0.522323 16.8114 0.648452C16.3373 0.228887 15.7363 0 15.0968 0C14.55 0 14.0321 0.16879 13.5966 0.479661C13.5294 0.412516 13.4367 0.370968 13.3343 0.370968H10.9349C9.64576 0.370968 8.45495 0.630274 7.3951 1.14221C4.59429 2.49439 2.85482 5.25253 2.85482 8.34121C2.85482 9.29237 2.42895 10.1786 1.68628 10.7725L1.1391 11.2103C0.991082 11.329 0.956211 11.5404 1.0586 11.7003C2.3006 13.6375 3.22171 15.7491 3.79634 17.9775L3.91208 18.426C4.11129 19.1991 4.60765 19.8264 5.27353 20.1473C5.62447 20.3168 6.00508 20.4017 6.38532 20.4017C6.80378 20.4017 7.22223 20.2994 7.59987 20.0946L9.16128 19.2132V22.629C9.16128 22.8342 9.3271 23 9.53224 23H16.9516C17.1567 23 17.3226 22.8342 17.3226 22.629V22.1627C17.3226 18.8496 18.3349 15.446 20.251 12.3191C20.4546 11.9871 20.6349 11.635 20.787 11.273C20.8193 11.1965 20.8175 11.1168 20.7989 11.0422C20.9569 10.9094 21.0953 10.754 21.201 10.573C21.5204 10.0191 21.6232 9.38437 21.4967 8.76337C21.9163 8.2889 22.1451 7.68794 22.1451 7.04839ZM20.8308 8.38573C20.731 8.48144 20.6928 8.62463 20.7314 8.75706C20.8742 9.24786 20.8126 9.7609 20.5537 10.209C20.3563 10.5481 19.9616 10.7581 19.5254 10.7581H18.4355C17.0039 10.7581 15.8387 11.9233 15.8387 13.3548V15.2097C15.8387 15.4148 16.0045 15.5806 16.2097 15.5806C16.4148 15.5806 16.5806 15.4148 16.5806 15.2097V13.3548C16.5806 12.3321 17.4127 11.5 18.4355 11.5H19.5254C19.6459 11.5 19.7639 11.4859 19.8796 11.4655C19.798 11.6246 19.7109 11.7805 19.6185 11.9314C17.6308 15.1748 16.5806 18.7127 16.5806 22.1627V22.2581H9.90321V18.9194C9.90321 18.8797 9.89208 18.8429 9.88058 18.8073L13.0531 17.0167C13.2315 16.9161 13.2946 16.6895 13.1941 16.5114C13.0935 16.333 12.8669 16.2695 12.6888 16.3704L7.24152 19.4446C6.73478 19.7192 6.11971 19.7314 5.5959 19.4791C5.127 19.2532 4.77495 18.8018 4.63028 18.2405L4.51453 17.792C4.48374 17.6725 4.44813 17.5546 4.41549 17.4355H5.4516C5.65674 17.4355 5.82257 17.2697 5.82257 17.0645C5.82257 16.8594 5.65674 16.6935 5.4516 16.6935H4.1981C3.63608 14.8984 2.8552 13.1838 1.86137 11.5827L2.14999 11.3524C3.06924 10.6167 3.59676 9.51903 3.59676 8.34121C3.59676 5.54003 5.17597 3.03748 7.71747 1.81032C8.67605 1.34773 9.75853 1.1129 10.9349 1.1129H11.3329C10.9048 1.4286 10.5817 1.85595 10.4118 2.36344C9.81158 2.56413 9.31263 2.97034 8.99249 3.52419C8.67308 4.07805 8.57032 4.71277 8.69682 5.33377C8.27726 5.80787 8.04837 6.40884 8.04837 7.04839C8.04837 7.68794 8.27726 8.2889 8.69682 8.763C8.57069 9.384 8.67382 10.0202 8.99879 10.5837C9.32932 11.1487 9.96887 11.5 10.6681 11.5H11.3871C12.4098 11.5 13.2419 12.3321 13.2419 13.3548V15.2097C13.2419 15.4148 13.4077 15.5806 13.6129 15.5806C13.818 15.5806 13.9839 15.4148 13.9839 15.2097V13.3548C13.9839 11.9233 12.8186 10.7581 11.3871 10.7581H10.6681C10.2315 10.7581 9.83718 10.5481 9.635 10.2016C9.38052 9.7609 9.31894 9.24823 9.46176 8.75706C9.50034 8.62463 9.46213 8.48144 9.36234 8.38573C8.9936 8.03182 8.79031 7.55698 8.79031 7.04839C8.79031 6.53979 8.9936 6.06495 9.36271 5.71105C9.4625 5.61534 9.50071 5.47215 9.46213 5.33971C9.31931 4.84892 9.38089 4.33587 9.63537 3.89516C9.89023 3.45445 10.3035 3.14506 10.7998 3.02264C10.9338 2.99 11.0387 2.88539 11.0714 2.75147C11.1938 2.25474 11.5036 1.84111 11.9439 1.58663C12.3846 1.33215 12.8969 1.27019 13.3885 1.41339C13.5205 1.45271 13.6641 1.41376 13.7598 1.31397C14.1133 0.945226 14.5882 0.741935 15.0968 0.741935C15.6054 0.741935 16.0802 0.945226 16.4341 1.31434C16.5298 1.41413 16.673 1.45345 16.8054 1.41376C17.2962 1.27094 17.8093 1.33252 18.25 1.587C18.6907 1.84185 19.0001 2.25511 19.1225 2.75147C19.1551 2.88539 19.2601 2.99074 19.3941 3.02302C19.8904 3.14506 20.3037 3.45482 20.5585 3.89553C20.813 4.33624 20.8746 4.84892 20.7318 5.34008C20.6932 5.47252 20.7314 5.61571 20.8312 5.71142C21.1999 6.06495 21.4032 6.53979 21.4032 7.04839C21.4032 7.55698 21.1999 8.03182 20.8308 8.38573Z" fill="#0088CC" stroke="#0088CC" stroke-width="0.2"/>
<path d="M14.7257 16.3226C14.5206 16.3226 14.3547 16.4884 14.3547 16.6935V21.5161C14.3547 21.7213 14.5206 21.8871 14.7257 21.8871C14.9308 21.8871 15.0967 21.7213 15.0967 21.5161V16.6935C15.0967 16.4884 14.9308 16.3226 14.7257 16.3226Z" fill="#0088CC"/>
<path d="M15.0968 2.59676C15.3017 2.59676 15.4678 2.43068 15.4678 2.2258C15.4678 2.02092 15.3017 1.85483 15.0968 1.85483C14.8919 1.85483 14.7258 2.02092 14.7258 2.2258C14.7258 2.43068 14.8919 2.59676 15.0968 2.59676Z" fill="#B8D958"/>
<path d="M11.949 3.90073C12.0941 3.75568 12.0941 3.52086 11.949 3.37618C11.804 3.23113 11.5691 3.23113 11.4245 3.37618C11.2794 3.52123 11.2794 3.75605 11.4245 3.90073C11.5691 4.04541 11.804 4.04541 11.949 3.90073Z" fill="#B8D958"/>
<path d="M10.2743 7.41936C10.4792 7.41936 10.6453 7.25328 10.6453 7.0484C10.6453 6.84352 10.4792 6.67743 10.2743 6.67743C10.0694 6.67743 9.90332 6.84352 9.90332 7.0484C9.90332 7.25328 10.0694 7.41936 10.2743 7.41936Z" fill="#B8D958"/>
<path d="M15.0968 12.2419C15.3017 12.2419 15.4678 12.0758 15.4678 11.871C15.4678 11.6661 15.3017 11.5 15.0968 11.5C14.8919 11.5 14.7258 11.6661 14.7258 11.871C14.7258 12.0758 14.8919 12.2419 15.0968 12.2419Z" fill="#B8D958"/>
<path d="M19.9193 7.41936C20.1242 7.41936 20.2903 7.25328 20.2903 7.0484C20.2903 6.84352 20.1242 6.67743 19.9193 6.67743C19.7144 6.67743 19.5483 6.84352 19.5483 7.0484C19.5483 7.25328 19.7144 7.41936 19.9193 7.41936Z" fill="#B8D958"/>
<path d="M18.2443 3.37581C18.0992 3.52086 18.0992 3.75568 18.2443 3.90036C18.3893 4.04504 18.6242 4.04541 18.7688 3.90036C18.9139 3.75531 18.9139 3.52049 18.7688 3.37581C18.6242 3.23113 18.3893 3.23113 18.2443 3.37581Z" fill="#B8D958"/>
</g>
<defs>
<clipPath id="clip0">
<rect width="24" height="24" fill="white"/>
</clipPath>
</defs>
</svg>
