<svg width="24" height="24" viewBox="0 0 24 24" fill="none" xmlns="http://www.w3.org/2000/svg">
<path d="M9.24247 7.96936C9.06044 7.90434 8.86016 7.99921 8.79515 8.18125C8.73013 8.36329 8.825 8.56356 9.00704 8.62858L9.24247 7.96936ZM11.7498 9.04897L11.7331 9.39857L11.7498 9.04897ZM14.6952 8.62272C14.874 8.54928 14.9595 8.3448 14.886 8.16599C14.8126 7.98719 14.6081 7.90177 14.4293 7.97521L14.6952 8.62272ZM16.8123 9.23647L16.8001 9.58625L16.8123 9.23647ZM21.1248 8.29897L21.2506 8.62558C21.2594 8.62219 21.268 8.61845 21.2765 8.61436L21.1248 8.29897ZM22.9998 8.48647L22.6499 8.49775L22.9998 8.48647ZM18.4998 6.98647L18.3836 7.31662L18.4998 6.98647ZM14.3748 6.04897L14.4165 6.39647L14.3748 6.04897ZM9.12476 6.04897L9.16882 5.70175L9.12476 6.04897ZM5.18726 6.79897L5.07111 6.4688L5.18726 6.79897ZM2.18726 8.29897L2.00634 7.99935C1.98213 8.01397 1.95977 8.03148 1.93977 8.05148L2.18726 8.29897ZM0.499756 8.48647H0.849756H0.499756ZM6.49976 9.23647L6.50977 8.88661L6.49976 9.23647ZM2.44145 8.80838C2.30858 8.66799 2.08706 8.66189 1.94667 8.79477C1.80628 8.92764 1.80018 9.14917 1.93306 9.28956L2.44145 8.80838ZM6.31226 12.424L6.47455 12.1139L6.31226 12.424ZM12.6606 14.2729C12.8533 14.2877 13.0215 14.1434 13.0362 13.9506C13.051 13.7579 12.9067 13.5897 12.7139 13.575L12.6606 14.2729ZM19.3646 10.6898C19.2353 10.8335 19.2469 11.0548 19.3906 11.1841C19.5343 11.3134 19.7556 11.3018 19.8849 11.1581L19.3646 10.6898ZM21.5724 9.2831C21.7017 9.13943 21.6901 8.91812 21.5464 8.78881C21.4027 8.6595 21.1814 8.67115 21.0521 8.81483L21.5724 9.2831ZM11.7331 9.39857C12.2039 9.42099 12.7652 9.29676 13.1838 9.17975C13.3984 9.11977 13.5858 9.05864 13.7198 9.01246C13.7869 8.98933 13.8408 8.96986 13.8784 8.95602C13.8972 8.9491 13.9119 8.94358 13.9221 8.93971C13.9272 8.93778 13.9312 8.93625 13.934 8.93517C13.9354 8.93463 13.9365 8.9342 13.9373 8.93389C13.9378 8.93373 13.9381 8.9336 13.9383 8.9335C13.9385 8.93345 13.9386 8.93341 13.9387 8.93337C13.9387 8.93335 13.9388 8.93333 13.9388 8.93332C13.9389 8.93331 13.9389 8.93329 13.8123 8.607C13.6856 8.28071 13.6857 8.2807 13.6857 8.28069C13.6857 8.28069 13.6857 8.28068 13.6857 8.28067C13.6857 8.28067 13.6857 8.28067 13.6857 8.28068C13.6857 8.28069 13.6856 8.28074 13.6854 8.28081C13.685 8.28096 13.6843 8.28122 13.6834 8.28159C13.6814 8.28233 13.6784 8.2835 13.6742 8.28508C13.6658 8.28824 13.6531 8.29302 13.6364 8.29918C13.6029 8.3115 13.5536 8.32931 13.4916 8.35068C13.3674 8.39349 13.1935 8.45019 12.9953 8.5056C12.5883 8.61937 12.1184 8.71612 11.7664 8.69936L11.7331 9.39857ZM13.9452 8.93076L14.6952 8.62272L14.4293 7.97521L13.6793 8.28324L13.9452 8.93076ZM13.8123 8.607C13.7038 8.93978 13.7039 8.93979 13.7039 8.9398C13.7039 8.93981 13.704 8.93983 13.704 8.93984C13.7041 8.93987 13.7042 8.93991 13.7044 8.93996C13.7047 8.94006 13.7051 8.94019 13.7056 8.94035C13.7066 8.94069 13.7081 8.94116 13.71 8.94177C13.7137 8.94298 13.7192 8.94474 13.7263 8.947C13.7404 8.95153 13.7611 8.95808 13.7876 8.96639C13.8407 8.98299 13.9175 9.00661 14.0132 9.03501C14.2043 9.09178 14.4718 9.16788 14.7777 9.24537C15.3823 9.39859 16.1625 9.56402 16.8001 9.58625L16.8245 8.88668C16.2656 8.86719 15.5458 8.71789 14.9496 8.56681C14.655 8.49215 14.3968 8.41871 14.2124 8.36396C14.1203 8.33661 14.0468 8.31399 13.9966 8.29829C13.9715 8.29044 13.9522 8.28433 13.9393 8.28022C13.9329 8.27817 13.9281 8.27662 13.925 8.27561C13.9234 8.2751 13.9223 8.27473 13.9216 8.2745C13.9212 8.27438 13.9209 8.2743 13.9208 8.27426C13.9207 8.27423 13.9207 8.27422 13.9207 8.27421C13.9207 8.27421 13.9207 8.27421 13.9207 8.27421C13.9207 8.27422 13.9207 8.27422 13.8123 8.607ZM16.8001 9.58625C17.7184 9.61828 18.8404 9.37071 19.7089 9.12725C20.1482 9.00409 20.5323 8.87914 20.8068 8.78494C20.9441 8.7378 21.0543 8.69827 21.1304 8.67038C21.1685 8.65643 21.1981 8.64539 21.2184 8.63776C21.2286 8.63394 21.2364 8.63098 21.2418 8.62892C21.2445 8.6279 21.2466 8.6271 21.248 8.62654C21.2488 8.62626 21.2494 8.62604 21.2498 8.62588C21.25 8.6258 21.2502 8.62573 21.2503 8.62568C21.2503 8.62566 21.2504 8.62563 21.2504 8.62562C21.2505 8.6256 21.2506 8.62558 21.1248 8.29897C20.999 7.97235 20.999 7.97234 20.999 7.97233C20.999 7.97234 20.999 7.97233 20.999 7.97234C20.999 7.97235 20.9989 7.97237 20.9988 7.97242C20.9986 7.9725 20.9982 7.97264 20.9977 7.97284C20.9967 7.97323 20.995 7.97387 20.9928 7.97473C20.9882 7.97645 20.9813 7.97908 20.9721 7.98255C20.9536 7.9895 20.9259 7.99983 20.8898 8.01305C20.8176 8.03948 20.7119 8.07741 20.5795 8.12286C20.3145 8.21382 19.9435 8.33451 19.5199 8.45323C18.6628 8.69354 17.6285 8.91472 16.8245 8.88668L16.8001 9.58625ZM21.1248 8.29897C21.2765 8.61436 21.2765 8.61438 21.2764 8.6144C21.2764 8.6144 21.2764 8.61442 21.2764 8.61442C21.2763 8.61444 21.2763 8.61445 21.2763 8.61445C21.2763 8.61446 21.2763 8.61444 21.2764 8.61441C21.2766 8.61434 21.2769 8.61418 21.2774 8.61393C21.2784 8.61344 21.2802 8.61261 21.2826 8.61146C21.2875 8.60917 21.2951 8.60562 21.3052 8.60098C21.3255 8.5917 21.3556 8.57812 21.3936 8.56169C21.47 8.52871 21.577 8.48474 21.6992 8.44093C21.9548 8.3493 22.2348 8.27397 22.4373 8.27397V7.57397C22.1066 7.57397 21.7304 7.68613 21.463 7.782C21.3237 7.83194 21.2025 7.88173 21.1161 7.91906C21.0728 7.93778 21.0378 7.9535 21.0134 7.96473C21.0011 7.97034 20.9915 7.97484 20.9847 7.97804C20.9813 7.97965 20.9786 7.98092 20.9766 7.98185C20.9756 7.98231 20.9749 7.98269 20.9743 7.98298C20.9739 7.98312 20.9737 7.98325 20.9735 7.98334C20.9734 7.98339 20.9733 7.98344 20.9732 7.98347C20.9732 7.98349 20.9731 7.98352 20.9731 7.98353C20.9731 7.98355 20.973 7.98357 21.1248 8.29897ZM22.4373 8.27397C22.5408 8.27397 22.5794 8.30555 22.5963 8.32413C22.6192 8.34935 22.6469 8.40271 22.6499 8.49775L23.3496 8.47518C23.3426 8.25972 23.2765 8.03183 23.1144 7.85343C22.9463 7.66838 22.7087 7.57397 22.4373 7.57397V8.27397ZM22.6499 8.49775C22.6498 8.49449 22.6507 8.5061 22.6379 8.53242C22.6254 8.55813 22.6041 8.58862 22.5744 8.61799C22.5448 8.64728 22.5128 8.66969 22.4841 8.68368C22.4547 8.69807 22.4385 8.69897 22.4373 8.69897V9.39897C22.6913 9.39897 22.9175 9.26343 23.067 9.11535C23.2157 8.96806 23.3581 8.73893 23.3496 8.47518L22.6499 8.49775ZM22.4373 8.69897C22.4386 8.69897 22.4286 8.69898 22.4037 8.69278C22.3795 8.68675 22.3474 8.67638 22.3063 8.65992C22.2232 8.62667 22.1197 8.57519 21.9942 8.50514C21.7417 8.36422 21.4372 8.16943 21.0809 7.94555C20.3819 7.50637 19.5073 6.96997 18.6159 6.65631L18.3836 7.31662C19.1912 7.6008 20.004 8.09564 20.7085 8.53826C21.0538 8.75527 21.38 8.96402 21.6531 9.1164C21.7903 9.193 21.9233 9.26062 22.0462 9.3098C22.1633 9.35668 22.3003 9.39897 22.4373 9.39897V8.69897ZM18.6159 6.65631C17.1221 6.13064 16.079 5.49173 14.333 5.70146L14.4165 6.39647C15.9509 6.21216 16.7608 6.74558 18.3836 7.31662L18.6159 6.65631ZM14.333 5.70146C13.7112 5.77616 13.2662 6.05024 12.8927 6.26187C12.5144 6.47613 12.1967 6.63647 11.7498 6.63647V7.33647C12.3913 7.33647 12.8457 7.09297 13.2377 6.87093C13.6343 6.64626 13.9576 6.45159 14.4165 6.39647L14.333 5.70146ZM11.7498 6.63647C11.302 6.63647 10.9836 6.47726 10.6059 6.26425C10.2327 6.05377 9.78864 5.78041 9.16882 5.70175L9.08069 6.39618C9.54075 6.45457 9.86489 6.64996 10.2621 6.87397C10.6548 7.09545 11.1089 7.33647 11.7498 7.33647V6.63647ZM9.16882 5.70175C7.51674 5.49208 6.52264 5.9582 5.07111 6.4688L5.3034 7.12913C6.80515 6.60087 7.62701 6.21169 9.08069 6.39618L9.16882 5.70175ZM5.07111 6.4688C4.42627 6.69563 3.6564 7.08157 3.05796 7.4038C2.75647 7.56613 2.4942 7.71464 2.30722 7.82262C2.21368 7.87664 2.13885 7.92058 2.08723 7.95113C2.06141 7.96641 2.04139 7.97834 2.02773 7.98652C2.02089 7.9906 2.01565 7.99375 2.01206 7.99591C2.01027 7.99698 2.00889 7.99781 2.00793 7.99839C2.00746 7.99868 2.00708 7.9989 2.00682 7.99906C2.00669 7.99914 2.00658 7.99921 2.0065 7.99925C2.00646 7.99928 2.00642 7.9993 2.0064 7.99931C2.00637 7.99933 2.00634 7.99935 2.18726 8.29897C2.36817 8.59858 2.36816 8.59859 2.36815 8.59859C2.36816 8.59859 2.36816 8.59859 2.36817 8.59858C2.3682 8.59856 2.36826 8.59853 2.36834 8.59848C2.3685 8.59838 2.36877 8.59822 2.36915 8.59799C2.3699 8.59754 2.37107 8.59684 2.37265 8.59589C2.37581 8.59398 2.38063 8.5911 2.38702 8.58727C2.3998 8.57963 2.41889 8.56825 2.44374 8.55355C2.49343 8.52414 2.5661 8.48146 2.65727 8.42881C2.83972 8.32345 3.09577 8.17846 3.38982 8.02013C3.98248 7.70102 4.71261 7.33695 5.3034 7.12913L5.07111 6.4688ZM2.18726 8.29897C1.93977 8.05148 1.9398 8.05145 1.93982 8.05143C1.93983 8.05142 1.93985 8.0514 1.93986 8.05139C1.93987 8.05137 1.93988 8.05137 1.93988 8.05137C1.93987 8.05138 1.93981 8.05143 1.93971 8.05153C1.93952 8.05173 1.93915 8.0521 1.9386 8.05264C1.93751 8.05372 1.93574 8.05548 1.93331 8.05786C1.92845 8.06264 1.92098 8.06994 1.91119 8.0794C1.89158 8.09834 1.86273 8.12582 1.82681 8.15897C1.7546 8.22563 1.65559 8.31358 1.54674 8.40066C1.43652 8.48884 1.32349 8.57024 1.22259 8.62789C1.10881 8.69291 1.05931 8.69897 1.06226 8.69897V9.39897C1.2527 9.39897 1.43758 9.31127 1.56989 9.23566C1.71509 9.15269 1.85987 9.0466 1.98402 8.94727C2.10955 8.84685 2.22147 8.7473 2.30161 8.67333C2.34186 8.63618 2.37454 8.60506 2.39741 8.58298C2.40885 8.57193 2.41787 8.56312 2.42418 8.55691C2.42733 8.55381 2.42981 8.55135 2.43158 8.5496C2.43247 8.54872 2.43318 8.54801 2.43371 8.54749C2.43397 8.54722 2.43419 8.54701 2.43436 8.54683C2.43445 8.54675 2.43452 8.54667 2.43459 8.54661C2.43462 8.54658 2.43466 8.54654 2.43467 8.54652C2.43471 8.54649 2.43474 8.54645 2.18726 8.29897ZM1.06226 8.69897C0.957533 8.69897 0.915762 8.66658 0.89783 8.64711C0.875556 8.62292 0.849756 8.57336 0.849756 8.48647H0.149756C0.149756 8.71023 0.217705 8.94192 0.382932 9.12132C0.5525 9.30544 0.791979 9.39897 1.06226 9.39897V8.69897ZM0.849756 8.48647C0.849756 8.39957 0.875556 8.35001 0.89783 8.32583C0.915762 8.30636 0.957533 8.27397 1.06226 8.27397V7.57397C0.791979 7.57397 0.5525 7.6675 0.382932 7.85161C0.217706 8.03101 0.149756 8.2627 0.149756 8.48647H0.849756ZM1.06226 8.27397C1.05071 8.27397 1.08778 8.2768 1.21697 8.31408C1.32856 8.34628 1.47446 8.39339 1.65295 8.45251C2.00613 8.56949 2.47531 8.72968 2.99973 8.89127C4.04337 9.21285 5.34745 9.55364 6.48975 9.58632L6.50977 8.88661C5.46849 8.85682 4.24132 8.54137 3.20586 8.22231C2.69072 8.06358 2.23338 7.90736 1.87305 7.78801C1.69479 7.72897 1.53719 7.67792 1.41104 7.64152C1.30248 7.61019 1.16756 7.57397 1.06226 7.57397V8.27397ZM9.00704 8.62858L10.3195 9.09733L10.555 8.43811L9.24247 7.96936L9.00704 8.62858ZM10.4373 8.76772C10.3291 9.10059 10.3291 9.1006 10.3292 9.10061C10.3292 9.10061 10.3292 9.10062 10.3292 9.10063C10.3293 9.10065 10.3294 9.10068 10.3295 9.1007C10.3296 9.10076 10.3299 9.10083 10.3301 9.10091C10.3306 9.10109 10.3314 9.10132 10.3323 9.10161C10.3341 9.10219 10.3366 9.10301 10.3399 9.10405C10.3464 9.10614 10.3558 9.10911 10.3678 9.11286C10.3918 9.12035 10.4262 9.13093 10.469 9.14364C10.5543 9.16903 10.6738 9.20311 10.8104 9.23807C11.0771 9.3063 11.4339 9.38432 11.7331 9.39857L11.7664 8.69936C11.542 8.68867 11.2425 8.62607 10.9839 8.55991C10.8579 8.52767 10.7473 8.49612 10.6684 8.47267C10.6291 8.46096 10.5977 8.45132 10.5765 8.4447C10.5659 8.44138 10.5579 8.43883 10.5526 8.43715C10.5499 8.43631 10.548 8.43568 10.5468 8.43529C10.5462 8.4351 10.5458 8.43496 10.5455 8.43489C10.5454 8.43485 10.5454 8.43483 10.5453 8.43482C10.5453 8.43482 10.5453 8.43482 10.5453 8.43482C10.5453 8.43482 10.5454 8.43483 10.5454 8.43483C10.5454 8.43484 10.5454 8.43484 10.4373 8.76772ZM6.48975 9.58632C7.29733 9.60943 8.308 9.48786 9.10264 9.36456C9.50297 9.30244 9.85414 9.23895 10.1054 9.19097C10.231 9.16697 10.3319 9.14682 10.4015 9.13262C10.4363 9.12551 10.4634 9.1199 10.4818 9.11603C10.4911 9.11409 10.4982 9.11259 10.503 9.11156C10.5054 9.11105 10.5073 9.11065 10.5086 9.11038C10.5092 9.11024 10.5097 9.11013 10.5101 9.11005C10.5103 9.11002 10.5104 9.10999 10.5105 9.10996C10.5106 9.10995 10.5106 9.10994 10.5106 9.10993C10.5107 9.10993 10.5107 9.10992 10.4373 8.76772C10.3638 8.42551 10.3638 8.42551 10.3638 8.42551C10.3638 8.42551 10.3638 8.42551 10.3638 8.42552C10.3637 8.42552 10.3637 8.42554 10.3636 8.42556C10.3633 8.42561 10.363 8.42569 10.3625 8.4258C10.3614 8.42602 10.3599 8.42635 10.3577 8.42681C10.3534 8.42772 10.3469 8.4291 10.3383 8.43091C10.321 8.43453 10.2952 8.43989 10.2616 8.44673C10.1945 8.46041 10.0966 8.48 9.97404 8.5034C9.72883 8.55023 9.38586 8.61223 8.99531 8.67284C8.20818 8.79498 7.2501 8.90779 6.50977 8.88661L6.48975 9.58632ZM2.18726 9.04897C1.93306 9.28956 1.93309 9.28959 1.93313 9.28963C1.93316 9.28966 1.93321 9.28971 1.93326 9.28977C1.93336 9.28987 1.9335 9.29002 1.93367 9.2902C1.93401 9.29056 1.93449 9.29107 1.93511 9.29172C1.93634 9.29301 1.93812 9.29489 1.94044 9.29732C1.94508 9.30219 1.95187 9.30931 1.96073 9.31854C1.97845 9.33701 2.00444 9.36399 2.03805 9.39852C2.10525 9.46756 2.20295 9.56688 2.32581 9.68892C2.57141 9.93285 2.91824 10.2682 3.32364 10.6343C4.1281 11.3608 5.18656 12.2299 6.14997 12.7341L6.47455 12.1139C5.59383 11.6529 4.58979 10.8345 3.79279 10.1148C3.39745 9.75778 3.0588 9.43034 2.8191 9.19227C2.69932 9.07329 2.60441 8.9768 2.53968 8.91029C2.50732 8.87703 2.48251 8.85129 2.46591 8.83399C2.45762 8.82534 2.45137 8.8188 2.44727 8.81449C2.44522 8.81234 2.4437 8.81074 2.44273 8.80972C2.44224 8.80921 2.44189 8.80884 2.44168 8.80861C2.44157 8.8085 2.4415 8.80842 2.44146 8.80838C2.44144 8.80837 2.44144 8.80836 2.44143 8.80835C2.44144 8.80836 2.44145 8.80838 2.18726 9.04897ZM6.14997 12.7341C7.3341 13.3538 8.97354 13.7358 10.2898 13.9636C10.9532 14.0783 11.5445 14.1556 11.9702 14.2041C12.1831 14.2284 12.3548 14.2455 12.4737 14.2566C12.5332 14.2622 12.5795 14.2662 12.6111 14.2689C12.6269 14.2702 12.6391 14.2712 12.6474 14.2719C12.6515 14.2722 12.6547 14.2725 12.6569 14.2727C12.658 14.2727 12.6589 14.2728 12.6595 14.2729C12.6598 14.2729 12.66 14.2729 12.6602 14.2729C12.6603 14.2729 12.6604 14.2729 12.6605 14.2729C12.6605 14.2729 12.6606 14.2729 12.6873 13.924C12.7139 13.575 12.714 13.575 12.714 13.575C12.714 13.575 12.714 13.575 12.7139 13.575C12.7138 13.575 12.7137 13.575 12.7135 13.575C12.7131 13.5749 12.7125 13.5749 12.7116 13.5748C12.7099 13.5747 12.7071 13.5745 12.7034 13.5742C12.6961 13.5736 12.6849 13.5726 12.67 13.5714C12.6404 13.5689 12.5961 13.565 12.5388 13.5597C12.4242 13.549 12.2572 13.5323 12.0495 13.5086C11.6339 13.4612 11.0563 13.3858 10.4092 13.2738C9.10449 13.048 7.55643 12.6801 6.47455 12.1139L6.14997 12.7341ZM19.8849 11.1581L21.5724 9.2831L21.0521 8.81483L19.3646 10.6898L19.8849 11.1581Z" fill="#0088CC"/>
<path d="M14.615 14.7259C14.4366 14.8003 14.3523 15.0053 14.4267 15.1837C14.5011 15.3621 14.7061 15.4464 14.8845 15.372L14.615 14.7259ZM15.8192 14.7365L15.8568 15.0845L15.8192 14.7365ZM17.9581 13.799L18.2003 14.0516L17.9581 13.799ZM19.0405 13.4823C19.2107 13.3907 19.2746 13.1785 19.183 13.0083C19.0915 12.838 18.8793 12.7742 18.709 12.8657L19.0405 13.4823ZM14.7498 15.049C14.8845 15.372 14.8844 15.372 14.8844 15.372C14.8844 15.372 14.8844 15.372 14.8844 15.3721C14.8844 15.3721 14.8844 15.3721 14.8844 15.3721C14.8844 15.3721 14.8844 15.372 14.8845 15.372C14.8846 15.372 14.8849 15.3718 14.8854 15.3716C14.8863 15.3713 14.8878 15.3706 14.8898 15.3698C14.894 15.3681 14.9003 15.3655 14.9087 15.3621C14.9256 15.3553 14.9506 15.3454 14.9821 15.3333C15.0452 15.3089 15.1337 15.276 15.2348 15.2417C15.444 15.1708 15.681 15.1034 15.8568 15.0845L15.7816 14.3885C15.5254 14.4162 15.2277 14.505 15.0102 14.5787C14.8979 14.6168 14.8001 14.6532 14.7302 14.6802C14.6951 14.6937 14.6669 14.7049 14.6472 14.7128C14.6374 14.7168 14.6296 14.7199 14.6242 14.7222C14.6215 14.7233 14.6193 14.7242 14.6178 14.7248C14.617 14.7251 14.6164 14.7254 14.616 14.7256C14.6157 14.7257 14.6155 14.7257 14.6154 14.7258C14.6153 14.7258 14.6152 14.7259 14.6152 14.7259C14.6152 14.7259 14.6151 14.7259 14.6151 14.7259C14.6151 14.7259 14.615 14.7259 14.7498 15.049ZM15.8568 15.0845C15.9915 15.0699 16.0108 15.1132 16.2636 15.2412C16.3807 15.3005 16.5319 15.3598 16.7265 15.3633C16.9177 15.3666 17.1196 15.3157 17.3444 15.2088L17.044 14.5766C16.8869 14.6513 16.7931 14.6643 16.7388 14.6634C16.6879 14.6625 16.6438 14.6491 16.5798 14.6167C16.4705 14.5614 16.1841 14.345 15.7816 14.3885L15.8568 15.0845ZM17.3444 15.2088C17.5652 15.1039 17.7301 14.986 17.8493 14.8465C17.972 14.7029 18.0275 14.5581 18.0605 14.4342C18.1305 14.1708 18.1057 14.1424 18.2003 14.0516L17.7159 13.5463C17.4361 13.8146 17.4113 14.1515 17.3839 14.2545C17.3682 14.3138 17.3507 14.3524 17.317 14.3918C17.2799 14.4353 17.2051 14.5 17.044 14.5766L17.3444 15.2088ZM18.2003 14.0516C18.3299 13.9274 18.5333 13.7868 18.7195 13.6705C18.8098 13.6141 18.8909 13.5666 18.9493 13.5332C18.9784 13.5166 19.0017 13.5036 19.0175 13.4948C19.0254 13.4905 19.0314 13.4872 19.0353 13.485C19.0373 13.484 19.0387 13.4832 19.0396 13.4827C19.04 13.4825 19.0403 13.4824 19.0405 13.4823C19.0405 13.4822 19.0406 13.4822 19.0406 13.4822C19.0406 13.4822 19.0406 13.4822 19.0406 13.4822C19.0405 13.4822 19.0405 13.4822 19.0405 13.4822C19.0405 13.4822 19.0405 13.4823 18.8748 13.174C18.709 12.8657 18.709 12.8657 18.709 12.8657C18.709 12.8657 18.7089 12.8658 18.7089 12.8658C18.7088 12.8658 18.7088 12.8658 18.7087 12.8659C18.7086 12.866 18.7084 12.866 18.7082 12.8662C18.7077 12.8664 18.7072 12.8667 18.7065 12.8671C18.705 12.8679 18.703 12.869 18.7005 12.8703C18.6954 12.8731 18.6881 12.8771 18.6789 12.8822C18.6605 12.8923 18.6343 12.907 18.6021 12.9254C18.5376 12.9622 18.4484 13.0145 18.3487 13.0768C18.1551 13.1977 17.9002 13.3696 17.7159 13.5463L18.2003 14.0516Z" fill="#B8D958"/>
<path d="M19.9998 14.1115C19.9998 15.8719 18.5727 17.299 16.8123 17.299C15.0518 17.299 13.6248 15.8719 13.6248 14.1115C13.6248 12.3511 15.0518 10.924 16.8123 10.924C18.5727 10.924 19.9998 12.3511 19.9998 14.1115Z" stroke="#B8D958" stroke-width="0.7"/>
</svg>
