<svg width="24" height="24" viewBox="0 0 24 24" fill="none" xmlns="http://www.w3.org/2000/svg">
<path d="M18.7605 6.49897L19.1478 6.39882C19.1084 6.24625 18.983 6.13106 18.8276 6.10463C18.6723 6.0782 18.5159 6.14546 18.4282 6.2764L18.7605 6.49897ZM15.3933 8.97353L15.4949 9.3604L15.3933 8.97353ZM5.62031 9.19279L5.22238 9.15217C5.21151 9.25867 5.24378 9.36509 5.31198 9.44762C5.38019 9.53014 5.47862 9.58188 5.58527 9.59126L5.62031 9.19279ZM8.39245 2.44256L8.63608 2.75981L8.39245 2.44256ZM13.7644 1.00168L13.7702 1.40164L13.7644 1.00168ZM19.4183 2.78712L19.6556 2.46508L19.4183 2.78712ZM11.7055 22.3894C11.4944 22.3242 11.2704 22.4425 11.2053 22.6536C11.1401 22.8646 11.2584 23.0886 11.4695 23.1538L11.7055 22.3894ZM19.8725 9.78794L19.5149 9.96713V9.96713L19.8725 9.78794ZM6.0986 11.8553L6.4983 11.8707L6.0986 11.8553ZM4.55526 14.3925L4.95175 14.3396L4.55526 14.3925ZM6.56572 16.4912L6.952 16.3873L6.56572 16.4912ZM7.10289 18.9247C7.20998 19.118 7.45343 19.1878 7.64665 19.0807C7.83987 18.9736 7.90969 18.7301 7.8026 18.5369L7.10289 18.9247ZM13.8045 14.2178C13.8897 14.014 13.7935 13.7797 13.5897 13.6945C13.3858 13.6094 13.1515 13.7056 13.0664 13.9094L13.8045 14.2178ZM14.4066 17.4786C14.6233 17.4352 14.7637 17.2245 14.7204 17.0079C14.6771 16.7913 14.4664 16.6508 14.2497 16.6941L14.4066 17.4786ZM8.51111 11.2708C8.30942 11.361 8.21899 11.5976 8.30913 11.7992C8.39926 12.0009 8.63583 12.0914 8.83752 12.0012L8.51111 11.2708ZM10.3971 11.1818L10.3944 11.5818L10.3971 11.1818ZM11.9086 12.0007C12.11 12.0915 12.3469 12.0018 12.4376 11.8003C12.5284 11.5989 12.4386 11.3621 12.2372 11.2713L11.9086 12.0007ZM15.183 11.2708C14.9813 11.361 14.8909 11.5976 14.981 11.7992C15.0712 12.0009 15.3078 12.0914 15.5094 12.0012L15.183 11.2708ZM17.069 11.1818L17.0663 11.5818L17.069 11.1818ZM18.5805 12.0007C18.782 12.0915 19.0188 12.0018 19.1095 11.8003C19.2003 11.5989 19.1106 11.3621 18.9091 11.2713L18.5805 12.0007ZM9.29325 13.3704C9.1007 13.2621 8.85682 13.3304 8.74853 13.523C8.64025 13.7155 8.70856 13.9594 8.90112 14.0677L9.29325 13.3704ZM10.3971 14.0636L10.3944 14.4636L10.3971 14.0636ZM11.8128 14.0496C11.9953 13.9251 12.0424 13.6763 11.918 13.4937C11.7935 13.3112 11.5447 13.2641 11.3621 13.3885L11.8128 14.0496ZM15.9652 13.3704C15.7726 13.2621 15.5287 13.3304 15.4205 13.523C15.3122 13.7155 15.3805 13.9594 15.573 14.0677L15.9652 13.3704ZM17.069 14.0636L17.0663 14.4636L17.069 14.0636ZM18.4847 14.0496C18.6672 13.9251 18.7143 13.6763 18.5899 13.4937C18.4655 13.3112 18.2166 13.2641 18.0341 13.3885L18.4847 14.0496ZM12.4018 20.156L12.782 20.0318L12.4018 20.156ZM13.7644 20.8765L13.7617 21.2765L13.7644 20.8765ZM15.174 20.0464L15.5638 20.1362L15.174 20.0464ZM13.7017 18.7308L13.699 19.1308L13.7017 18.7308ZM18.7605 6.49897C18.4282 6.2764 18.4283 6.27631 18.4283 6.27622C18.4283 6.2762 18.4284 6.27613 18.4284 6.27609C18.4284 6.27601 18.4285 6.27597 18.4285 6.27595C18.4285 6.27592 18.4285 6.276 18.4283 6.2762C18.4281 6.27659 18.4275 6.27743 18.4266 6.27872C18.4249 6.28129 18.4219 6.28562 18.4177 6.29162C18.4093 6.30361 18.3961 6.32225 18.3782 6.34672C18.3423 6.3957 18.2878 6.46792 18.2155 6.55703C18.0708 6.73554 17.8564 6.98022 17.5804 7.24108C17.0245 7.7665 16.2402 8.33744 15.2916 8.58666L15.4949 9.3604C16.6217 9.06436 17.521 8.39802 18.1299 7.82247C18.4363 7.53285 18.6746 7.26113 18.837 7.06085C18.9183 6.96057 18.9809 6.8778 19.0238 6.81914C19.0453 6.7898 19.0618 6.76645 19.0734 6.74992C19.0792 6.74165 19.0837 6.73508 19.087 6.73032C19.0886 6.72794 19.0899 6.72601 19.0909 6.72454C19.0914 6.72381 19.0918 6.72319 19.0921 6.72269C19.0923 6.72244 19.0925 6.72221 19.0926 6.72202C19.0926 6.72193 19.0927 6.72181 19.0928 6.72176C19.0928 6.72164 19.0929 6.72154 18.7605 6.49897ZM5.62031 9.19279C6.01824 9.23342 6.01824 9.23348 6.01823 9.23352C6.01823 9.23351 6.01823 9.23354 6.01823 9.23351C6.01824 9.23347 6.01825 9.23335 6.01827 9.23315C6.01831 9.23276 6.01839 9.23207 6.01849 9.23108C6.0187 9.22909 6.01904 9.22593 6.01951 9.22161C6.02045 9.21296 6.02192 9.19969 6.02396 9.18206C6.02804 9.14679 6.0344 9.09407 6.04333 9.02591C6.0612 8.88956 6.08934 8.69165 6.13012 8.44826C6.21179 7.96086 6.34362 7.29426 6.54409 6.57613C6.74491 5.85672 7.01217 5.09449 7.36181 4.41191C7.71299 3.72632 8.13561 3.14416 8.63608 2.75981L8.14882 2.12532C7.51921 2.60884 7.03027 3.30439 6.64978 4.04719C6.26775 4.79301 5.98324 5.60986 5.77355 6.36103C5.5635 7.11349 5.42608 7.809 5.34112 8.31606C5.29859 8.5699 5.26907 8.77731 5.25012 8.92196C5.24064 8.99431 5.23379 9.05101 5.22927 9.09005C5.22701 9.10957 5.22533 9.12467 5.2242 9.13511C5.22363 9.14033 5.2232 9.14438 5.2229 9.14723C5.22275 9.14866 5.22263 9.14979 5.22254 9.15061C5.2225 9.15102 5.22246 9.15136 5.22244 9.15162C5.22242 9.15175 5.22241 9.15188 5.2224 9.15195C5.22239 9.15207 5.22238 9.15217 5.62031 9.19279ZM8.63608 2.75981C10.2481 1.52183 11.6086 1.43296 13.7702 1.40164L13.7586 0.601721C11.5766 0.633343 9.98214 0.717388 8.14882 2.12532L8.63608 2.75981ZM13.7702 1.40164C14.8901 1.38541 15.7965 1.48898 16.6396 1.75291C17.4822 2.01664 18.2822 2.44699 19.1811 3.10917L19.6556 2.46508C18.7056 1.76526 17.8268 1.28625 16.8786 0.98944C15.931 0.692824 14.9349 0.584675 13.7586 0.601721L13.7702 1.40164ZM19.1811 3.10917C21.8339 5.06342 21.7435 7.94397 21.7435 9.78794H22.5435C22.5435 7.99838 22.6742 4.68886 19.6556 2.46508L19.1811 3.10917ZM21.7435 9.78794C21.7435 10.0757 21.6319 10.6234 21.5045 11.1411C21.443 11.3907 21.3815 11.6198 21.3352 11.7865C21.3121 11.8698 21.2929 11.9373 21.2795 11.9838C21.2728 12.0071 21.2675 12.0251 21.264 12.0371C21.2623 12.0432 21.2609 12.0477 21.26 12.0507C21.2596 12.0522 21.2593 12.0533 21.2591 12.054C21.259 12.0544 21.2589 12.0546 21.2588 12.0548C21.2588 12.0548 21.2588 12.0549 21.2588 12.0549C21.2588 12.0549 21.2588 12.0549 21.2588 12.0549C21.2588 12.0549 21.2588 12.0549 21.6423 12.1685C22.0258 12.2822 22.0258 12.2821 22.0259 12.2821C22.0259 12.2821 22.0259 12.2821 22.0259 12.282C22.0259 12.2819 22.0259 12.2818 22.026 12.2817C22.0261 12.2814 22.0262 12.2811 22.0263 12.2806C22.0266 12.2797 22.027 12.2783 22.0275 12.2766C22.0285 12.2732 22.03 12.2681 22.0319 12.2616C22.0357 12.2486 22.0412 12.2295 22.0482 12.2052C22.0623 12.1565 22.0822 12.0865 22.1061 12.0004C22.1538 11.8285 22.2175 11.5916 22.2813 11.3323C22.4045 10.8319 22.5435 10.1893 22.5435 9.78794H21.7435ZM17.6536 21.1716C16.25 22.2633 14.7616 22.5673 13.617 22.5974C13.0443 22.6125 12.5605 22.5589 12.2215 22.5019C12.0523 22.4734 11.9199 22.4442 11.8313 22.4227C11.7871 22.4119 11.7538 22.403 11.7326 22.3971C11.7219 22.3942 11.7143 22.392 11.7097 22.3906C11.7074 22.3899 11.7059 22.3895 11.7052 22.3893C11.7049 22.3892 11.7047 22.3891 11.7047 22.3891C11.7048 22.3891 11.7048 22.3892 11.7049 22.3892C11.705 22.3892 11.7051 22.3893 11.7052 22.3893C11.7053 22.3893 11.7055 22.3894 11.5875 22.7716C11.4695 23.1538 11.4696 23.1538 11.4698 23.1539C11.4699 23.1539 11.4701 23.154 11.4703 23.154C11.4706 23.1541 11.471 23.1542 11.4714 23.1544C11.4722 23.1546 11.4733 23.1549 11.4746 23.1553C11.4771 23.1561 11.4804 23.1571 11.4845 23.1583C11.4928 23.1607 11.5042 23.164 11.5187 23.168C11.5478 23.1761 11.5891 23.1871 11.6419 23.1999C11.7475 23.2256 11.8989 23.2589 12.0889 23.2908C12.4685 23.3546 13.0047 23.4138 13.638 23.3971C14.9053 23.3637 16.5728 23.0256 18.1447 21.803L17.6536 21.1716ZM21.6423 12.1685C21.5227 12.5502 21.5226 12.5502 21.5224 12.5501C21.5223 12.5501 21.5222 12.5501 21.5221 12.55C21.5219 12.55 21.5217 12.5499 21.5215 12.5499C21.5212 12.5498 21.5209 12.5497 21.5207 12.5496C21.5204 12.5495 21.5203 12.5495 21.5205 12.5495C21.5209 12.5497 21.5225 12.5502 21.5251 12.5511C21.5304 12.5529 21.5398 12.5563 21.5529 12.5614C21.5791 12.5716 21.6193 12.5885 21.6688 12.6129C21.7688 12.662 21.9017 12.7395 22.0333 12.8512C22.2907 13.0698 22.5422 13.416 22.5422 13.9696H23.3422C23.3422 13.1294 22.9438 12.575 22.5512 12.2415C22.3579 12.0773 22.1658 11.9658 22.022 11.895C21.9497 11.8594 21.8884 11.8336 21.8435 11.8161C21.821 11.8073 21.8025 11.8006 21.7887 11.7958C21.7818 11.7934 21.7761 11.7914 21.7716 11.79C21.7693 11.7892 21.7674 11.7886 21.7658 11.7881C21.765 11.7878 21.7642 11.7876 21.7636 11.7874C21.7633 11.7873 21.763 11.7872 21.7627 11.7871C21.7625 11.787 21.7623 11.787 21.7623 11.7869C21.7621 11.7869 21.7619 11.7868 21.6423 12.1685ZM21.2467 12.1098L20.6045 16.4324L21.3958 16.55L22.038 12.2273L21.2467 12.1098ZM21.0002 16.4912C20.6364 16.3249 20.6364 16.3249 20.6364 16.3249C20.6364 16.3249 20.6364 16.3249 20.6364 16.325C20.6363 16.3251 20.6362 16.3252 20.6362 16.3254C20.636 16.3258 20.6357 16.3265 20.6353 16.3273C20.6345 16.3291 20.6332 16.3318 20.6315 16.3355C20.6282 16.3427 20.6231 16.3537 20.6164 16.3682C20.603 16.3971 20.5831 16.4399 20.5571 16.4949C20.5053 16.6048 20.4296 16.7635 20.3348 16.9572C20.145 17.3448 19.8792 17.8711 19.5746 18.4271C19.2695 18.984 18.9284 19.5654 18.5882 20.0654C18.242 20.5741 17.9186 20.9655 17.6536 21.1716L18.1447 21.803C18.5141 21.5158 18.8954 21.0359 19.2496 20.5154C19.6098 19.9861 19.9646 19.3802 20.2762 18.8114C20.5883 18.2417 20.8599 17.704 21.0533 17.309C21.1501 17.1113 21.2275 16.9491 21.2808 16.8359C21.3075 16.7794 21.3281 16.7351 21.3422 16.7047C21.3492 16.6896 21.3546 16.6779 21.3582 16.67C21.3601 16.666 21.3615 16.6629 21.3624 16.6609C21.3629 16.6598 21.3633 16.659 21.3635 16.6584C21.3637 16.6581 21.3638 16.6579 21.3639 16.6578C21.3639 16.6577 21.3639 16.6576 21.3639 16.6576C21.364 16.6575 21.364 16.6575 21.0002 16.4912ZM22.5422 13.9696C22.5422 15.1214 22.1127 15.6172 21.7547 15.8477C21.5633 15.9709 21.3696 16.0326 21.2225 16.0631C21.1495 16.0782 21.0899 16.0853 21.0507 16.0885C21.0312 16.0901 21.017 16.0908 21.0089 16.091C21.0049 16.0912 21.0025 16.0912 21.0017 16.0912C21.0013 16.0912 21.0014 16.0912 21.0018 16.0912C21.0021 16.0912 21.0024 16.0912 21.0029 16.0912C21.0031 16.0912 21.0034 16.0912 21.0036 16.0912C21.0038 16.0912 21.004 16.0912 21.0041 16.0912C21.0043 16.0912 21.0046 16.0912 21.0002 16.4912C20.9958 16.8912 20.996 16.8912 20.9963 16.8912C20.9964 16.8912 20.9967 16.8912 20.9969 16.8912C20.9973 16.8912 20.9977 16.8912 20.9982 16.8912C20.9991 16.8912 21.0002 16.8912 21.0014 16.8912C21.0037 16.8912 21.0065 16.8912 21.0098 16.8912C21.0164 16.8911 21.0248 16.8909 21.035 16.8906C21.0555 16.8899 21.0829 16.8886 21.1165 16.8858C21.1836 16.8803 21.2757 16.8691 21.3848 16.8465C21.6018 16.8015 21.8936 16.7097 22.1877 16.5203C22.8007 16.1258 23.3422 15.3608 23.3422 13.9696H22.5422ZM21.6423 12.1685C21.9373 11.8984 21.9373 11.8984 21.9373 11.8984C21.9373 11.8984 21.9373 11.8984 21.9373 11.8984C21.9373 11.8984 21.9373 11.8984 21.9372 11.8983C21.9371 11.8982 21.937 11.898 21.9367 11.8977C21.9362 11.8972 21.9354 11.8963 21.9343 11.8951C21.9321 11.8927 21.9288 11.889 21.9243 11.8841C21.9153 11.8742 21.9019 11.8593 21.8846 11.8399C21.8498 11.8012 21.7993 11.7443 21.737 11.6728C21.6123 11.5298 21.4409 11.329 21.2546 11.0981C20.8761 10.629 20.4574 10.0622 20.2302 9.60876L19.5149 9.96713C19.7835 10.5031 20.2496 11.1266 20.6321 11.6005C20.8262 11.8411 21.0044 12.0499 21.134 12.1986C21.1989 12.273 21.2518 12.3326 21.2887 12.3737C21.3071 12.3943 21.3215 12.4103 21.3315 12.4213C21.3365 12.4268 21.3403 12.431 21.343 12.4339C21.3443 12.4354 21.3453 12.4365 21.3461 12.4373C21.3464 12.4377 21.3467 12.438 21.3469 12.4382C21.347 12.4384 21.3471 12.4385 21.3472 12.4385C21.3472 12.4386 21.3473 12.4386 21.3473 12.4386C21.3473 12.4387 21.3473 12.4387 21.6423 12.1685ZM20.2302 9.60876C19.9765 9.10254 19.7068 8.30915 19.4964 7.62194C19.3925 7.28249 19.3051 6.97605 19.2438 6.75449C19.2132 6.64378 19.1891 6.55443 19.1727 6.49296C19.1645 6.46222 19.1582 6.43847 19.154 6.42251C19.1519 6.41453 19.1503 6.40849 19.1493 6.40451C19.1488 6.40252 19.1484 6.40104 19.1481 6.40009C19.148 6.39962 19.1479 6.39927 19.1479 6.39906C19.1478 6.39895 19.1478 6.39888 19.1478 6.39884C19.1478 6.39882 19.1478 6.39882 19.1478 6.39881C19.1478 6.39881 19.1478 6.39882 18.7605 6.49897C18.3733 6.59911 18.3733 6.59914 18.3733 6.59918C18.3733 6.5992 18.3733 6.59925 18.3733 6.5993C18.3734 6.59939 18.3734 6.59952 18.3734 6.59968C18.3735 6.60001 18.3736 6.60047 18.3738 6.60106C18.3741 6.60224 18.3745 6.60395 18.3751 6.60617C18.3763 6.61062 18.378 6.61713 18.3802 6.62561C18.3847 6.64255 18.3912 6.66734 18.3997 6.69915C18.4167 6.76278 18.4414 6.85455 18.4728 6.96793C18.5355 7.19454 18.6249 7.50813 18.7314 7.85612C18.9419 8.54377 19.2282 9.39487 19.5149 9.96713L20.2302 9.60876ZM15.2916 8.58666C14.1283 8.8923 12.3898 8.9943 10.6812 8.99971C8.98326 9.00509 7.35451 8.91546 6.43049 8.85274L6.37631 9.6509C7.30984 9.71427 8.95937 9.80517 10.6837 9.79971C12.3973 9.79428 14.2249 9.69408 15.4949 9.3604L15.2916 8.58666ZM6.43049 8.85274C6.18673 8.83619 5.9924 8.82154 5.85927 8.81105C5.79271 8.80581 5.74145 8.8016 5.70698 8.79872C5.68974 8.79728 5.67669 8.79617 5.66803 8.79543C5.66369 8.79506 5.66046 8.79478 5.65834 8.79459C5.65728 8.7945 5.6565 8.79443 5.656 8.79439C5.65575 8.79437 5.65557 8.79435 5.65546 8.79434C5.65541 8.79434 5.65537 8.79433 5.65535 8.79433C5.65535 8.79433 5.65534 8.79433 5.65534 8.79433C5.65534 8.79433 5.65534 8.79433 5.65534 8.79433C5.65535 8.79433 5.65535 8.79433 5.62031 9.19279C5.58527 9.59126 5.58528 9.59126 5.58529 9.59126C5.58529 9.59126 5.5853 9.59126 5.58531 9.59126C5.58533 9.59126 5.58535 9.59126 5.58538 9.59127C5.58543 9.59127 5.5855 9.59128 5.58559 9.59128C5.58577 9.5913 5.58602 9.59132 5.58634 9.59135C5.58697 9.59141 5.58789 9.59149 5.5891 9.59159C5.5915 9.5918 5.59502 9.5921 5.59964 9.5925C5.60889 9.59329 5.62252 9.59445 5.64036 9.59594C5.67604 9.59892 5.72856 9.60323 5.79643 9.60858C5.93218 9.61927 6.1294 9.63414 6.37631 9.6509L6.43049 8.85274ZM6.01265 9.16629C5.87238 9.80716 5.74097 10.7485 5.6989 11.8399L6.4983 11.8707C6.53874 10.8216 6.66498 9.92753 6.79415 9.33734L6.01265 9.16629ZM6.0986 11.8553C5.91787 11.4985 5.91772 11.4985 5.91757 11.4986C5.91751 11.4986 5.91735 11.4987 5.91723 11.4988C5.917 11.4989 5.91673 11.499 5.91644 11.4992C5.91585 11.4995 5.91516 11.4998 5.91436 11.5003C5.91276 11.5011 5.91073 11.5021 5.90829 11.5034C5.90342 11.5059 5.8969 11.5094 5.88885 11.5137C5.87276 11.5224 5.85051 11.5347 5.82306 11.5506C5.76821 11.5823 5.69218 11.6285 5.60261 11.6891C5.42436 11.8096 5.18764 11.99 4.95671 12.2296C4.49731 12.7063 4.02688 13.4562 4.15877 14.4454L4.95175 14.3396C4.86438 13.6843 5.16561 13.1657 5.53271 12.7848C5.71502 12.5957 5.90524 12.4502 6.05063 12.3519C6.12288 12.303 6.18284 12.2667 6.22353 12.2431C6.24384 12.2314 6.25925 12.2229 6.26887 12.2177C6.27368 12.2151 6.27703 12.2134 6.27881 12.2124C6.2797 12.212 6.2802 12.2117 6.28029 12.2117C6.28034 12.2116 6.28028 12.2117 6.28012 12.2117C6.28004 12.2118 6.27994 12.2118 6.27981 12.2119C6.27974 12.2119 6.27962 12.212 6.27959 12.212C6.27947 12.2121 6.27933 12.2121 6.0986 11.8553ZM5.6989 11.8399C5.64404 13.2632 5.74032 14.9617 6.17943 16.595L6.952 16.3873C6.53971 14.8538 6.44552 13.2402 6.4983 11.8707L5.6989 11.8399ZM6.17943 16.595C6.39522 17.3977 6.69486 18.1886 7.10289 18.9247L7.8026 18.5369C7.43148 17.8673 7.15407 17.139 6.952 16.3873L6.17943 16.595ZM4.15877 14.4454C4.3291 15.7228 4.89831 16.3733 5.4976 16.6744C5.785 16.8188 6.05883 16.8722 6.2603 16.8899C6.36149 16.8988 6.44624 16.8989 6.50793 16.8964C6.53885 16.8952 6.5642 16.8933 6.58317 16.8916C6.59266 16.8907 6.60058 16.8899 6.60683 16.8891C6.60995 16.8888 6.61266 16.8884 6.61494 16.8882C6.61608 16.888 6.61712 16.8879 6.61804 16.8878C6.61851 16.8877 6.61894 16.8876 6.61935 16.8876C6.61955 16.8875 6.61984 16.8875 6.61994 16.8875C6.62022 16.8875 6.62049 16.8874 6.56572 16.4912C6.51094 16.095 6.5112 16.0949 6.51145 16.0949C6.51153 16.0949 6.51177 16.0948 6.51193 16.0948C6.51223 16.0948 6.51251 16.0947 6.51277 16.0947C6.51328 16.0946 6.5137 16.0946 6.51402 16.0945C6.51467 16.0945 6.51494 16.0944 6.51484 16.0944C6.51463 16.0945 6.51297 16.0947 6.50995 16.0949C6.50387 16.0955 6.4924 16.0964 6.47625 16.097C6.44379 16.0983 6.39335 16.0985 6.33038 16.093C6.2035 16.0818 6.03306 16.0481 5.85674 15.9595C5.52859 15.7947 5.09257 15.3958 4.95175 14.3396L4.15877 14.4454ZM13.0664 13.9094C12.8439 14.4417 12.5274 15.3675 12.5541 16.1351C12.5675 16.5207 12.6707 16.9491 13.0083 17.2375C13.3535 17.5325 13.8378 17.5923 14.4066 17.4786L14.2497 16.6941C13.8005 16.7839 13.6095 16.6989 13.5279 16.6293C13.4387 16.553 13.3637 16.397 13.3536 16.1073C13.3333 15.524 13.5885 14.7348 13.8045 14.2178L13.0664 13.9094ZM8.67432 11.636C8.83752 12.0012 8.83748 12.0012 8.83744 12.0013C8.83744 12.0013 8.8374 12.0013 8.83739 12.0013C8.83736 12.0013 8.83734 12.0013 8.83734 12.0013C8.83734 12.0013 8.83741 12.0013 8.83753 12.0012C8.83778 12.0011 8.83827 12.0009 8.83899 12.0006C8.84045 11.9999 8.84285 11.9989 8.84616 11.9974C8.85278 11.9945 8.86302 11.9901 8.87656 11.9843C8.90365 11.9728 8.94384 11.956 8.9945 11.9357C9.09607 11.895 9.23842 11.8407 9.40087 11.7868C9.73799 11.6748 10.1161 11.5799 10.3944 11.5818L10.3999 10.7819C9.9824 10.779 9.49908 10.9112 9.14874 11.0275C8.96746 11.0877 8.80956 11.1479 8.69683 11.1931C8.64033 11.2158 8.59484 11.2348 8.56305 11.2483C8.54714 11.2551 8.53464 11.2605 8.52588 11.2643C8.5215 11.2663 8.51805 11.2678 8.51557 11.2689C8.51434 11.2694 8.51334 11.2699 8.5126 11.2702C8.51222 11.2703 8.51191 11.2705 8.51166 11.2706C8.51154 11.2707 8.51143 11.2707 8.51134 11.2707C8.51129 11.2708 8.51123 11.2708 8.51121 11.2708C8.51116 11.2708 8.51111 11.2708 8.67432 11.636ZM10.3944 11.5818C10.6656 11.5837 11.0335 11.6789 11.3612 11.7896C11.5191 11.843 11.6575 11.8964 11.7562 11.9364C11.8054 11.9564 11.8444 11.9729 11.8707 11.9842C11.8839 11.9898 11.8938 11.9942 11.9002 11.997C11.9035 11.9984 11.9058 11.9995 11.9072 12.0001C11.9079 12.0004 11.9084 12.0006 11.9086 12.0007C11.9087 12.0008 11.9088 12.0008 11.9088 12.0008C11.9088 12.0008 11.9088 12.0008 11.9088 12.0008C11.9087 12.0008 11.9087 12.0008 11.9087 12.0008C11.9087 12.0008 11.9086 12.0007 12.0729 11.636C12.2372 11.2713 12.2372 11.2713 12.2371 11.2713C12.2371 11.2713 12.237 11.2713 12.237 11.2712C12.2369 11.2712 12.2368 11.2711 12.2367 11.2711C12.2364 11.271 12.2361 11.2709 12.2358 11.2707C12.2351 11.2704 12.2341 11.2699 12.2329 11.2694C12.2305 11.2683 12.2271 11.2668 12.2229 11.265C12.2143 11.2612 12.2022 11.2559 12.1867 11.2492C12.1558 11.236 12.1116 11.2173 12.0567 11.195C11.9471 11.1506 11.7936 11.0913 11.6174 11.0318C11.2767 10.9166 10.8066 10.7847 10.3999 10.7819L10.3944 11.5818ZM15.3462 11.636C15.5094 12.0012 15.5094 12.0012 15.5094 12.0013C15.5094 12.0013 15.5093 12.0013 15.5093 12.0013C15.5093 12.0013 15.5093 12.0013 15.5093 12.0013C15.5093 12.0013 15.5093 12.0013 15.5095 12.0012C15.5097 12.0011 15.5102 12.0009 15.5109 12.0006C15.5124 11.9999 15.5148 11.9989 15.5181 11.9974C15.5247 11.9945 15.5349 11.9901 15.5485 11.9843C15.5756 11.9728 15.6158 11.956 15.6664 11.9357C15.768 11.895 15.9103 11.8407 16.0728 11.7868C16.4099 11.6748 16.788 11.5799 17.0663 11.5818L17.0718 10.7819C16.6543 10.779 16.171 10.9112 15.8207 11.0275C15.6394 11.0877 15.4815 11.1479 15.3687 11.1931C15.3123 11.2158 15.2668 11.2348 15.235 11.2483C15.2191 11.2551 15.2066 11.2605 15.1978 11.2643C15.1934 11.2663 15.19 11.2678 15.1875 11.2689C15.1863 11.2694 15.1853 11.2699 15.1845 11.2702C15.1841 11.2703 15.1838 11.2705 15.1836 11.2706C15.1835 11.2707 15.1834 11.2707 15.1833 11.2707C15.1832 11.2708 15.1832 11.2708 15.1831 11.2708C15.1831 11.2708 15.183 11.2708 15.3462 11.636ZM17.0663 11.5818C17.3376 11.5837 17.7054 11.6789 18.0331 11.7896C18.191 11.843 18.3294 11.8964 18.4281 11.9364C18.4773 11.9564 18.5163 11.9729 18.5426 11.9842C18.5558 11.9898 18.5657 11.9942 18.5722 11.997C18.5754 11.9984 18.5777 11.9995 18.5791 12.0001C18.5798 12.0004 18.5803 12.0006 18.5805 12.0007C18.5807 12.0008 18.5807 12.0008 18.5807 12.0008C18.5807 12.0008 18.5807 12.0008 18.5807 12.0008C18.5807 12.0008 18.5806 12.0008 18.5806 12.0008C18.5806 12.0008 18.5805 12.0007 18.7448 11.636C18.9091 11.2713 18.9091 11.2713 18.909 11.2713C18.909 11.2713 18.909 11.2713 18.9089 11.2712C18.9088 11.2712 18.9087 11.2711 18.9086 11.2711C18.9084 11.271 18.9081 11.2709 18.9077 11.2707C18.907 11.2704 18.906 11.2699 18.9048 11.2694C18.9024 11.2683 18.899 11.2668 18.8948 11.265C18.8863 11.2612 18.8741 11.2559 18.8587 11.2492C18.8278 11.236 18.7835 11.2173 18.7286 11.195C18.619 11.1506 18.4656 11.0913 18.2893 11.0318C17.9486 10.9166 17.4786 10.7847 17.0718 10.7819L17.0663 11.5818ZM9.09718 13.7191C8.90112 14.0677 8.9012 14.0678 8.90129 14.0678C8.90132 14.0678 8.90141 14.0679 8.90147 14.0679C8.9016 14.068 8.90174 14.0681 8.90189 14.0681C8.90219 14.0683 8.90252 14.0685 8.90289 14.0687C8.90364 14.0691 8.90453 14.0696 8.90557 14.0702C8.90765 14.0713 8.91033 14.0728 8.91358 14.0746C8.92009 14.0781 8.92891 14.0828 8.93992 14.0885C8.96193 14.1 8.99278 14.1155 9.03145 14.1338C9.1086 14.1703 9.21787 14.2181 9.35095 14.266C9.61393 14.3605 9.98578 14.4608 10.3944 14.4636L10.3999 13.6636C10.1127 13.6616 9.83456 13.5897 9.62152 13.5131C9.51659 13.4754 9.43133 13.438 9.37346 13.4106C9.34462 13.397 9.32283 13.3859 9.30908 13.3788C9.30222 13.3752 9.29738 13.3726 9.2947 13.3712C9.29335 13.3705 9.29255 13.37 9.29231 13.3699C9.29218 13.3698 9.2922 13.3698 9.29236 13.3699C9.29243 13.3699 9.29255 13.37 9.2927 13.3701C9.29277 13.3701 9.29286 13.3702 9.29295 13.3702C9.29299 13.3703 9.29307 13.3703 9.29309 13.3703C9.29317 13.3704 9.29325 13.3704 9.09718 13.7191ZM10.3944 14.4636C10.8012 14.4664 11.1522 14.3635 11.3975 14.2635C11.5211 14.2131 11.621 14.1622 11.6915 14.123C11.7269 14.1033 11.7551 14.0864 11.7754 14.0737C11.7856 14.0673 11.7939 14.062 11.8001 14.058C11.8033 14.0559 11.8059 14.0542 11.808 14.0528C11.809 14.0521 11.81 14.0515 11.8108 14.0509C11.8112 14.0506 11.8115 14.0504 11.8119 14.0502C11.812 14.0501 11.8122 14.05 11.8123 14.0499C11.8124 14.0498 11.8125 14.0497 11.8126 14.0497C11.8127 14.0496 11.8128 14.0496 11.5875 13.7191C11.3621 13.3885 11.3622 13.3885 11.3623 13.3884C11.3624 13.3884 11.3625 13.3883 11.3625 13.3883C11.3626 13.3882 11.3628 13.3881 11.3629 13.3881C11.3631 13.3879 11.3632 13.3878 11.3634 13.3877C11.3637 13.3875 11.3639 13.3874 11.3639 13.3873C11.3641 13.3872 11.3637 13.3875 11.3629 13.388C11.3613 13.389 11.3579 13.3912 11.3528 13.3944C11.3425 13.4008 11.3254 13.4112 11.3021 13.4241C11.2553 13.4502 11.1848 13.4863 11.0956 13.5227C10.9153 13.5962 10.6711 13.6655 10.3999 13.6636L10.3944 14.4636ZM15.7691 13.7191C15.573 14.0677 15.5731 14.0678 15.5732 14.0678C15.5732 14.0678 15.5733 14.0679 15.5734 14.0679C15.5735 14.068 15.5737 14.0681 15.5738 14.0681C15.5741 14.0683 15.5744 14.0685 15.5748 14.0687C15.5756 14.0691 15.5765 14.0696 15.5775 14.0702C15.5796 14.0713 15.5822 14.0728 15.5855 14.0746C15.592 14.0781 15.6008 14.0828 15.6118 14.0885C15.6339 14.1 15.6647 14.1155 15.7034 14.1338C15.7805 14.1703 15.8898 14.2181 16.0229 14.266C16.2859 14.3605 16.6577 14.4608 17.0663 14.4636L17.0718 13.6636C16.7846 13.6616 16.5065 13.5897 16.2934 13.5131C16.1885 13.4754 16.1033 13.438 16.0454 13.4106C16.0165 13.397 15.9948 13.3859 15.981 13.3788C15.9741 13.3752 15.9693 13.3726 15.9666 13.3712C15.9653 13.3705 15.9645 13.37 15.9642 13.3699C15.9641 13.3698 15.9641 13.3698 15.9643 13.3699C15.9644 13.3699 15.9645 13.37 15.9646 13.3701C15.9647 13.3701 15.9648 13.3702 15.9649 13.3702C15.9649 13.3703 15.965 13.3703 15.965 13.3703C15.9651 13.3704 15.9652 13.3704 15.7691 13.7191ZM17.0663 14.4636C17.4731 14.4664 17.8241 14.3635 18.0694 14.2635C18.1931 14.2131 18.293 14.1622 18.3634 14.123C18.3988 14.1033 18.427 14.0864 18.4474 14.0737C18.4576 14.0673 18.4658 14.062 18.4721 14.058C18.4752 14.0559 18.4778 14.0542 18.4799 14.0528C18.481 14.0521 18.4819 14.0515 18.4827 14.0509C18.4831 14.0506 18.4834 14.0504 18.4838 14.0502C18.4839 14.0501 18.4841 14.05 18.4843 14.0499C18.4843 14.0498 18.4844 14.0497 18.4845 14.0497C18.4846 14.0496 18.4847 14.0496 18.2594 13.7191C18.0341 13.3885 18.0342 13.3885 18.0343 13.3884C18.0343 13.3884 18.0344 13.3883 18.0344 13.3883C18.0346 13.3882 18.0347 13.3881 18.0348 13.3881C18.035 13.3879 18.0352 13.3878 18.0353 13.3877C18.0356 13.3875 18.0358 13.3874 18.0359 13.3873C18.036 13.3872 18.0356 13.3875 18.0348 13.388C18.0333 13.389 18.0299 13.3912 18.0247 13.3944C18.0144 13.4008 17.9973 13.4112 17.974 13.4241C17.9273 13.4502 17.8567 13.4863 17.7675 13.5227C17.5872 13.5962 17.343 13.6655 17.0718 13.6636L17.0663 14.4636ZM12.0216 20.2803C12.1483 20.6681 12.3892 20.9349 12.7225 21.0912C13.0327 21.2367 13.3973 21.274 13.7617 21.2765L13.7672 20.4765C13.4358 20.4742 13.2125 20.4374 13.0621 20.3669C12.9348 20.3072 12.8423 20.2162 12.782 20.0318L12.0216 20.2803ZM13.7617 21.2765C14.1361 21.2791 14.5254 21.2232 14.8548 21.0513C15.1994 20.8715 15.4637 20.5708 15.5638 20.1362L14.7842 19.9567C14.7409 20.1446 14.6395 20.2612 14.4847 20.342C14.3147 20.4307 14.0708 20.4786 13.7672 20.4765L13.7617 21.2765ZM12.782 20.0318C12.7282 19.8669 12.7822 19.6598 12.9861 19.4559C13.1912 19.2506 13.476 19.1293 13.699 19.1308L13.7045 18.3308C13.2317 18.3276 12.7496 18.5608 12.4202 18.8903C12.0896 19.2212 11.8415 19.7291 12.0216 20.2803L12.782 20.0318ZM13.699 19.1308C13.9458 19.1325 14.2734 19.2414 14.5132 19.4257C14.7528 19.6099 14.8215 19.7945 14.7842 19.9567L15.5638 20.1362C15.6994 19.5469 15.371 19.0761 15.0008 18.7915C14.6307 18.507 14.1357 18.3338 13.7045 18.3308L13.699 19.1308Z" fill="#0088CC"/>
<path d="M11.2518 18.6905C11.4199 18.5472 11.4399 18.2947 11.2965 18.1266C11.1532 17.9585 10.9007 17.9385 10.7326 18.0819L11.2518 18.6905ZM10.6864 21.9017C10.8288 22.0706 11.0811 22.0921 11.25 21.9497C11.4189 21.8073 11.4404 21.5549 11.298 21.386L10.6864 21.9017ZM10.0772 17.7821C10.2453 17.6388 10.2653 17.3863 10.122 17.2182C9.9786 17.0502 9.72613 17.0301 9.55805 17.1735L10.0772 17.7821ZM9.52573 22.8571C9.67679 23.0183 9.92992 23.0265 10.0911 22.8754C10.2523 22.7244 10.2605 22.4712 10.1095 22.31L9.52573 22.8571ZM10.7326 18.0819C10.4062 18.3603 10.0294 18.8764 9.91855 19.5521C9.80455 20.2471 9.97995 21.0636 10.6864 21.9017L11.298 21.386C10.7265 20.708 10.6356 20.1228 10.708 19.6816C10.7836 19.221 11.0457 18.8663 11.2518 18.6905L10.7326 18.0819ZM9.55805 17.1735C9.22075 17.4612 8.65222 18.2577 8.43933 19.2796C8.21995 20.3325 8.37776 21.632 9.52573 22.8571L10.1095 22.31C9.15875 21.2955 9.05032 20.2692 9.22251 19.4427C9.40118 18.5852 9.88201 17.9486 10.0772 17.7821L9.55805 17.1735Z" fill="#B8D958"/>
<path d="M2.29993 6.06768C2.07901 6.06768 1.89993 6.24676 1.89993 6.46768C1.89993 6.68859 2.07901 6.86768 2.29993 6.86768V6.06768ZM3.50589 6.46768L3.84415 6.68117C3.92193 6.55794 3.92653 6.40215 3.85617 6.27454C3.78581 6.14693 3.65161 6.06768 3.50589 6.06768V6.46768ZM2.29993 8.37842L1.96167 8.16492C1.88389 8.28816 1.87928 8.44394 1.94964 8.57155C2.02001 8.69916 2.1542 8.77842 2.29993 8.77842V8.37842ZM3.77214 8.77842C3.99305 8.77842 4.17214 8.59933 4.17214 8.37842C4.17214 8.1575 3.99305 7.97842 3.77214 7.97842V8.77842ZM1 0.74267C0.779086 0.74267 0.6 0.921756 0.6 1.14267C0.6 1.36358 0.779086 1.54267 1 1.54267V0.74267ZM2.90291 1.14267L3.23742 1.36199C3.318 1.23909 3.3247 1.08189 3.25485 0.952577C3.18501 0.823265 3.04988 0.74267 2.90291 0.74267V1.14267ZM1 3.99311L0.669877 3.76724C0.586088 3.8897 0.576973 4.04849 0.6462 4.17973C0.715426 4.31098 0.851617 4.39312 1 4.39312V3.99311ZM2.90291 4.39312C3.12382 4.39312 3.30291 4.21403 3.30291 3.99311C3.30291 3.7722 3.12382 3.59311 2.90291 3.59311V4.39312ZM1.81441 2.80282L2.1446 3.02874L2.14892 3.02214L1.81441 2.80282ZM2.29993 6.86768H3.50589V6.06768H2.29993V6.86768ZM2.29993 8.77842H3.77214V7.97842H2.29993V8.77842ZM3.16762 6.25418L2.56465 7.20955L3.24117 7.63654L3.84415 6.68117L3.16762 6.25418ZM2.56465 7.20955L1.96167 8.16492L2.63819 8.59191L3.24117 7.63654L2.56465 7.20955ZM1 1.54267H2.90291V0.74267H1V1.54267ZM1 4.39312H2.90291V3.59311H1V4.39312ZM2.5684 0.923345L1.4799 2.58349L2.14892 3.02214L3.23742 1.36199L2.5684 0.923345ZM1.48429 2.57695L0.669877 3.76724L1.33012 4.21899L2.14454 3.02869L1.48429 2.57695Z" fill="#B8D958"/>
</svg>
