<svg width="24" height="24" viewBox="0 0 24 24" fill="none" xmlns="http://www.w3.org/2000/svg">
<path d="M9.25 7.5H9.75C9.75 7.23478 9.64464 6.98043 9.45711 6.79289C9.26957 6.60536 9.01522 6.5 8.75 6.5C8.48478 6.5 8.23043 6.60536 8.04289 6.79289C7.85536 6.98043 7.75 7.23478 7.75 7.5H8.25C8.25 7.36739 8.30268 7.24021 8.39645 7.14645C8.49021 7.05268 8.61739 7 8.75 7C8.88261 7 9.00978 7.05268 9.10355 7.14645C9.19732 7.24021 9.25 7.36739 9.25 7.5Z" fill="#0088CC" stroke="#0088CC" stroke-width="0.2"/>
<path d="M12.25 6.5C11.9849 6.5003 11.7307 6.60576 11.5432 6.79323C11.3558 6.9807 11.2503 7.23488 11.25 7.5H11.75C11.75 7.36739 11.8027 7.24021 11.8964 7.14645C11.9902 7.05268 12.1174 7 12.25 7C12.3826 7 12.5098 7.05268 12.6036 7.14645C12.6973 7.24021 12.75 7.36739 12.75 7.5H13.25C13.2497 7.23488 13.1442 6.9807 12.9568 6.79323C12.7693 6.60576 12.5151 6.5003 12.25 6.5Z" fill="#0088CC" stroke="#0088CC" stroke-width="0.2"/>
<path d="M6 5.75H6.5V8C6.50028 8.65174 6.65987 9.29353 6.96488 9.86949C7.26989 10.4454 7.71107 10.9381 8.25 11.3046V13H6.05506C5.65633 12.9921 5.26003 13.0639 4.88941 13.2112C4.51879 13.3584 4.18131 13.5782 3.89676 13.8577C3.6122 14.1371 3.38631 14.4705 3.23232 14.8384C3.07833 15.2063 2.99935 15.6012 3 16V19.5H3.5V16C3.50007 15.6671 3.56661 15.3375 3.69573 15.0306C3.82485 14.7237 4.01394 14.4457 4.25192 14.2128C4.4899 13.98 4.77197 13.797 5.0816 13.6746C5.39123 13.5522 5.72219 13.4928 6.05506 13.5H8.5C8.56631 13.5 8.6299 13.4737 8.67678 13.4268C8.72366 13.3799 8.75 13.3163 8.75 13.25V11.5913C9.2942 11.8601 9.89302 12 10.5 12C11.107 12 11.7058 11.8602 12.25 11.5913V13.25C12.25 13.3163 12.2763 13.3799 12.3232 13.4268C12.3701 13.4737 12.4337 13.5 12.5 13.5H14.945C15.2778 13.4928 15.6088 13.5522 15.9184 13.6746C16.228 13.797 16.5101 13.98 16.7481 14.2128C16.9861 14.4457 17.1752 14.7237 17.3043 15.0306C17.4334 15.3375 17.4999 15.6671 17.5 16C17.5001 16.3329 17.9993 16.3988 18 16C18.0007 15.6012 17.9217 15.2063 17.7677 14.8384C17.6137 14.4705 17.3878 14.1371 17.1032 13.8577C16.8187 13.5782 16.4812 13.3584 16.1106 13.2112C15.74 13.0639 15.3437 12.9921 14.945 13H12.75V11.3046C13.2836 10.94 13.7217 10.4524 14.0272 9.88289C14.1157 10.5376 14.4384 11.1382 14.9355 11.5733C15.4327 12.0085 16.0706 12.2489 16.7313 12.25H17C17.0663 12.25 17.1299 12.2237 17.1768 12.1768C17.2237 12.1299 17.25 12.0663 17.25 12V4.98132C17.2492 4.25718 16.9612 3.56292 16.4491 3.05087C15.9371 2.53882 15.2428 2.2508 14.5187 2.25H14.0123C13.1898 1.44736 11.9893 1 10.5 1C7.57007 1 5.75 2.72425 5.75 5.5C5.75 5.5663 5.77634 5.62989 5.82323 5.67678C5.87011 5.72366 5.9337 5.75 6 5.75ZM10.5 11.5C9.57207 11.499 8.68243 11.1299 8.02628 10.4737C7.37013 9.81757 7.00104 8.92794 7 8V5.75H14V8C13.999 8.92794 13.6299 9.81757 12.9737 10.4737C12.3176 11.1299 11.4279 11.499 10.5 11.5ZM14.5187 2.75C15.1103 2.75067 15.6774 2.98597 16.0957 3.40428C16.514 3.82259 16.7493 4.38974 16.75 4.98132V11.75H16.7313C16.1397 11.7493 15.5726 11.514 15.1543 11.0957C14.736 10.6774 14.5007 10.1103 14.5 9.51868V5.75H15C15.0663 5.75 15.1299 5.72366 15.1768 5.67678C15.2237 5.62989 15.25 5.5663 15.25 5.5C15.2782 4.52061 14.9944 3.5576 14.4396 2.75H14.5187ZM10.5 1.5C13.0714 1.5 14.6415 2.89625 14.7446 5.25H13.75V4H13.25V5.25H11.75V4H11.25V5.25H9.75V4H9.25V5.25H7.75V4H7.25V5.25H6.25537C6.35852 2.89625 7.92859 1.5 10.5 1.5Z" fill="#0088CC" stroke="#0088CC" stroke-width="0.2"/>
<path d="M10.5 9.75C10.2696 9.74958 10.0464 9.66982 9.86796 9.52416C9.75445 9.43152 9.66343 9.31581 9.60022 9.18581C9.53991 9.06176 9.41067 8.97243 9.27551 8.9999C9.13997 9.02746 9.05054 9.1609 9.10035 9.28994C9.19359 9.53152 9.34836 9.74627 9.55115 9.91184C9.81901 10.1305 10.1542 10.25 10.5 10.25C10.8458 10.25 11.181 10.1305 11.4489 9.91184C11.6516 9.74627 11.8064 9.53152 11.8997 9.28994C11.9495 9.1609 11.86 9.02746 11.7245 8.9999C11.5893 8.97243 11.4601 9.06176 11.3998 9.18581C11.3366 9.31581 11.2456 9.43151 11.132 9.52415C10.9536 9.66982 10.7304 9.74957 10.5 9.75Z" fill="#0088CC" stroke="#0088CC" stroke-width="0.2"/>
<path d="M8.25 17.75H9.69678L12.1591 20.2123C12.1823 20.2355 12.2098 20.2539 12.2402 20.2665C12.2705 20.279 12.303 20.2855 12.3358 20.2855C12.3686 20.2855 12.4012 20.279 12.4315 20.2665C12.4618 20.2539 12.4894 20.2355 12.5126 20.2123L14.9749 17.75H16.5V17.25H15.3298C15.5069 16.8775 15.5467 16.4544 15.4421 16.0555C15.3376 15.6565 15.0954 15.3073 14.7584 15.0696C14.4214 14.8318 14.0112 14.7208 13.6003 14.7561C13.1893 14.7914 12.8041 14.9708 12.5126 15.2626L12.3358 15.4393L12.159 15.2626C11.8676 14.9703 11.4823 14.7906 11.0711 14.755C10.66 14.7195 10.2495 14.8305 9.91234 15.0684C9.57514 15.3063 9.33292 15.6557 9.22851 16.0549C9.1241 16.4542 9.16423 16.8775 9.3418 17.25H8.25V17.75ZM12.3358 19.682L10.4038 17.75H11.25C11.2964 17.75 11.342 17.7371 11.3814 17.7127C11.4209 17.6883 11.4529 17.6533 11.4736 17.6118L11.7646 17.0297L12.533 18.374C12.5541 18.411 12.5844 18.442 12.6209 18.464C12.6574 18.486 12.6989 18.4984 12.7415 18.4999L12.75 18.5C12.7912 18.5 12.8317 18.4898 12.868 18.4704C12.9042 18.451 12.9352 18.4229 12.958 18.3887L13.3838 17.75H14.2678L12.3358 19.682ZM10.0377 15.6161C10.2721 15.3817 10.5901 15.25 10.9216 15.25C11.2531 15.25 11.571 15.3817 11.8054 15.6161L12.1591 15.9696C12.1823 15.9928 12.2098 16.0112 12.2402 16.0238C12.2705 16.0364 12.303 16.0428 12.3358 16.0428C12.3686 16.0428 12.4012 16.0364 12.4315 16.0238C12.4618 16.0112 12.4894 15.9928 12.5126 15.9696L12.8661 15.6161C13.0892 15.3919 13.3893 15.2608 13.7054 15.2495C14.0215 15.2382 14.3302 15.3475 14.5688 15.5552C14.8074 15.7629 14.9582 16.0535 14.9905 16.3681C15.0229 16.6828 14.9345 16.998 14.7432 17.25H13.25C13.2088 17.25 13.1683 17.2601 13.132 17.2796C13.0958 17.299 13.0648 17.3271 13.042 17.3613L12.7664 17.7748L11.967 16.376C11.9455 16.3359 11.9129 16.3029 11.8733 16.2806C11.8336 16.2583 11.7885 16.2477 11.743 16.2501C11.6978 16.2514 11.6538 16.2649 11.6156 16.2892C11.5775 16.3135 11.5466 16.3477 11.5264 16.3882L11.0955 17.25H9.92842C9.74662 17.0102 9.65756 16.7128 9.67765 16.4126C9.69773 16.1124 9.8256 15.8295 10.0377 15.6161Z" fill="#B8D958"/>
<path d="M21.1594 19.0342C21.0221 18.8336 20.8454 18.6629 20.64 18.5327C20.4347 18.4025 20.205 18.3154 19.9649 18.2767C19.6302 18.2245 19.2875 18.2643 18.9737 18.392C19.0475 17.6967 19.4383 16.6219 19.6614 16.3499C19.8844 16.078 19.3768 15.8467 19.2131 16.1282C19.0494 16.4098 19.1126 16.3345 19.0659 16.4333C18.9868 16.395 18.9049 16.3631 18.8208 16.3377C18.4978 16.2225 18.143 16.2355 17.8294 16.3741C17.7577 16.4095 17.6937 16.459 17.6415 16.5196C17.5892 16.5802 17.5497 16.6507 17.5252 16.7269C17.4017 17.1364 17.7712 17.5852 18.3832 17.7705C18.4421 17.7877 18.502 17.8019 18.5624 17.813C18.5217 17.9955 18.4919 18.1803 18.4731 18.3664C18.1746 18.2574 17.8532 18.2265 17.5394 18.2767C17.2993 18.3154 17.0697 18.4025 16.8643 18.5327C16.659 18.6629 16.4823 18.8336 16.3449 19.0342C16.1938 19.2552 16.0892 19.5045 16.0374 19.7671C15.9855 20.0297 15.9877 20.3001 16.0436 20.5618C16.2408 21.5443 17.1294 22.8465 18.1274 22.8465C18.1889 22.8465 18.2503 22.8415 18.311 22.8316C18.4039 22.8166 18.4955 22.7941 18.5849 22.7646C18.6936 22.7296 18.8104 22.7296 18.919 22.7645C19.0084 22.794 19.1 22.8165 19.193 22.8315C20.2621 23.0084 21.2514 21.6042 21.4608 20.5618C21.5167 20.3001 21.5188 20.0297 21.467 19.7671C21.4152 19.5045 21.3105 19.2552 21.1594 19.0342ZM18.5296 17.2924C18.1644 17.1818 17.9791 16.9538 18.0039 16.8714C18.0117 16.8458 18.0488 16.8238 18.0644 16.8155C18.2616 16.7403 18.4797 16.7407 18.6766 16.8165C18.7406 16.8353 18.803 16.8594 18.8629 16.8887C18.7998 17.04 18.7448 17.187 18.6965 17.3321C18.6401 17.3226 18.5843 17.3094 18.5296 17.2924ZM20.9706 20.4634C20.8022 21.3024 20.018 22.4603 19.2732 22.3379C19.2062 22.3271 19.1401 22.311 19.0757 22.2897C18.8653 22.221 18.6386 22.2211 18.4283 22.2899C18.3639 22.3111 18.2978 22.3272 18.2308 22.3381C17.4869 22.4581 16.702 21.3023 16.5338 20.4634C16.4914 20.2675 16.4892 20.0651 16.5274 19.8683C16.5656 19.6715 16.6434 19.4846 16.7561 19.3188C16.8554 19.1736 16.9832 19.05 17.1317 18.9557C17.2802 18.8614 17.4463 18.7982 17.62 18.7701C17.6905 18.7586 17.7617 18.7529 17.8331 18.7529C18.1117 18.7549 18.3836 18.8377 18.6161 18.9911C18.6566 19.0174 18.7039 19.0314 18.7522 19.0314C18.8005 19.0314 18.8478 19.0174 18.8883 18.9911C19.1812 18.7959 19.5364 18.7171 19.8844 18.7701C20.0581 18.7982 20.2242 18.8614 20.3727 18.9557C20.5212 19.05 20.649 19.1736 20.7483 19.3188C20.8609 19.4846 20.9387 19.6715 20.9769 19.8683C21.0151 20.0651 21.013 20.2675 20.9706 20.4634Z" fill="#B8D958"/>
<path d="M7 22.25H7.5V22.75H7V22.25Z" fill="#0088CC"/>
<path d="M7.75 21.5H8.25V22H7.75V21.5Z" fill="#0088CC"/>
<path d="M8.5 22.25H9V22.75H8.5V22.25Z" fill="#0088CC"/>
<path d="M10.2498 22.25H10.7498V22.75H10.2498V22.25Z" fill="#0088CC"/>
<path d="M11.25 21.75H11.75V22.25H11.25V21.75Z" fill="#0088CC"/>
<path d="M12.75 22.25H13.25V22.75H12.75V22.25Z" fill="#0088CC"/>
<path d="M8.74976 20.75H9.24976V21.25H8.74976V20.75Z" fill="#0088CC"/>
<path d="M9.49975 21.5H9.99976V22H9.49975V21.5Z" fill="#0088CC"/>
</svg>
