<svg width="24" height="20" viewBox="0 0 24 20" fill="none" xmlns="http://www.w3.org/2000/svg">
<path d="M9.94036 10.3065C9.75728 10.3065 9.60472 10.4591 9.60472 10.6422V13.0222C9.60472 16.6532 6.61442 18.8502 3.71567 18.8502C2.46463 18.8502 1.61026 17.6297 1.61026 15.7989C1.61026 10.8557 6.37032 4.32593 8.56727 4.32593C8.8724 4.32593 9.1165 4.47849 9.29958 4.78362C9.51318 5.1803 9.63523 5.82107 9.63523 6.67544V8.41469C9.63523 8.59777 9.7878 8.75034 9.97087 8.75034C10.154 8.75034 10.3065 8.59777 10.3065 8.41469V6.67544C10.3065 5.69902 10.154 4.9667 9.87933 4.47849C9.5742 3.95977 9.14702 3.68515 8.59778 3.68515C5.8516 3.68515 1 10.6727 1 15.7989C1 18.0263 2.09847 19.491 3.74619 19.491C7.40777 19.491 10.3065 16.6532 10.3065 13.0222V10.6422C10.276 10.4591 10.1234 10.3065 9.94036 10.3065Z" fill="#0088CC" stroke="#0088CC" stroke-width="0.2"/>
<path d="M15.4023 3.68515C14.8531 3.68515 14.3954 3.95977 14.1208 4.47849C13.8462 4.9667 13.6936 5.72953 13.6936 6.67544V8.41469C13.6936 8.59777 13.8462 8.75034 14.0292 8.75034C14.2123 8.75034 14.3649 8.59777 14.3649 8.41469V6.67544C14.3649 5.82107 14.4869 5.1803 14.7005 4.78362C14.8836 4.47849 15.0972 4.32593 15.4329 4.32593C17.5993 4.32593 22.3593 10.8557 22.3593 15.7684C22.3593 17.5992 21.505 18.8197 20.2539 18.8197C17.3552 18.8197 14.3649 16.6532 14.3649 12.9917V10.6116C14.3649 10.4286 14.2123 10.276 14.0292 10.276C13.8462 10.276 13.6936 10.4286 13.6936 10.6116V12.9917C13.6936 16.6227 16.5618 19.4605 20.2539 19.4605C21.9016 19.4605 23.0001 17.9653 23.0001 15.7684C23.0001 10.6727 18.1485 3.68515 15.4023 3.68515Z" fill="#0088CC" stroke="#0088CC" stroke-width="0.2"/>
<path d="M14.3952 9.94036C15.5547 9.94036 16.5007 10.8863 16.5007 12.0458C16.5007 13.5714 17.7212 14.792 19.2468 14.792C19.4299 14.792 19.5825 14.6394 19.5825 14.4563C19.5825 14.2732 19.4299 14.1207 19.2468 14.1207C18.0873 14.1207 17.1414 13.1748 17.1414 12.0153C17.1414 11.7406 17.1109 11.466 17.0194 11.2219C17.2635 11.3135 17.5381 11.344 17.8127 11.344C18.545 11.344 19.2468 11.0693 19.7656 10.5506C19.8876 10.4286 19.8876 10.215 19.7656 10.0929C19.6435 9.97087 19.4299 9.97087 19.3079 10.0929C18.9112 10.4896 18.3925 10.7032 17.8432 10.7032C17.294 10.7032 16.7448 10.4896 16.3786 10.0929C16.3786 10.0929 16.3786 10.0929 16.3481 10.0929C15.8599 9.60472 15.1581 9.29958 14.4258 9.29958C13.2663 9.29958 12.3203 8.35368 12.3203 7.19417V1.33564C12.3203 1.15257 12.1678 1 11.9847 1C11.8016 1 11.6491 1.15257 11.6491 1.33564V7.19417C11.6491 8.35368 10.7032 9.29958 9.54365 9.29958C8.78082 9.29958 8.10953 9.60472 7.62132 10.0929C7.62132 10.0929 7.62132 10.0929 7.59081 10.0929C7.19414 10.4896 6.67541 10.7032 6.12617 10.7032C5.57694 10.7032 5.0277 10.4896 4.66154 10.0929C4.53949 9.97087 4.3259 9.97087 4.20384 10.0929C4.08179 10.215 4.08179 10.4286 4.20384 10.5506C4.72257 11.0693 5.42437 11.344 6.15669 11.344C6.43131 11.344 6.70592 11.3135 6.95003 11.2219C6.889 11.466 6.82798 11.7406 6.82798 12.0153C6.82798 13.1748 5.88207 14.1207 4.72257 14.1207C4.53949 14.1207 4.38692 14.2732 4.38692 14.4563C4.38692 14.6394 4.53949 14.792 4.72257 14.792C6.24823 14.792 7.46875 13.5714 7.46875 12.0458C7.46875 10.8863 8.41466 9.94036 9.57416 9.94036C10.6116 9.94036 11.527 9.36061 11.9847 8.47573C12.4424 9.3301 13.3578 9.94036 14.3952 9.94036Z" fill="#B8D958" stroke="#B8D958" stroke-width="0.2"/>
<path d="M5.99745 7.95839C6.85382 6.61416 8.23864 5.65896 8.25267 5.64938C8.36194 5.57478 8.39029 5.4254 8.31549 5.31586C8.24045 5.20629 8.09076 5.17837 7.98224 5.25284C7.92211 5.2937 6.50321 6.27104 5.59278 7.70045C5.52146 7.81219 5.5546 7.9607 5.66638 8.03179C5.69562 8.05066 5.7274 8.06215 5.75969 8.06691C5.85063 8.08034 5.945 8.0409 5.99745 7.95839Z" fill="#0088CC" stroke="#0088CC" stroke-width="0.2"/>
<path d="M5.38157 8.394C5.26836 8.32609 5.12051 8.36128 5.05163 8.4746C5.04287 8.48956 4.82933 8.84159 4.73426 9.05172C4.6798 9.1725 4.73331 9.31456 4.85429 9.36929C4.87526 9.37845 4.89665 9.38476 4.91801 9.38792C5.02153 9.4032 5.12653 9.34931 5.17187 9.24926C5.25476 9.06572 5.46006 8.72679 5.46224 8.72347C5.53082 8.61059 5.49465 8.46285 5.38157 8.394Z" fill="#0088CC" stroke="#0088CC" stroke-width="0.2"/>
</svg>
