<svg width="24" height="24" viewBox="0 0 24 24" fill="none" xmlns="http://www.w3.org/2000/svg">
<path d="M18 18.2198L16.875 17.0948L15.2197 18.75L18 21.5303L22.2802 17.25L20.625 15.5948L18 18.2198ZM18 20.4698L16.2802 18.75L16.875 18.1553L18 19.2803L20.625 16.6553L21.2197 17.25L18 20.4698Z" fill="#B8D958"/>
<path d="M8.58567 7.70741L7.91479 8.04303L7.95417 8.12216C8.22492 8.66366 8.76942 9.00003 9.37504 9.00003C9.98067 9.00003 10.5252 8.66366 10.7959 8.12178L10.8353 8.04266L10.1644 7.70703L10.125 7.78653C9.98217 8.07228 9.69492 8.25003 9.37504 8.25003C9.05517 8.25003 8.76792 8.07228 8.62504 7.78653L8.58567 7.70741Z" fill="#0088CC"/>
<path d="M10.5 7.125C10.7071 7.125 10.875 6.95711 10.875 6.75C10.875 6.54289 10.7071 6.375 10.5 6.375C10.2929 6.375 10.125 6.54289 10.125 6.75C10.125 6.95711 10.2929 7.125 10.5 7.125Z" fill="#0088CC"/>
<path d="M8.25 7.125C8.45711 7.125 8.625 6.95711 8.625 6.75C8.625 6.54289 8.45711 6.375 8.25 6.375C8.04289 6.375 7.875 6.54289 7.875 6.75C7.875 6.95711 8.04289 7.125 8.25 7.125Z" fill="#0088CC"/>
<path d="M23.625 11.8436V5.25C23.625 4.42275 22.9522 3.75 22.125 3.75C21.3799 3.75 20.76 4.296 20.6445 5.00887C20.169 5.25825 19.875 5.7435 19.875 6.29587C19.875 6.68887 20.0273 7.05788 20.304 7.33463L20.5894 7.62L20.2909 8.96362C20.0419 10.0826 19.9039 11.2286 19.8791 12.3754H18.8385C18.3202 12.3754 17.8016 12.48 17.3231 12.6799C16.5525 11.9974 15.5719 11.625 14.5339 11.625H12.1222C11.5747 11.2324 11.1716 10.6777 10.9676 10.0376C11.7109 9.56925 12.2344 8.78588 12.3488 7.875H12.375C13.2023 7.875 13.875 7.20225 13.875 6.375C13.875 6.06413 13.7797 5.775 13.617 5.535L13.8158 4.47638C13.8551 4.266 13.875 4.05113 13.875 3.83775C13.875 1.92825 12.3218 0.375 10.4123 0.375H8.802C7.69688 0.375 6.69637 0.951375 6.1425 1.893C5.4255 2.00512 4.875 2.62687 4.875 3.375C4.875 4.10475 4.96237 4.83262 5.1285 5.5425C4.96875 5.781 4.875 6.06712 4.875 6.375C4.875 7.20225 5.54775 7.875 6.375 7.875H6.40088C6.51525 8.78588 7.03875 9.56925 7.782 10.0376C7.57838 10.6777 7.17525 11.2324 6.62738 11.625H3.41663C1.73962 11.625 0.375 12.9896 0.375 14.6666C0.375 15.1954 0.51375 15.7174 0.775875 16.1756L0.90825 16.4074C0.564375 17.0764 0.375 17.8185 0.375 18.5963C0.375 19.2439 0.496125 19.8746 0.734625 20.4713L1.1475 21.5033C1.66313 22.7921 2.89275 23.625 4.281 23.625H14.625V20.628L18 23.7619L22.5904 19.4996C23.2478 18.8888 23.625 18.0236 23.625 17.1195C23.625 16.1348 23.184 15.2171 22.4149 14.6017C22.3778 14.5721 22.338 14.5455 22.2997 14.5174C23.1266 13.887 23.625 12.9131 23.625 11.8436ZM12.375 7.125V5.625C12.7886 5.625 13.125 5.96137 13.125 6.375C13.125 6.78863 12.7886 7.125 12.375 7.125ZM5.625 6.375C5.625 5.96137 5.96137 5.625 6.375 5.625H6.38587C6.38287 5.67338 6.375 5.72062 6.375 5.76937V7.125C5.96137 7.125 5.625 6.78863 5.625 6.375ZM6.56363 4.875H6.375C6.16275 4.875 5.961 4.92075 5.778 5.00063C5.67675 4.46513 5.625 3.92025 5.625 3.375C5.625 2.96137 5.96137 2.625 6.375 2.625H6.60675L6.71025 2.41762C7.10925 1.62038 7.91062 1.125 8.802 1.125H10.4123C11.9081 1.125 13.125 2.34188 13.125 3.83775C13.125 4.005 13.1093 4.17337 13.0785 4.338L12.9559 4.992C12.777 4.917 12.5809 4.875 12.375 4.875H12H10.5C9.46613 4.875 8.625 4.03387 8.625 3H7.875C7.875 3.21225 7.90312 3.41775 7.95075 3.61575L7.78912 3.68025C7.22363 3.90637 6.79388 4.34138 6.56363 4.875ZM7.125 7.5V5.76937C7.125 5.15212 7.49512 4.60575 8.06775 4.37663L8.22975 4.31175C8.68462 5.0955 9.53063 5.625 10.5 5.625H11.625V7.5C11.625 8.74088 10.6159 9.75 9.375 9.75C8.13412 9.75 7.125 8.74088 7.125 7.5ZM8.46787 10.359C8.75437 10.4501 9.05888 10.5 9.375 10.5C9.69112 10.5 9.99562 10.4501 10.2817 10.359C10.5356 11.0914 11.0014 11.7296 11.625 12.1943V12.375C11.625 13.6159 10.6159 14.625 9.375 14.625C8.13412 14.625 7.125 13.6159 7.125 12.375V12.189C7.74713 11.7248 8.21475 11.0899 8.46787 10.359ZM4.281 22.875C3.20138 22.875 2.24475 22.2274 1.84387 21.225L1.431 20.193C1.22775 19.6852 1.125 19.1479 1.125 18.5693C1.125 18.1061 1.2135 17.6494 1.37025 17.2162L1.9245 18.186L2.5755 17.814L1.42687 15.8036C1.22925 15.4583 1.125 15.0653 1.125 14.6666C1.125 13.4032 2.15325 12.375 3.41663 12.375H4.1925L4.37813 13.3024C4.45913 13.7066 4.5 14.121 4.5 14.5339C4.5 15.4598 4.13963 16.3301 3.48488 16.9849L3.29362 17.1761L3.41437 17.418C3.63412 17.8568 3.75 18.348 3.75 18.8385V19.8836C3.62512 19.8799 3.49988 19.875 3.375 19.875H3V20.625H3.375C4.09875 20.625 4.82737 20.6906 5.53988 20.8204L8.751 21.4042L9.321 20.8342C9.45413 20.7015 9.63825 20.625 9.8265 20.625C10.0991 20.625 10.344 20.7765 10.4659 21.0203L10.6432 21.375H10.875C11.2886 21.375 11.625 21.7114 11.625 22.125C11.625 22.5386 11.2886 22.875 10.875 22.875H4.281ZM13.875 22.875H12.1665C12.2955 22.6534 12.375 22.3995 12.375 22.125C12.375 21.3799 11.8286 20.7596 11.1158 20.6441C10.8593 20.1686 10.3695 19.875 9.8265 19.875C9.43538 19.875 9.0675 20.0273 8.79075 20.304L8.499 20.5958L5.67412 20.082C5.28638 20.0115 4.89412 19.9594 4.50038 19.9249V18.8381C4.50038 18.3199 4.39575 17.8013 4.19588 17.3228C4.87762 16.5525 5.25 15.5719 5.25 14.5339C5.25 14.0715 5.20388 13.6076 5.1135 13.155L4.9575 12.375H6.375C6.375 14.0291 7.72088 15.375 9.375 15.375C11.0291 15.375 12.375 14.0291 12.375 12.375H13.875V14.3974C13.7753 14.4608 13.6778 14.5275 13.5851 14.6017C12.816 15.2171 12.375 16.1347 12.375 17.1262C12.375 18.0236 12.7522 18.8888 13.4096 19.4996L13.875 19.9316V22.875ZM22.875 17.1262C22.875 17.8159 22.5851 18.4804 22.0796 18.9499L18 22.7381L13.9204 18.9499C13.4149 18.4804 13.125 17.8159 13.125 17.1195C13.125 16.3639 13.4633 15.6596 14.0539 15.1875C14.5069 14.8249 15.0765 14.625 15.657 14.625C16.3425 14.625 16.9867 14.892 17.4716 15.3765L18.0004 15.9053L18.5291 15.3765C19.0133 14.892 19.6579 14.625 20.3434 14.625C20.9239 14.625 21.4935 14.8249 21.9465 15.1875C22.5367 15.6596 22.875 16.3639 22.875 17.1262ZM20.3434 13.875C19.4584 13.875 18.6262 14.2192 18 14.8447C17.3738 14.2192 16.5416 13.875 15.6566 13.875C15.3045 13.875 14.9565 13.9339 14.625 14.0426V12.3795C15.5164 12.4024 16.3519 12.7571 16.9849 13.3901L17.1761 13.5814L17.418 13.4606C17.8568 13.2413 18.348 13.125 18.8389 13.125H20.625V12.75C20.625 11.5331 20.7589 10.3136 21.0229 9.126L21.4106 7.38037L20.8342 6.804C20.6992 6.669 20.625 6.48863 20.625 6.282C20.625 6.0195 20.7709 5.78362 21.006 5.66625L21.375 5.48175V5.25C21.375 4.83637 21.7114 4.5 22.125 4.5C22.5386 4.5 22.875 4.83637 22.875 5.25V11.8436C22.875 12.7909 22.3733 13.6421 21.5618 14.1105C21.1755 13.9582 20.7623 13.875 20.3434 13.875Z" fill="#0088CC"/>
</svg>
