<svg width="24" height="24" viewBox="0 0 24 24" fill="none" xmlns="http://www.w3.org/2000/svg">
<g clip-path="url(#clip0)">
<path d="M15.749 10.1261C15.75 11.3574 15.3922 12.5624 14.7193 13.5937C14.8377 13.7596 14.9582 13.9247 15.0827 14.0878C15.1146 14.1297 15.1527 14.1779 15.1937 14.2292C15.7951 13.3786 16.2023 12.4063 16.3867 11.381C16.5711 10.3558 16.5281 9.30251 16.2608 8.29567C15.9934 7.28884 15.5083 6.35297 14.8397 5.55418C14.171 4.7554 13.3351 4.11316 12.391 3.67285L12.5588 4.60677C13.528 5.16605 14.333 5.97047 14.8929 6.93925C15.4529 7.90804 15.7481 9.00709 15.749 10.1261Z" fill="#B8D958" stroke="#B8D958" stroke-width="0.2"/>
<path d="M7.62832 16.3272C7.63431 16.3132 7.64289 16.2913 7.65234 16.2635C6.78422 16.0205 5.97754 15.5961 5.28558 15.0183C4.59363 14.4405 4.03215 13.7224 3.63824 12.9115C3.24433 12.1006 3.02696 11.2154 3.00048 10.3143C2.974 9.41321 3.13902 8.51674 3.48464 7.68414L3.03749 6.87134C2.55639 7.80557 2.2881 8.83475 2.25189 9.88496C2.21568 10.9352 2.41246 11.9804 2.82808 12.9455C3.24371 13.9107 3.86788 14.7718 4.65577 15.4672C5.44367 16.1625 6.37575 16.6747 7.38509 16.9672C7.44527 16.7646 7.51919 16.5663 7.60634 16.3738C7.61247 16.3577 7.61982 16.3421 7.62832 16.3272Z" fill="#B8D958" stroke="#B8D958" stroke-width="0.2"/>
<path d="M23.29 23.3849C23.3931 23.3017 23.4766 23.1968 23.5346 23.0776C23.5925 22.9584 23.6233 22.8279 23.625 22.6954C23.6177 21.5585 22.6806 21.1605 21.9277 20.8408C21.7823 20.779 21.6384 20.718 21.5032 20.6525C20.5392 20.2038 19.6121 19.6798 18.7306 19.0852C17.9209 18.5127 15.1269 15.3813 14.4868 14.5427C14.0424 13.9615 13.6316 13.3556 13.2561 12.7277L11.025 0.308545C11.0074 0.210634 10.9516 0.123717 10.87 0.0669155C10.7883 0.0101138 10.6874 -0.01192 10.5895 0.00566138C10.4916 0.0232427 10.4047 0.078999 10.3479 0.160665C10.2911 0.24233 10.269 0.343215 10.2866 0.441126L12.53 12.9271C12.5378 12.9711 12.5535 13.0133 12.5762 13.0518C12.9758 13.7256 13.4147 14.3754 13.8905 14.9977C14.586 15.9089 17.4028 19.0651 18.2977 19.6977C19.2126 20.3162 20.175 20.8611 21.1759 21.3275C21.325 21.3997 21.4824 21.4665 21.6346 21.5312C22.401 21.8567 22.871 22.0873 22.8749 22.7002C22.8762 22.7134 22.8756 22.7524 22.8024 22.8149C22.2606 23.2785 20.1442 23.3068 19.5634 23.212L19.5299 23.2065C18.8743 23.0995 17.8835 22.9379 17.4076 22.5381C17.3851 22.5192 17.3605 22.5031 17.3343 22.49C17.1915 22.4184 13.8172 20.7335 12.2626 20.3931C12.2364 20.3874 12.2095 20.3845 12.1827 20.3845C11.469 20.3835 9.4917 20.1809 8.91817 19.2661C8.5468 18.6729 8.66253 17.6802 8.96889 17.0028C9.04434 16.8515 9.66439 15.5012 8.64037 13.9428L1.07654 0.194091C1.05282 0.150942 1.02082 0.112889 0.982391 0.0821048C0.943958 0.0513207 0.899836 0.0284086 0.852547 0.0146768C0.805258 0.000944925 0.755728 -0.00333774 0.706783 0.00207334C0.657839 0.00748442 0.610443 0.0224833 0.567295 0.0462134C0.481522 0.095477 0.418194 0.176083 0.390633 0.271079C0.363071 0.366076 0.373423 0.468059 0.41951 0.55558L7.99047 14.3175C7.99542 14.3266 8.00073 14.3354 8.00641 14.3439C8.82954 15.5868 8.31972 16.6248 8.29867 16.6661C8.29538 16.6723 8.29227 16.6786 8.28934 16.685C7.89672 17.5467 7.74235 18.8018 8.28256 19.6644C9.14451 21.0391 11.756 21.1285 12.1392 21.1342C13.538 21.4552 16.5916 22.9587 16.9618 23.1424C17.6011 23.6518 18.6863 23.8288 19.409 23.9468L19.4425 23.9522C19.715 23.9967 22.3717 24.1704 23.29 23.3849Z" fill="#0088CC" stroke="#0088CC" stroke-width="0.2"/>
<path d="M10.4167 5.58522C10.4167 5.48575 10.3771 5.39037 10.3068 5.32003C10.2365 5.2497 10.1411 5.21019 10.0416 5.21018C8.02043 5.21018 7.09255 3.72353 6.71904 2.83645C6.41088 2.0495 6.09983 1.24676 5.7859 0.428231C5.75032 0.335323 5.67929 0.260352 5.58844 0.219812C5.49759 0.179272 5.39435 0.176483 5.30145 0.212059C5.20854 0.247635 5.13357 0.318662 5.09303 0.409514C5.05249 0.500366 5.0497 0.603601 5.08527 0.69651C6.13024 3.42483 7.17054 6.02646 8.05913 8.22429C7.69305 8.01128 7.28826 7.87322 6.86832 7.81815C6.81948 7.81138 6.76979 7.8143 6.72208 7.82675C6.67438 7.8392 6.6296 7.86093 6.5903 7.89071C6.551 7.92048 6.51796 7.95771 6.49307 8.00027C6.46818 8.04283 6.45192 8.08987 6.44523 8.13872C6.43853 8.18757 6.44154 8.23725 6.45407 8.28494C6.4666 8.33262 6.48841 8.37737 6.51825 8.41661C6.54809 8.45586 6.58537 8.48884 6.62797 8.51366C6.67057 8.53848 6.71765 8.55466 6.7665 8.56127C7.54733 8.6684 7.98994 9.0569 8.41789 9.43267C8.47997 9.48706 8.54077 9.54035 8.60119 9.59172C8.60647 9.59619 8.61247 9.5991 8.6179 9.60324C8.73472 9.89093 8.8486 10.1712 8.95737 10.4389C9.59885 12.0178 10.0623 13.1584 10.2462 13.6641C10.4826 14.3147 10.6899 14.9545 10.6562 15.6274C10.6339 15.8741 10.5886 16.1182 10.5209 16.3564C10.3729 16.9521 10.205 17.6273 10.6769 18.3102C11.2574 19.1505 12.2613 19.173 13.0681 19.191C13.1444 19.1928 13.2199 19.1944 13.294 19.1968C13.2976 19.1969 13.301 19.1973 13.3046 19.1975C13.9624 19.4452 14.0937 19.9554 14.22 20.4494L14.2417 20.5338C14.2541 20.5815 14.2757 20.6262 14.3054 20.6655C14.3351 20.7048 14.3722 20.7379 14.4147 20.7628C14.4572 20.7878 14.5041 20.8041 14.5529 20.8109C14.6017 20.8177 14.6513 20.8148 14.699 20.8024C14.7466 20.7901 14.7914 20.7684 14.8307 20.7387C14.87 20.709 14.903 20.6719 14.928 20.6294C14.9529 20.587 14.9693 20.54 14.9761 20.4913C14.9829 20.4425 14.98 20.3928 14.9676 20.3452L14.9467 20.2637C14.8868 19.9986 14.7991 19.7406 14.6851 19.4939C14.9219 19.5907 15.1514 19.7046 15.3717 19.8347C15.4141 19.8596 15.4611 19.876 15.5099 19.8827C15.5587 19.8895 15.6083 19.8866 15.656 19.8742C15.7037 19.8618 15.7484 19.8401 15.7877 19.8104C15.827 19.7807 15.86 19.7435 15.8849 19.701C15.9353 19.6152 15.9495 19.513 15.9244 19.4167C15.8993 19.3204 15.8371 19.2381 15.7513 19.1877C15.0193 18.7313 14.1799 18.4758 13.3178 18.4471C13.2414 18.4447 13.1637 18.443 13.0849 18.4411C12.3828 18.4254 11.6569 18.4092 11.294 17.8838C11.0281 17.499 11.1037 17.1214 11.2488 16.5374C11.3289 16.2529 11.3813 15.9614 11.4052 15.6669C11.4107 15.5576 11.4104 15.4498 11.4064 15.3428C11.7699 15.6937 12.1967 15.9725 12.664 16.1644C12.7561 16.2017 12.8592 16.2008 12.9507 16.1621C13.0421 16.1235 13.1145 16.0501 13.152 15.9581C13.1894 15.8661 13.1888 15.763 13.1503 15.6714C13.1119 15.5799 13.0387 15.5073 12.9468 15.4697C11.8738 15.0328 11.2594 14.081 10.9318 13.3553C10.7323 12.8147 10.2765 11.693 9.65213 10.1566C9.08606 8.76335 8.40486 7.08666 7.67116 5.24587C8.36688 5.72662 9.19612 5.97653 10.0416 5.96024C10.1411 5.96024 10.2365 5.92072 10.3068 5.85039C10.3771 5.78006 10.4167 5.68468 10.4167 5.58522Z" fill="#B8D958" stroke="#B8D958" stroke-width="0.2"/>
</g>
<defs>
<clipPath id="clip0">
<rect width="24" height="24" fill="white"/>
</clipPath>
</defs>
</svg>
