<svg width="24" height="24" viewBox="0 0 24 24" fill="none" xmlns="http://www.w3.org/2000/svg">
<g clip-path="url(#clip0)">
<path d="M7.22862 5.6053C7.2973 5.67392 7.3873 5.70823 7.47725 5.70823C7.5672 5.70823 7.6572 5.67392 7.72587 5.6053C7.86317 5.46795 7.86317 5.24539 7.72587 5.10809L2.72469 0.106905C2.58734 -0.0303452 2.36478 -0.0303452 2.22748 0.106905C2.09019 0.244249 2.09019 0.466811 2.22748 0.604108L7.22862 5.6053Z" fill="#B8D958" stroke="#B8D958" stroke-width="0.2"/>
<path d="M7.81938 8.81658C8.22611 9.22336 8.39402 9.80682 8.25761 10.3392C8.11272 10.9043 8.28349 11.5066 8.7033 11.911C9.01638 12.2127 9.42194 12.3653 9.8284 12.3653C10.1919 12.3653 10.556 12.2432 10.8552 11.9965C11.2663 11.6576 11.4806 11.1562 11.4442 10.6339C11.9661 10.6701 12.4668 10.4564 12.8057 10.0463C13.3286 9.41358 13.2933 8.48878 12.7237 7.89521C12.3183 7.47286 11.7139 7.30139 11.1465 7.44802C10.6166 7.5848 10.0346 7.41656 9.62697 7.00899L8.71774 6.09975C8.5804 5.9625 8.35783 5.9625 8.22054 6.09975C8.08324 6.2371 8.08324 6.45966 8.22054 6.59696L9.12977 7.50619C9.71261 8.08899 10.5529 8.32753 11.3223 8.12878C11.6489 8.04446 11.9832 8.13914 12.2163 8.38205C12.5335 8.71247 12.5542 9.24671 12.2637 9.59827C12.0542 9.85172 11.7361 9.97308 11.413 9.92344C11.2262 9.89447 11.0354 9.95743 10.9016 10.0913C10.7678 10.225 10.7051 10.4162 10.7338 10.6024C10.7838 10.9261 10.662 11.2444 10.4079 11.454C10.0557 11.7444 9.52122 11.7227 9.19118 11.4046C8.94972 11.172 8.85532 10.839 8.93871 10.5137C9.13652 9.7418 8.89816 8.90096 8.31663 8.31933L0.609209 0.612093C0.471865 0.474843 0.249303 0.474843 0.112006 0.612093C-0.025291 0.749437 -0.025291 0.971999 0.112006 1.1093L7.81938 8.81658Z" fill="#B8D958" stroke="#B8D958" stroke-width="0.2"/>
<path d="M16.712 10.6146C16.5997 10.0555 16.2147 9.59444 15.6822 9.38125C15.1582 9.17144 14.5718 9.23758 14.1132 9.55881L14.0844 9.57935C13.8021 9.78306 13.5942 10.0636 13.4832 10.3907C12.7424 12.5742 11.2955 13.6495 10.2122 14.167C9.6698 14.4261 9.38016 14.9806 9.47438 15.5796C9.56715 16.1694 10.0059 16.6014 10.5922 16.6802C10.7342 16.6992 11.4207 16.7007 11.5422 16.6923C11.6923 16.682 11.834 16.7317 11.9414 16.832C12.0435 16.9274 12.0998 17.057 12.0998 17.197V23.6485C12.0998 23.8427 12.2571 24.0001 12.4513 24.0001C12.6455 24.0001 12.8029 23.8427 12.8029 23.6485V17.197C12.8029 16.8601 12.6674 16.548 12.4213 16.3182C12.1737 16.0869 11.8362 15.9672 11.4945 15.9908C11.3915 15.9979 10.782 15.994 10.6858 15.9833C10.3574 15.9393 10.2035 15.6894 10.1691 15.4704C10.1334 15.244 10.2057 14.9495 10.5154 14.8015C11.7208 14.2257 13.3297 13.0322 14.1492 10.6166C14.212 10.4314 14.3352 10.2656 14.4958 10.1497L14.5175 10.1343C14.7842 9.94746 15.1136 9.91103 15.4211 10.0341C15.7324 10.1587 15.9573 10.4275 16.0228 10.7531C16.2684 11.9761 15.7288 13.3165 14.6478 14.1682C14.3531 14.4004 14.184 14.7475 14.184 15.1203V23.6486C14.184 23.8428 14.3414 24.0001 14.5356 24.0001C14.7298 24.0001 14.8871 23.8428 14.8871 23.6486V15.1203C14.8871 14.9642 14.9585 14.8185 15.083 14.7204C16.3699 13.7064 17.0093 12.0948 16.712 10.6146Z" fill="#B8D958" stroke="#B8D958" stroke-width="0.2"/>
<path d="M9.22734 18.163C9.18355 17.9738 8.99488 17.856 8.80555 17.8998C8.61641 17.9436 8.49852 18.1325 8.54235 18.3216C8.90334 19.8811 9.10551 21.6757 9.14319 23.6553C9.14685 23.8471 9.30351 24.0001 9.49457 24.0001C9.49687 24.0001 9.49916 24.0001 9.50141 24.0001C9.69557 23.9964 9.84993 23.836 9.84623 23.6419C9.80756 21.6135 9.59934 19.7701 9.22734 18.163Z" fill="#0088CC" stroke="#0088CC" stroke-width="0.2"/>
<path d="M8.86057 16.8177C7.96686 13.9985 6.47515 12.033 4.42695 10.9755C2.89043 10.1822 1.79726 8.99986 1.17781 7.46128C0.714684 6.31102 0.702824 5.37774 0.702637 5.35631C0.702449 5.1623 0.545137 5.00513 0.351074 5.00513C0.156871 5.00513 -0.000488281 5.16249 -0.000488281 5.35669C-0.000488281 5.39935 0.00537105 6.41625 0.51373 7.6943C0.982387 8.87245 1.9857 10.5064 4.10445 11.6003C5.98048 12.5688 7.35518 14.3957 8.19036 17.0302C8.23784 17.1799 8.37626 17.2755 8.52537 17.2755C8.56057 17.2755 8.59639 17.2703 8.63173 17.259C8.81675 17.2004 8.91926 17.0028 8.86057 16.8177Z" fill="#0088CC" stroke="#0088CC" stroke-width="0.2"/>
<path d="M22.0215 17.204H21.3167V16.4992C21.3167 16.1941 21.0685 15.9459 20.7634 15.9459H19.6165C19.3115 15.9459 19.0633 16.1941 19.0633 16.4992V17.204H18.3584C18.0534 17.204 17.8052 17.4522 17.8052 17.7573V18.9042C17.8052 19.2093 18.0534 19.4575 18.3584 19.4575H19.0633V20.1622C19.0633 20.4673 19.3115 20.7155 19.6165 20.7155H20.7634C21.0685 20.7155 21.3167 20.4673 21.3167 20.1622V19.4575H22.0215C22.3266 19.4575 22.5748 19.2093 22.5748 18.9042V17.7573C22.5748 17.4522 22.3266 17.204 22.0215 17.204ZM21.8717 18.7543H21.1669C20.8618 18.7543 20.6136 19.0025 20.6136 19.3076V20.0124H19.7664V19.3076C19.7664 19.0025 19.5182 18.7543 19.2131 18.7543H18.5083V17.9071H19.2131C19.5182 17.9071 19.7664 17.6589 19.7664 17.3539V16.649H20.6136V17.3539C20.6136 17.6589 20.8618 17.9071 21.1669 17.9071H21.8717V18.7543Z" fill="#B8D958" stroke="#B8D958" stroke-width="0.2"/>
<path d="M20.19 14.5212C19.6693 14.5212 19.1727 14.6262 18.7203 14.8162V12.5129C18.7203 10.4328 18.1725 8.38004 17.1362 6.57648C16.1 4.77297 14.6023 3.26599 12.8053 2.21847L9.08142 0.0478826C8.91366 -0.0498516 8.69846 0.00677329 8.60063 0.174539C8.50285 0.342304 8.55956 0.557553 8.72728 0.655334L12.4511 2.82597C14.1421 3.81166 15.5514 5.22972 16.5265 6.92682C17.5016 8.62393 18.0171 10.5555 18.0171 12.5129V15.2032C17.0285 15.8921 16.3804 17.0372 16.3804 18.3308C16.3804 19.6244 17.0285 20.7695 18.0171 21.4584V23.6484C18.0171 23.8426 18.1744 24 18.3687 24C18.5629 24 18.7202 23.8426 18.7202 23.6484V21.8454C19.1727 22.0354 19.6693 22.1404 20.19 22.1404C20.8349 22.1404 21.4729 21.9755 22.0349 21.6638C22.2047 21.5697 22.266 21.3557 22.1718 21.1859C22.0776 21.0161 21.8636 20.9546 21.6939 21.049C21.2359 21.303 20.7159 21.4372 20.19 21.4372C18.4771 21.4372 17.0835 20.0437 17.0835 18.3308C17.0835 16.6179 18.4771 15.2243 20.19 15.2243C21.9029 15.2243 23.2965 16.6179 23.2965 18.3308C23.2965 19.0213 23.0742 19.6752 22.6536 20.2221C22.5352 20.3761 22.5641 20.5968 22.7179 20.7152C22.8719 20.8335 23.0926 20.8047 23.211 20.6508C23.7269 19.9798 23.9996 19.1776 23.9996 18.3308C23.9996 16.2302 22.2906 14.5212 20.19 14.5212Z" fill="#0088CC" stroke="#0088CC" stroke-width="0.2"/>
</g>
<defs>
<clipPath id="clip0">
<rect width="24" height="24" fill="white"/>
</clipPath>
</defs>
</svg>
