<svg width="24" height="24" viewBox="0 0 24 24" fill="none" xmlns="http://www.w3.org/2000/svg">
<g clip-path="url(#clip0)">
<path d="M21.9148 4.49964C21.9369 4.43791 21.9548 4.37472 21.9684 4.31059C21.9894 4.20841 22 4.10434 22 4.00005C21.9997 3.7187 21.9243 3.44256 21.7817 3.20003C21.7849 3.19446 21.7871 3.18841 21.7903 3.18278C21.8158 3.1376 21.8388 3.09157 21.8598 3.04399C21.8715 3.01816 21.8817 2.99205 21.8919 2.96566C21.907 2.92577 21.9217 2.88607 21.9337 2.84491C21.9455 2.80497 21.9541 2.76428 21.9627 2.7235C21.9693 2.692 21.9773 2.66111 21.982 2.62905C21.9936 2.55325 21.9996 2.47671 22 2.40002C21.9944 1.63001 21.4434 0.97221 20.6863 0.831679C20.3305 0.496757 19.8403 0.34432 19.3573 0.418383C18.8743 0.492445 18.4523 0.784804 18.2133 1.21099C17.5572 1.28899 17.0162 1.76135 16.8504 2.40086C16.2593 2.38816 15.7084 2.69875 15.4132 3.211C15.0546 3.25258 14.7209 3.41547 14.4676 3.67272C14.4513 3.66752 14.434 3.66719 14.4175 3.66255C14.3556 3.64605 14.2929 3.63335 14.2295 3.62444C14.1791 3.61699 14.1294 3.61085 14.0785 3.60836C14.0521 3.60705 14.0266 3.60002 14 3.60002C13.9832 3.60222 13.9665 3.6056 13.9502 3.61005C13.6867 3.61619 13.4289 3.68777 13.2 3.81836C12.8169 3.59336 12.3566 3.54044 11.9324 3.67267C11.4279 3.18058 10.6642 3.06864 10.0398 3.39531C9.77812 3.07127 9.40054 2.86183 8.9871 2.8113C8.79946 2.48097 8.50068 2.22799 8.14396 2.0974C8.13993 2.09585 8.13731 2.09243 8.13323 2.09102C8.03475 2.05774 7.93317 2.0344 7.83 2.02141C7.81514 2.01921 7.80168 2.01274 7.78673 2.01091C7.56656 1.62236 7.19414 1.34341 6.75937 1.24137C6.63286 0.684023 6.21769 0.237024 5.67122 0.0697739C5.1247 -0.097382 4.53047 0.0406646 4.11371 0.431695C3.35663 0.572226 2.80561 1.23007 2.80004 2.00004C2.80102 2.09369 2.81049 2.18707 2.82825 2.27904C2.83327 2.30749 2.83885 2.33538 2.84541 2.36332C2.86215 2.43405 2.88375 2.50352 2.9101 2.57125C2.9274 2.6163 2.94797 2.65896 2.96916 2.70194C2.98547 2.73471 2.99982 2.76836 3.01838 2.80005C2.76647 3.22511 2.73043 3.74425 2.92111 4.20006C2.73043 4.65587 2.76652 5.17501 3.01838 5.60008C2.73568 6.07956 2.72691 6.67262 2.99532 7.16021C2.62027 7.46275 2.4016 7.91823 2.40001 8.40006C2.39982 8.55835 2.42424 8.71566 2.47238 8.86646C2.32412 9.01374 2.20608 9.18859 2.12494 9.38115C2.10507 9.42821 2.09457 9.47884 2.07933 9.52777C2.06105 9.57784 2.04535 9.62883 2.03237 9.68058C1.91274 10.2648 2.1301 10.8669 2.59533 11.24C2.32693 11.7276 2.33569 12.3206 2.6184 12.8001C2.59983 12.8318 2.58549 12.8655 2.56918 12.8982C2.54799 12.9412 2.52736 12.9839 2.51011 13.0289C2.48377 13.0966 2.46216 13.1661 2.44543 13.2368C2.43886 13.2648 2.43333 13.2927 2.42827 13.3211C2.41051 13.4131 2.40104 13.5065 2.40001 13.6001C2.4016 14.082 2.62027 14.5374 2.99532 14.84C2.57616 15.6047 2.85268 16.5643 3.61444 16.9888C3.60474 17.0588 3.59991 17.1294 3.6 17.2001C3.60099 18.0112 4.20788 18.6936 5.01328 18.7892C5.25028 19.2128 5.66845 19.5045 6.14794 19.5806C6.62742 19.6566 7.11529 19.5087 7.47178 19.1792C7.44454 19.418 7.35914 19.6465 7.22306 19.8447C6.96347 20.2505 6.81736 20.7186 6.80001 21.2001C6.82387 21.6465 6.98747 22.074 7.26759 22.4224C7.3094 22.4853 7.35121 22.5481 7.39101 22.6118C7.46643 22.7336 7.6012 22.8057 7.74431 22.801C7.88742 22.7962 8.01712 22.7153 8.08434 22.5889C8.15156 22.4625 8.14603 22.3097 8.0699 22.1884C8.02575 22.1177 7.97929 22.0482 7.93317 21.9786C7.74679 21.7583 7.63073 21.4871 7.59993 21.2001C7.61967 20.8535 7.73156 20.5183 7.92417 20.2295C8.24357 19.7814 8.33864 19.2112 8.18184 18.6838C8.42217 18.5906 8.63648 18.4407 8.80645 18.2469C9.16349 18.5486 9.60135 18.7387 10.0656 18.7935C10.0216 19.0602 9.99965 19.33 9.99993 19.6002C9.97485 20.471 10.1718 21.3339 10.5722 22.1076C10.6988 22.3185 10.7766 22.5552 10.7999 22.8002C10.7999 23.4629 11.3371 24.0002 11.9999 24.0002C12.6627 24.0002 13.1999 23.4629 13.1999 22.8002C13.2231 22.5547 13.301 22.3175 13.4276 22.106C13.64 21.6922 13.7955 21.2517 13.8901 20.7963C13.9737 20.8025 14.0576 20.8014 14.1409 20.7931C14.1497 20.801 14.1601 20.8061 14.1691 20.8137C14.4555 21.0615 14.8212 21.1986 15.1999 21.2001C15.2459 21.199 15.2914 21.1898 15.3343 21.173C15.6757 21.1508 16.0004 21.0173 16.2589 20.7931C16.5115 20.8179 16.7663 20.7788 16.9999 20.6794C17.1898 20.7591 17.3938 20.8002 17.5999 20.8001C18.1743 20.7988 18.7038 20.4892 18.9866 19.9892C19.0112 19.9863 19.0338 19.978 19.0581 19.974C19.1042 19.9664 19.1488 19.9567 19.1935 19.9453C19.2476 19.9316 19.3008 19.9151 19.3531 19.8957C19.3957 19.8799 19.4373 19.8631 19.4782 19.8438C19.5277 19.8201 19.5761 19.7938 19.6229 19.7652C19.6611 19.7421 19.6987 19.719 19.7347 19.6929C19.779 19.66 19.8215 19.625 19.8621 19.5877C19.8948 19.5585 19.9276 19.5302 19.9578 19.4984C19.9958 19.457 20.0316 19.4136 20.0651 19.3684C20.0911 19.3345 20.1182 19.3021 20.1416 19.2662C20.1726 19.2158 20.2009 19.1638 20.2262 19.1102C20.2443 19.074 20.2649 19.0396 20.2803 19.0019C20.3042 18.9395 20.324 18.8755 20.3398 18.8106C20.3488 18.7771 20.3616 18.7456 20.3684 18.7114C20.389 18.6089 20.3995 18.5047 20.3998 18.4002C20.3999 18.3295 20.3951 18.2589 20.3853 18.1889C20.7109 18.0041 20.9616 17.7111 21.0939 17.3608C21.0982 17.3511 21.1052 17.3436 21.1088 17.3334C21.1154 17.3147 21.1178 17.295 21.1237 17.2761C21.1386 17.2289 21.1505 17.1809 21.161 17.1321C21.1672 17.103 21.1746 17.0742 21.1791 17.0447C21.1923 16.9639 21.1993 16.8821 21.1998 16.8002C21.1999 16.7295 21.1951 16.6589 21.1854 16.5889C21.6872 16.3065 21.9983 15.7761 21.9999 15.2002C21.9993 14.9942 21.9581 14.7904 21.8788 14.6002C22.0402 14.2165 22.0402 13.784 21.8788 13.4002C21.9581 13.2101 21.9993 13.0063 21.9999 12.8003C21.999 12.7029 21.9893 12.6059 21.9707 12.5103C21.9678 12.4956 21.9634 12.4813 21.9602 12.4667C21.9414 12.3792 21.9151 12.2934 21.8818 12.2103C21.8805 12.207 21.8801 12.2035 21.8787 12.2003C22.1132 11.6386 22.0017 10.9921 21.5928 10.5413C21.5975 10.4936 21.5998 10.4467 21.5998 10.4003C21.5995 10.3236 21.5935 10.247 21.5818 10.1712C21.5772 10.1392 21.5691 10.1083 21.5626 10.0768C21.554 10.036 21.5454 9.9953 21.5335 9.95536C21.5216 9.91421 21.5069 9.87446 21.4917 9.83461C21.4816 9.80822 21.4713 9.78212 21.4597 9.75629C21.4387 9.70871 21.4156 9.66268 21.3902 9.61749C21.387 9.61191 21.3848 9.60582 21.3815 9.60024C21.6727 9.10665 21.6727 8.49385 21.3815 8.00026C21.5242 7.75778 21.5995 7.48159 21.5999 7.20024C21.5998 7.12 21.5935 7.03989 21.581 6.96062C21.569 6.88314 21.5513 6.80664 21.528 6.73178C22.0447 6.22192 22.1492 5.42622 21.7815 4.80025C21.8215 4.73242 21.8562 4.66164 21.8854 4.58852C21.8945 4.56569 21.9019 4.54187 21.9148 4.49964ZM10.2719 18.0125C9.85471 17.9892 9.46115 17.8114 9.16799 17.5137L9.16809 17.5129C9.30613 16.8358 8.98949 16.1473 8.38556 15.8114C8.39526 15.7413 8.40009 15.6707 8.39999 15.6C8.39906 15.5047 8.38945 15.4095 8.37126 15.3158C8.36578 15.2856 8.3586 15.2563 8.35143 15.2266C8.3362 15.1645 8.31721 15.1034 8.29448 15.0435C8.28295 15.0126 8.2731 14.9813 8.2597 14.9513C8.22675 14.878 8.18831 14.8072 8.14471 14.7397C8.11874 14.6993 8.0887 14.6626 8.05935 14.6247C8.0362 14.5951 8.01295 14.566 7.98787 14.5381C7.95215 14.4978 7.91446 14.4594 7.8749 14.4229C7.85686 14.4065 7.83735 14.392 7.8186 14.3764C7.72682 14.2997 7.62675 14.2335 7.5202 14.1792C7.51162 14.1748 7.50393 14.1691 7.49531 14.1649C7.5645 13.9846 7.59998 13.7932 7.59998 13.6C7.59993 13.4924 7.58901 13.3849 7.56736 13.2795C8.02968 14.0922 8.83973 14.6476 9.76452 14.7859C9.6478 15.1798 9.59231 15.5893 9.59999 16.0001C9.59999 16.221 9.77905 16.4001 9.99998 16.4001C10.2209 16.4001 10.4 16.221 10.4 16.0001C10.4 15.0505 10.673 14.6966 10.6914 14.6739C10.6978 14.667 10.6999 14.658 10.7058 14.6509C10.9486 14.5649 11.2136 14.4494 11.5097 14.3192C12.2832 13.9148 13.13 13.6703 14 13.6C15.582 13.6 15.955 14.0047 16.0422 14.1789C16.1412 14.376 16.3812 14.4556 16.5784 14.357C16.7757 14.2583 16.8559 14.0186 16.7578 13.8211C16.4191 13.1434 15.491 12.8 14 12.8C13.019 12.8679 12.0621 13.1356 11.1883 13.5867C10.8153 13.7836 10.4147 13.9229 10 14C8.93596 13.9079 8.09221 13.0641 8.00001 12C8.00001 10.7594 10.0457 10.3981 10.0664 10.3945C10.2714 10.3599 10.4158 10.174 10.3984 9.96675C10.3811 9.75952 10.2079 9.60015 9.99998 9.60001C9.44648 9.60001 8.39999 9.34923 8.39999 8.40001C8.39999 8.17909 8.22093 8.00003 8.00001 8.00003C7.77909 8.00003 7.60003 8.17909 7.60003 8.40001C7.59436 9.09549 7.98126 9.73477 8.60001 10.0523C7.90509 10.4039 7.2 11.0059 7.2 12C7.20215 12.233 7.23895 12.4643 7.30922 12.6864C7.25526 12.6082 7.19437 12.5349 7.12739 12.4676C7.17572 12.3164 7.20014 12.1587 7.2 12C7.20033 11.6363 7.07629 11.2835 6.84848 11C7.14342 10.6362 7.26117 10.16 7.16976 9.70069C7.16353 9.66774 7.15298 9.6368 7.14464 9.6046C7.12917 9.54122 7.10976 9.47888 7.08656 9.4179C7.07282 9.38288 7.05661 9.34974 7.04053 9.31599C7.01475 9.26133 6.98587 9.20818 6.954 9.1568C6.93379 9.12441 6.91289 9.09319 6.89048 9.06244C6.87567 9.04215 6.86423 9.01965 6.84844 9.00001C7.31808 8.41473 7.31709 7.58148 6.84609 6.99728C6.89765 6.93132 6.94401 6.86143 6.98475 6.78831C6.99248 6.78732 7.00036 6.78475 7.00804 6.78367C7.06533 6.77546 7.12214 6.76412 7.17815 6.74973C7.18551 6.74786 7.19259 6.74734 7.2 6.74537C7.37578 6.79487 7.55929 6.81104 7.74103 6.79304C8.06639 7.09018 8.50246 7.23554 8.94102 7.19303C9.22668 7.4454 9.59287 7.58785 9.97396 7.59479C9.98305 7.5954 9.99074 7.60004 9.99998 7.60004C10.0145 7.60004 10.0285 7.59704 10.043 7.59667C10.0808 7.59578 10.1184 7.59142 10.1563 7.58776C10.1936 7.58406 10.2312 7.58237 10.2678 7.57613L10.2757 7.57426C10.3409 7.56292 10.4052 7.54754 10.4684 7.52818C10.9848 8.03171 11.7711 8.13493 12.4 7.78173C13.0292 8.13516 13.816 8.03162 14.3324 7.52743C14.5267 7.58804 14.7311 7.60942 14.9337 7.59024C14.8447 7.81782 14.8001 8.06031 14.8021 8.30462C14.1837 8.1961 13.5628 8.48138 13.2422 9.02115C13.144 9.21868 13.2242 9.4584 13.4215 9.55702C13.6188 9.65565 13.8587 9.57601 13.9578 9.37894C13.96 9.37426 14.1807 8.97155 14.8905 9.13346C15.1677 10.1587 16.043 10.4001 16.8 10.4001C17.0209 10.4001 17.2 10.221 17.2 10.0001C17.2 9.77916 17.0209 9.6001 16.8 9.6001C15.7453 9.6001 15.6 9.02354 15.6 8.4001C15.6 8.06438 15.6073 7.79101 16.1883 7.18281C16.7269 7.2496 17.2632 7.04284 17.6176 6.63175C17.6373 6.75821 17.672 6.88192 17.7211 7.00009C17.6418 7.19021 17.6007 7.39407 17.6 7.60009C17.5997 7.96374 17.7237 8.31662 17.9516 8.60007C17.5373 9.11405 17.4843 9.83072 17.8183 10.4001C17.8151 10.4056 17.8129 10.4117 17.8097 10.4173C17.7842 10.4626 17.7611 10.5087 17.7401 10.5563C17.7285 10.582 17.7183 10.608 17.7082 10.6342C17.693 10.6741 17.6783 10.714 17.6663 10.7552C17.6545 10.7951 17.6459 10.8356 17.6373 10.8763C17.6307 10.908 17.6226 10.939 17.618 10.9712C17.6064 11.047 17.6004 11.1235 17.6 11.2001C17.6 11.2091 17.6026 11.2179 17.6028 11.2269C16.1524 10.3804 14.4544 10.0606 12.7955 10.3215C12.7022 9.27319 11.8511 8.45373 10.8 8.4001C10.5791 8.4001 10.4001 8.57916 10.4001 8.80009C10.4001 9.02101 10.5792 9.20007 10.8 9.20007C11.4385 9.25533 11.9448 9.76163 12 10.4001C12 10.9965 11.3129 11.6001 10 11.6001C9.7791 11.6001 9.60004 11.7791 9.60004 12C9.60004 12.221 9.7791 12.4 10 12.4C11.4106 12.4 12.2559 11.8421 12.6075 11.165C13.1475 11.0592 15.6588 10.6825 17.6187 12.214C17.6087 12.2756 17.6024 12.3377 17.6 12.4C17.5997 12.7637 17.7237 13.1166 17.9516 13.4C17.9358 13.4197 17.9243 13.4421 17.9095 13.4625C17.8871 13.4932 17.8662 13.5244 17.846 13.5568C17.8142 13.6082 17.7852 13.6613 17.7595 13.716C17.7433 13.7497 17.7271 13.7829 17.7134 13.8179C17.6902 13.8789 17.6709 13.9412 17.6554 14.0046C17.6471 14.0368 17.6365 14.0677 17.6303 14.1007C17.5547 14.4778 17.6217 14.8695 17.8184 15.2C17.7377 15.3373 17.6781 15.486 17.6418 15.641C17.1712 15.7523 16.7757 16.0695 16.5649 16.5047L16.5602 16.5034C16.5509 16.4999 16.5426 16.4947 16.5332 16.4914C16.5223 16.4875 16.5112 16.4896 16.5002 16.4867C16.1536 16.3705 15.7776 16.3769 15.4352 16.5047C15.1692 15.9534 14.6121 15.6022 14 15.6C13.6406 15.5587 13.3251 15.3419 13.1578 15.0211C13.0941 14.8929 12.9667 14.8085 12.8239 14.7998C12.681 14.7912 12.5443 14.8595 12.4655 14.979C12.3868 15.0985 12.3778 15.251 12.4422 15.3789C12.4857 15.4611 12.5352 15.5399 12.5903 15.6148C12.0748 15.6849 11.6254 16.001 11.3852 16.4625L11.3781 16.4672L11.377 16.468L11.3751 16.4693C11.3698 16.4729 11.3576 16.4816 11.3408 16.494L11.3332 16.4998C10.8455 16.8954 10.478 17.4193 10.2719 18.0125ZM21.0879 14.8016C21.1604 14.9219 21.1991 15.0596 21.2 15.2001C21.1986 15.4523 21.0774 15.6889 20.8735 15.8374C20.6858 15.5866 20.4282 15.3967 20.1332 15.2915C19.9252 15.2188 19.6976 15.328 19.6243 15.5357C19.5509 15.7434 19.6593 15.9713 19.8668 16.0454C20.0922 16.1267 20.2693 16.3049 20.3493 16.5309C20.3564 16.5505 20.3614 16.5703 20.367 16.59C20.4633 16.9059 20.345 17.2479 20.0741 17.4369C20.0126 17.3539 19.9432 17.277 19.8668 17.2075C19.7021 17.0601 19.4493 17.0741 19.3019 17.2387C19.1546 17.4034 19.1686 17.6563 19.3332 17.8036C19.4342 17.8957 19.5098 18.0124 19.5527 18.1422C19.5652 18.1759 19.5755 18.2103 19.5835 18.2453C19.6318 18.4788 19.5726 18.7216 19.4223 18.9065C19.2719 19.0914 19.0462 19.199 18.8079 19.1992C18.7919 19.1974 18.7589 19.1941 18.7484 19.1934C18.5694 19.178 18.4039 19.2896 18.3512 19.4614C18.2719 19.6845 18.0979 19.8611 17.8759 19.9434C17.6539 20.0258 17.4067 20.0054 17.2012 19.8879C17.0769 19.8153 16.9231 19.8153 16.7989 19.8879C16.6255 20.0012 16.4112 20.0329 16.2125 19.9746C16.0644 19.938 15.9084 19.9896 15.8114 20.1074C15.6576 20.2846 15.4346 20.3863 15.2 20.3863C14.9655 20.3863 14.7425 20.2846 14.5887 20.1074C14.5865 20.1048 14.5835 20.1032 14.5812 20.1006C14.3314 19.7981 14.341 19.3582 14.6036 19.0668C14.6989 18.9603 14.7302 18.8111 14.6856 18.6753C14.641 18.5395 14.5274 18.4378 14.3876 18.4085C14.2477 18.3792 14.1028 18.4267 14.0075 18.5332C13.6725 18.9046 13.5328 19.4124 13.6307 19.9029C13.5454 19.8601 13.4684 19.8026 13.4032 19.7329C13.3081 19.6251 13.1625 19.5766 13.0219 19.6059C12.8811 19.6351 12.767 19.7376 12.7227 19.8744C12.6785 20.0111 12.711 20.1611 12.8079 20.2672C12.9013 20.3709 13.0078 20.462 13.1247 20.5382C13.0476 20.9643 12.9065 21.3762 12.7063 21.7602C12.5234 22.0777 12.4185 22.4341 12.4001 22.8C12.4001 23.021 12.2211 23.2 12.0001 23.2C11.7792 23.2 11.6001 23.021 11.6001 22.8C11.5819 22.4342 11.4768 22.0781 11.2935 21.761C10.9461 21.095 10.7762 20.3508 10.8001 19.6C10.7976 19.208 10.856 18.8179 10.973 18.4437C11.0159 18.3054 11.0681 18.1701 11.1291 18.0387C11.1334 18.0296 11.1374 18.0196 11.1418 18.0106C11.1757 17.9407 11.2107 17.8753 11.2461 17.8144L11.2566 17.7966C11.348 17.6406 11.4552 17.4944 11.5764 17.3602L11.5821 17.3539C11.6338 17.2973 11.6888 17.2437 11.7466 17.1934C11.7663 17.1886 11.7856 17.1823 11.8043 17.1746C11.8181 17.1709 11.8316 17.1665 11.8449 17.1614C11.8674 17.1497 11.8888 17.136 11.9088 17.1203C11.9161 17.1149 11.9248 17.1113 11.9318 17.1054C11.9531 17.0865 11.9724 17.0654 11.9893 17.0425C11.9931 17.0375 11.9982 17.0338 12.0018 17.0286C12.0222 16.9994 12.0386 16.9676 12.0506 16.9341C12.1401 16.6907 12.3423 16.5062 12.5928 16.4391C12.5532 16.5123 12.5193 16.5884 12.4916 16.6669C12.4435 16.8017 12.4711 16.952 12.564 17.0609C12.6569 17.1697 12.8009 17.2206 12.9417 17.1943C13.0824 17.168 13.1983 17.0684 13.2455 16.9333C13.3172 16.7391 13.4619 16.5807 13.6488 16.4918C13.6921 16.4687 13.7373 16.4494 13.7839 16.434C13.854 16.4127 13.9268 16.4013 14.0001 16.4C14.4188 16.4028 14.7644 16.728 14.7927 17.1457C14.8032 17.2991 14.9007 17.4329 15.0434 17.4899C15.1862 17.5469 15.349 17.5169 15.4622 17.4129C15.7355 17.1755 16.1321 17.1451 16.4383 17.3382C16.4661 17.3564 16.4928 17.3764 16.5181 17.398C16.6952 17.5481 16.7982 17.7679 16.8001 18C16.8001 18.221 16.9792 18.4 17.2001 18.4C17.421 18.4 17.6001 18.221 17.6001 18C17.5986 17.6311 17.4693 17.274 17.2342 16.9896C17.3281 16.6434 17.6413 16.4023 18.0001 16.4C18.1062 16.4001 18.208 16.358 18.283 16.2829C18.3581 16.2079 18.4002 16.1061 18.4001 16C18.4014 15.8029 18.4758 15.6132 18.6087 15.4676C18.7458 15.3156 18.7458 15.0845 18.6087 14.9324C18.4298 14.7414 18.3598 14.4727 18.4227 14.2186C18.4267 14.2013 18.4333 14.185 18.4384 14.1681C18.4507 14.127 18.4663 14.0871 18.485 14.0485C18.4936 14.0311 18.503 14.0142 18.5128 13.9975C18.5353 13.9594 18.561 13.9233 18.5895 13.8894C18.5994 13.8776 18.6083 13.8651 18.6188 13.8539C18.6609 13.8085 18.7081 13.7682 18.7594 13.7336C18.8898 13.6469 19.0435 13.6001 19.2001 13.6C19.421 13.6 19.6001 13.421 19.6001 13.2C19.6001 12.9791 19.4209 12.8001 19.2001 12.8001C18.9929 12.8004 18.7878 12.8412 18.5963 12.9202C18.4704 12.7762 18.4007 12.5914 18.4001 12.4001C18.4009 12.2596 18.4397 12.122 18.5122 12.0016C18.5845 11.877 18.5845 11.7232 18.5122 11.5985C18.4397 11.4782 18.4009 11.3406 18.4001 11.2001C18.4016 11.1283 18.4128 11.057 18.4334 10.9883C18.4385 10.9703 18.4425 10.9522 18.4489 10.9347C18.4697 10.8777 18.4969 10.8233 18.5299 10.7725C18.5472 10.7467 18.566 10.7217 18.586 10.6979C18.6763 10.5834 18.7965 10.496 18.9333 10.4454C19.1407 10.3713 19.2491 10.1434 19.1757 9.93573C19.1023 9.72802 18.8748 9.61885 18.6669 9.69151C18.585 9.72066 18.5056 9.75647 18.4295 9.79862C18.411 9.73402 18.4011 9.66727 18.4001 9.6001C18.4001 9.33165 18.5351 9.08124 18.7594 8.93373C18.8712 8.85952 18.9384 8.73427 18.9384 8.60012C18.9384 8.46596 18.8712 8.34071 18.7594 8.26651C18.5351 8.11899 18.4001 7.86854 18.4001 7.60014C18.4009 7.45965 18.4396 7.32203 18.5122 7.2017C18.5845 7.07706 18.5845 6.92321 18.5122 6.79857C18.4396 6.67825 18.4009 6.54062 18.4001 6.40014C18.4001 6.38228 18.4039 6.36423 18.4053 6.34632C18.4398 6.33718 18.4729 6.32476 18.5065 6.31337C18.5154 6.31089 18.5244 6.31187 18.5332 6.30873C18.5505 6.30264 18.5658 6.2934 18.5827 6.28675C18.615 6.27395 18.6463 6.25942 18.6776 6.24456C18.7185 6.22534 18.7592 6.20626 18.7979 6.1839C18.8117 6.17589 18.8245 6.16642 18.838 6.15798C19.0644 6.01801 19.2522 5.82372 19.3844 5.59276L19.3868 5.58915C19.5058 5.57547 19.6229 5.5479 19.7356 5.50712C19.9196 5.44201 20.0292 5.25292 19.9941 5.06092C19.959 4.86887 19.7897 4.73073 19.5945 4.73491C19.5894 4.57553 19.5606 4.4178 19.509 4.26691C19.4352 4.05888 19.2069 3.94994 18.9987 4.02344C18.7905 4.09694 18.6812 4.32503 18.7543 4.53334C18.8125 4.69703 18.8152 4.87525 18.7623 5.04067C18.7592 5.04803 18.7539 5.05384 18.7512 5.06144C18.6971 5.21683 18.5966 5.35187 18.4633 5.44839C18.4494 5.45837 18.4324 5.46395 18.4177 5.47304C18.2934 5.55419 18.1485 5.59825 18 5.60012C17.8982 5.59965 17.7974 5.57964 17.7032 5.54115C17.5972 5.49845 17.478 5.50319 17.3757 5.55409C17.2735 5.605 17.1979 5.69725 17.168 5.80754C17.0656 6.17115 16.7236 6.41425 16.3466 6.39161C16.3806 6.26387 16.3986 6.13234 16.4001 6.00011C16.4001 5.77919 16.221 5.60012 16.0001 5.60012C15.7792 5.60012 15.6001 5.77919 15.6001 6.00011C15.599 6.15587 15.5521 6.30789 15.4654 6.43731C15.451 6.45915 15.4341 6.47847 15.4179 6.49853C15.3887 6.53453 15.3565 6.568 15.3216 6.59846C15.3019 6.61571 15.2831 6.63409 15.2619 6.64923C15.2129 6.68331 15.1603 6.71181 15.1051 6.73412C14.8794 6.82956 14.6221 6.81409 14.4095 6.69231C14.2238 6.58679 13.988 6.64581 13.874 6.82632C13.7449 7.0202 13.5388 7.14934 13.3081 7.18093C13.0774 7.21253 12.8442 7.14357 12.6677 6.99156C12.5155 6.85482 12.2848 6.85482 12.1326 6.99156C11.8664 7.2212 11.4827 7.25354 11.1818 7.07167C11.3257 6.9159 11.4368 6.73286 11.5087 6.53336C11.5814 6.32542 11.4722 6.09784 11.2645 6.02448C11.0568 5.95108 10.8289 6.05954 10.7548 6.26697C10.6572 6.53607 10.4233 6.73257 10.1414 6.78221C9.85949 6.83185 9.57248 6.72714 9.38882 6.50757C9.29156 6.39015 9.13579 6.33859 8.98767 6.37478C8.92635 6.39057 8.86345 6.39911 8.80017 6.40014C8.56298 6.39859 8.33882 6.29129 8.18882 6.10754C8.1741 6.09184 8.15812 6.07736 8.14106 6.06428C8.20973 5.96092 8.26603 5.84982 8.30873 5.73334C8.35687 5.59853 8.32926 5.44825 8.23635 5.33936C8.14345 5.23047 7.9994 5.17956 7.85868 5.2059C7.71796 5.23225 7.60209 5.33181 7.55484 5.46695C7.47356 5.69223 7.29553 5.86923 7.06978 5.9492L7.06654 5.94976C7.0417 5.95848 7.01859 5.96308 6.99483 5.96954C6.93379 5.98689 6.87089 5.99678 6.80747 5.99903L6.80367 5.9994L6.78698 5.99809C6.71597 5.9965 6.64551 5.98529 6.57754 5.96472C6.56489 5.96101 6.55228 5.95731 6.5399 5.953C6.31003 5.87237 6.12937 5.69148 6.04898 5.46151L6.04584 5.45561C5.98486 5.28686 5.98486 5.10212 6.04584 4.93337C6.0937 4.79847 6.06591 4.64828 5.9729 4.53948C5.87991 4.43069 5.73586 4.37983 5.59519 4.40617C5.45452 4.43252 5.33855 4.53194 5.29116 4.66698C5.24438 4.80555 5.21672 4.94987 5.20898 5.09594C5.15817 5.06814 5.1105 5.03486 5.06695 4.9967C4.90233 4.84937 4.64944 4.86334 4.50211 5.02797C4.35478 5.19259 4.36875 5.44548 4.53338 5.59281C4.77877 5.81265 5.08622 5.95112 5.41345 5.98928C5.41912 5.99922 5.42634 6.00789 5.43216 6.01768C5.45878 6.06212 5.4863 6.10515 5.51705 6.14668C5.54287 6.18184 5.57147 6.21432 5.59992 6.24709C5.64333 6.29715 5.68983 6.34445 5.73914 6.38875C5.77805 6.42372 5.81775 6.45742 5.85984 6.48836C5.89102 6.51114 5.92242 6.5327 5.95523 6.55323C5.99714 6.57962 6.0405 6.60306 6.08466 6.62546C6.0689 6.63793 6.05756 6.65579 6.04078 6.6669C5.92903 6.74101 5.86186 6.86621 5.86186 7.00028C5.86186 7.13439 5.92903 7.25954 6.04078 7.3337C6.23306 7.45937 6.36145 7.6622 6.39276 7.88978C6.42408 8.11735 6.35522 8.34732 6.204 8.52024C6.01247 8.44121 5.80739 8.40038 5.6002 8.4001C5.37928 8.4001 5.20022 8.57916 5.20022 8.80009C5.20022 9.02101 5.37928 9.20007 5.6002 9.20007C5.75681 9.20007 5.9099 9.24638 6.04026 9.33319C6.09159 9.36774 6.13936 9.40852 6.18145 9.4539C6.192 9.46515 6.2009 9.47771 6.21079 9.48948C6.2393 9.52332 6.26494 9.55941 6.28744 9.59752C6.29723 9.61421 6.30665 9.63113 6.31523 9.64857C6.33394 9.6871 6.34955 9.72708 6.36183 9.7681C6.36698 9.78502 6.37354 9.80133 6.37753 9.81868C6.45745 10.1442 6.32226 10.4845 6.04083 10.6665C5.92908 10.7407 5.86191 10.866 5.86191 11.0001C5.86191 11.1343 5.92908 11.2595 6.04083 11.3337C6.26512 11.4812 6.40017 11.7316 6.40022 12.0001C6.39904 12.1375 6.36187 12.2722 6.29241 12.3907C6.18694 12.5764 6.24595 12.8121 6.42642 12.9262C6.65878 13.0715 6.80001 13.3261 6.80025 13.6001C6.79959 13.7453 6.75876 13.8875 6.68226 14.0109C6.33079 14.0345 5.99709 14.174 5.73342 14.4075C5.62692 14.5028 5.57939 14.6477 5.60869 14.7876C5.63798 14.9274 5.7397 15.0411 5.8755 15.0856C6.0113 15.1302 6.16055 15.0989 6.267 15.0036C6.41358 14.8723 6.60347 14.7998 6.8002 14.8C6.8129 14.8 6.82472 14.8032 6.83733 14.8038C6.84323 14.8044 6.84858 14.807 6.85453 14.8074C7.15926 14.8286 7.42561 15.0209 7.54171 15.3034C7.54532 15.3124 7.54711 15.3222 7.55039 15.3313C7.56468 15.3683 7.57607 15.4064 7.58456 15.4453C7.61545 15.5968 7.60031 15.754 7.5412 15.8969C7.4985 16.0029 7.50323 16.122 7.55414 16.2243C7.60504 16.3266 7.69729 16.4022 7.80759 16.432C8.2132 16.5363 8.4667 16.9393 8.38504 17.3501C8.3751 17.3996 8.36071 17.448 8.34196 17.4949L8.3406 17.5009C8.22224 17.7988 7.93593 17.9958 7.6154 18C7.60368 17.9984 7.56032 17.9941 7.54861 17.9933C7.37025 17.9804 7.20614 18.0911 7.15134 18.2613C7.04226 18.5833 6.74015 18.8 6.40017 18.8C6.06019 18.8 5.75808 18.5833 5.649 18.2613C5.59392 18.0913 5.43 17.9807 5.25173 17.9933C5.23434 17.9937 5.21705 17.9959 5.20017 18C4.9612 18.0013 4.73433 17.8952 4.58222 17.7109C4.43011 17.5266 4.36885 17.2837 4.41539 17.0493C4.42547 16.9994 4.4401 16.9504 4.45913 16.9031L4.4596 16.9001C4.58175 16.5983 4.87453 16.4006 5.20013 16.4C5.42105 16.4 5.60011 16.2209 5.60011 16C5.60011 15.7791 5.42105 15.6 5.20013 15.6C4.6995 15.6014 4.22864 15.8382 3.92888 16.2391C3.73543 16.1005 3.61505 15.8818 3.60141 15.6442C3.58777 15.4065 3.68236 15.1755 3.85871 15.0156C3.96071 14.9211 4.00632 14.7802 3.97903 14.6438C3.9518 14.5074 3.85561 14.395 3.72511 14.3468C3.35621 14.2165 3.13904 13.835 3.21516 13.4512C3.22346 13.4106 3.23504 13.3708 3.24971 13.332C3.25168 13.3265 3.25285 13.3207 3.25486 13.3154C3.291 13.2243 3.34308 13.1403 3.40866 13.0675L3.41199 13.062C3.56232 12.8957 3.77588 12.8005 4.00008 12.8C4.221 12.8 4.40006 12.6209 4.40006 12.4C4.40006 12.1791 4.221 12 4.00008 12C3.73055 12.0018 3.46599 12.0725 3.23152 12.2054C3.21179 12.1387 3.20119 12.0696 3.20007 12C3.20016 11.7775 3.29405 11.5653 3.45868 11.4156C3.56068 11.3211 3.60628 11.1803 3.579 11.0438C3.55177 10.9074 3.45558 10.795 3.32508 10.7468C3.0114 10.6318 2.80215 10.3341 2.80008 9.99999C2.80065 9.93788 2.80857 9.87605 2.82361 9.81582C2.8275 9.79927 2.83369 9.78376 2.83857 9.76763C2.85183 9.72371 2.86894 9.68101 2.88966 9.64004C2.89697 9.62574 2.90452 9.61168 2.91263 9.5979C2.94085 9.54933 2.97408 9.50391 3.01186 9.46234L3.0188 9.45394C3.06507 9.40515 3.11719 9.36221 3.17396 9.32616L3.17546 9.32471C3.38138 9.19299 3.63661 9.16379 3.86691 9.24568C4.00182 9.29354 4.152 9.26574 4.2608 9.17274C4.3696 9.07974 4.42045 8.93569 4.39411 8.79502C4.36777 8.65435 4.26835 8.53838 4.1333 8.49099C3.96197 8.43076 3.78169 8.39996 3.6001 8.39996C3.46749 8.4016 3.33558 8.41988 3.20752 8.45443C3.20616 8.4362 3.20011 8.41829 3.20011 8.39996C3.20213 8.06584 3.41143 7.76814 3.72511 7.6531C3.85561 7.60501 3.9518 7.49251 3.97903 7.3561C4.00627 7.2197 3.96071 7.07893 3.85871 6.98434C3.70313 6.84339 3.61027 6.64609 3.60089 6.43637C3.59152 6.22665 3.66633 6.02186 3.80869 5.86754C3.9458 5.71548 3.9458 5.48444 3.80869 5.33237C3.67575 5.18678 3.60141 4.99712 3.6001 4.79997C3.60094 4.65948 3.63966 4.52186 3.71222 4.40153C3.7845 4.27689 3.7845 4.12305 3.71222 3.99841C3.63966 3.87808 3.60094 3.74045 3.6001 3.59997C3.60118 3.53041 3.61177 3.46131 3.63155 3.39456C3.86602 3.52745 4.13058 3.59814 4.40011 3.59997C4.62103 3.59997 4.8001 3.42091 4.8001 3.19999C4.8001 2.97907 4.62103 2.8 4.40011 2.8C4.17591 2.79944 3.96235 2.70428 3.81202 2.53793L3.80869 2.53244C3.74311 2.45964 3.69103 2.37569 3.65489 2.28461C3.65283 2.27927 3.65171 2.27346 3.64974 2.26807C3.63502 2.22925 3.62349 2.18936 3.61519 2.14872C3.57108 1.92625 3.62489 1.69554 3.76294 1.51558C3.90094 1.33558 4.10977 1.22379 4.33608 1.20865C4.43916 1.20002 4.53497 1.15202 4.60364 1.07463C4.75299 0.900585 4.97081 0.800319 5.20013 0.800038C5.64173 0.800601 5.99953 1.15844 6.00014 1.60005C6.00009 1.70618 6.04219 1.80794 6.11723 1.88294C6.19228 1.95794 6.29404 2.00008 6.40012 2.00004C6.57604 2.0014 6.74639 2.06186 6.88383 2.17174C6.75689 2.23408 6.63895 2.31339 6.53334 2.40747C6.42684 2.50282 6.37931 2.64766 6.40861 2.78753C6.4379 2.92741 6.53962 3.04103 6.67542 3.08557C6.81122 3.1301 6.96047 3.09883 7.06692 3.00353C7.22217 2.86792 7.42336 2.79682 7.62932 2.80469C7.68632 2.80741 7.74285 2.81641 7.79789 2.8315C7.81546 2.83596 7.83375 2.83671 7.851 2.84243C8.08542 2.92178 8.27006 3.10492 8.35129 3.33864C8.40614 3.50885 8.5702 3.61952 8.74856 3.60663C8.76595 3.60625 8.7832 3.60405 8.80012 3.59997C9.13424 3.60199 9.43195 3.81128 9.54698 4.12497C9.59507 4.25552 9.70757 4.35166 9.84398 4.37889C9.98038 4.40613 10.1211 4.36056 10.2157 4.25856C10.3873 4.08367 10.6283 3.99517 10.8722 4.01753C11.1161 4.03989 11.337 4.17067 11.4739 4.37378C11.588 4.5543 11.8238 4.61327 12.0095 4.5078C12.3061 4.33619 12.6799 4.37702 12.9325 4.60858C13.0847 4.74531 13.3155 4.74531 13.4677 4.60858C13.7201 4.37641 14.0942 4.33558 14.3907 4.5078L14.3946 4.50911C14.4701 4.55041 14.5383 4.60366 14.5966 4.6668C14.6919 4.7733 14.8368 4.82083 14.9766 4.79153C15.1165 4.76223 15.2301 4.66052 15.2747 4.52472C15.3192 4.38892 15.2879 4.23967 15.1926 4.13322C15.1893 4.12952 15.185 4.12698 15.1817 4.12328C15.3017 4.04481 15.4415 4.00206 15.5848 4C15.5966 4.00155 15.6399 4.00586 15.6516 4.00666C15.8293 4.01692 15.9919 3.90724 16.0489 3.73867C16.1152 3.53514 16.2622 3.36775 16.4555 3.27574C16.6488 3.18372 16.8714 3.1751 17.0712 3.25192C17.1979 3.29805 17.3393 3.27719 17.4473 3.19647C17.5553 3.11575 17.6154 2.9861 17.6071 2.85152C17.6063 2.84097 17.6016 2.8105 17.6 2.79996C17.5989 2.36355 17.9485 2.00716 18.3848 1.99994C18.3965 2.00149 18.4399 2.0058 18.4516 2.0066C18.6288 2.01518 18.7905 1.9061 18.8489 1.73861C18.9593 1.41762 19.2606 1.20157 19.6001 1.19993C19.8294 1.20021 20.0472 1.30047 20.1965 1.47452C20.2652 1.55191 20.361 1.59986 20.4641 1.60854C20.7027 1.62157 20.9222 1.74349 21.0593 1.93924C21.1964 2.13499 21.236 2.38286 21.1667 2.61157C21.1616 2.62957 21.1576 2.64789 21.1511 2.66547C21.1303 2.72233 21.1032 2.77666 21.0701 2.82743C21.0528 2.85339 21.0341 2.87838 21.014 2.90224C20.9237 3.01671 20.8036 3.10403 20.6668 3.15466C20.5317 3.20191 20.4321 3.31778 20.4058 3.4585C20.3794 3.59922 20.4303 3.74327 20.5392 3.83617C20.6481 3.92908 20.7984 3.95669 20.9332 3.90855C21.0151 3.87939 21.0945 3.84358 21.1705 3.80144C21.2048 3.91656 21.2093 4.03849 21.1836 4.15581C21.1758 4.18914 21.1657 4.22186 21.1535 4.25388L21.1418 4.29372C21.1242 4.33698 21.1029 4.3787 21.0782 4.41831C21.0531 4.45844 21.0241 4.49669 20.9922 4.53161C20.8545 4.68358 20.8541 4.91514 20.9914 5.06753C21.1243 5.21312 21.1987 5.40278 21.2 5.59994C21.1989 5.74923 21.1552 5.89515 21.074 6.0205C20.9177 5.87556 20.7337 5.76362 20.5332 5.69134C20.3253 5.61864 20.0977 5.72786 20.0243 5.93556C19.9509 6.14326 20.0594 6.37117 20.2668 6.44528C20.4629 6.51765 20.6225 6.66456 20.7108 6.85398C20.7331 6.89659 20.7517 6.94098 20.7664 6.98668C20.8471 7.24862 20.7802 7.53371 20.5914 7.73242C20.4543 7.88448 20.4543 8.11552 20.5914 8.26759C20.7243 8.41318 20.7986 8.60284 20.8 8.79999C20.7989 8.86716 20.7889 8.93391 20.7705 8.99851C20.6944 8.95637 20.6151 8.92055 20.5331 8.8914C20.3252 8.8187 20.0976 8.92791 20.0243 9.13562C19.9509 9.34332 20.0593 9.57123 20.2668 9.64533C20.4035 9.69591 20.5236 9.78324 20.614 9.89776C20.634 9.92161 20.6528 9.94655 20.6701 9.97247C20.7031 10.0232 20.7303 10.0776 20.7511 10.1345C20.7575 10.1521 20.7615 10.1704 20.7666 10.1884C20.7873 10.2571 20.7985 10.3283 20.8 10.4001C20.7989 10.4633 20.7903 10.5263 20.7745 10.5876C20.7386 10.7359 20.7903 10.8917 20.9078 10.9891C21.0353 11.0953 21.127 11.2382 21.1702 11.3984C21.0942 11.3564 21.015 11.3206 20.9332 11.2915C20.7252 11.2188 20.4977 11.328 20.4243 11.5357C20.3509 11.7434 20.4594 11.9713 20.6668 12.0454C20.8605 12.117 21.0186 12.2613 21.1076 12.4476C21.131 12.491 21.1505 12.5364 21.1659 12.5832C21.1873 12.6536 21.1988 12.7266 21.2 12.8001C21.1992 12.9406 21.1605 13.0783 21.0879 13.1985C21.0156 13.3232 21.0156 13.477 21.0879 13.6017C21.2374 13.8463 21.2374 14.154 21.0879 14.3985C21.0156 14.5231 21.0156 14.6769 21.0879 14.8016Z" fill="#0088CC"/>
<path d="M8.58218 8.25449C8.50181 7.93301 8.17605 7.73756 7.85458 7.81793C7.5331 7.8983 7.33764 8.22406 7.41801 8.54553L8.58218 8.25449ZM12.4001 13.6L12.5898 14.1692L12.4001 13.6ZM15.8001 14C15.8001 14.3314 16.0687 14.6 16.4001 14.6C16.7315 14.6 17.0001 14.3314 17.0001 14H15.8001ZM9.4001 16C9.4001 16.3314 9.66873 16.6 10.0001 16.6C10.3315 16.6 10.6001 16.3314 10.6001 16H9.4001ZM17.0997 12.1014C17.3945 12.2527 17.7561 12.1365 17.9075 11.8417C18.0589 11.5469 17.9426 11.1852 17.6479 11.0339L17.0997 12.1014ZM14.9738 10.7676L14.8728 11.3591L14.9738 10.7676ZM10.0001 11.4C9.66873 11.4 9.4001 11.6686 9.4001 12C9.4001 12.3314 9.66873 12.6 10.0001 12.6V11.4ZM10.9178 8.21166C10.5928 8.14668 10.2767 8.35741 10.2117 8.68234C10.1468 9.00728 10.3575 9.32337 10.6824 9.38836L10.9178 8.21166ZM16.0244 7.62428C16.2587 7.38996 16.2587 7.01006 16.0244 6.77575C15.79 6.54143 15.4101 6.54143 15.1758 6.77575L16.0244 7.62428ZM15.2001 8.80001L15.7693 8.61028L15.2001 8.80001ZM16.6104 10.5692C16.9247 10.674 17.2645 10.5041 17.3693 10.1897C17.4741 9.87538 17.3042 9.53559 16.9898 9.4308L16.6104 10.5692ZM13.0634 8.93168C12.9152 9.22807 13.0354 9.58847 13.3318 9.73667C13.6282 9.88486 13.9886 9.76473 14.1368 9.46834L13.0634 8.93168ZM7.41801 8.54553C7.58134 9.19885 8.31775 10.6 10.0001 10.6V9.40001C9.12245 9.40001 8.68552 8.66784 8.58218 8.25449L7.41801 8.54553ZM10.0001 10.6C10.0978 10.6 10.1675 10.601 10.2154 10.6027C10.2776 10.6049 10.2679 10.6076 10.2324 10.6001C10.2203 10.5975 10.1886 10.5904 10.1487 10.5746C10.1221 10.5641 10.0177 10.5223 9.92452 10.4155C9.87147 10.3547 9.81446 10.2638 9.78986 10.143C9.76465 10.0193 9.78175 9.90437 9.81685 9.81223C9.87759 9.65279 9.98742 9.57008 10.0141 9.55017C10.0548 9.51985 10.0894 9.50269 10.1025 9.49638C10.1187 9.48861 10.1306 9.48402 10.1349 9.48238C10.1432 9.47925 10.144 9.47939 10.1319 9.48294C10.0743 9.49975 9.97288 9.52333 9.80206 9.56487C9.64304 9.60355 9.44615 9.65274 9.23425 9.71369C8.82039 9.83273 8.30772 10.0079 7.88742 10.2645C7.49116 10.5065 7.0001 10.9327 7.0001 11.6H8.2001C8.2001 11.5877 8.20903 11.4742 8.51278 11.2887C8.79247 11.1179 9.17981 10.978 9.56595 10.8669C9.75405 10.8128 9.93215 10.7682 10.0856 10.7309C10.2273 10.6964 10.3759 10.6618 10.4683 10.6348C10.4937 10.6274 10.5257 10.6175 10.5584 10.6052C10.5759 10.5986 10.6536 10.5702 10.7314 10.5122C10.7632 10.4885 10.8762 10.4022 10.9382 10.2394C10.974 10.1455 10.9913 10.029 10.9657 9.90362C10.9408 9.78121 10.883 9.68876 10.8286 9.62647C10.7328 9.51672 10.6237 9.47204 10.5905 9.45889C10.5438 9.44039 10.5034 9.43083 10.4803 9.42596C10.4011 9.40922 10.3132 9.4054 10.2583 9.40343C10.1889 9.40095 10.1024 9.40001 10.0001 9.40001V10.6ZM7.0001 11.6C7.0001 12.2479 7.1048 13.0821 7.5439 13.7721C8.01135 14.5067 8.80896 15 10.0001 15V13.8C9.19124 13.8 8.78885 13.4933 8.55629 13.1279C8.2954 12.7179 8.2001 12.1522 8.2001 11.6H7.0001ZM10.0001 15C10.6911 15 11.0832 14.8793 11.4684 14.6867C11.8193 14.5112 12.0438 14.3512 12.5898 14.1692L12.2104 13.0308C11.5564 13.2488 11.1809 13.4888 10.9318 13.6134C10.717 13.7208 10.5091 13.8 10.0001 13.8V15ZM12.5898 14.1692C13.2102 13.9624 14.129 13.8666 14.8889 13.9212C15.2708 13.9486 15.5633 14.0109 15.7405 14.086C15.9539 14.1764 15.8001 14.1839 15.8001 14H17.0001C17.0001 13.4161 16.5235 13.1145 16.2086 12.9811C15.8573 12.8323 15.4157 12.756 14.9748 12.7243C14.0892 12.6607 13.008 12.7649 12.2104 13.0308L12.5898 14.1692ZM9.4001 14.4V16H10.6001V14.4H9.4001ZM17.6479 11.0339C16.7146 10.5546 16.1089 10.3527 15.0748 10.1762L14.8728 11.3591C15.7864 11.515 16.2753 11.678 17.0997 12.1014L17.6479 11.0339ZM15.0748 10.1762C14.4669 10.0724 13.7686 10.084 13.2461 10.1159C12.9799 10.1322 12.7492 10.1545 12.5845 10.1727C12.5021 10.1819 12.4358 10.19 12.3896 10.196C12.3664 10.199 12.3483 10.2015 12.3356 10.2032C12.3292 10.2041 12.3242 10.2048 12.3206 10.2053C12.3188 10.2055 12.3174 10.2057 12.3163 10.2059C12.3158 10.206 12.3153 10.206 12.315 10.2061C12.3148 10.2061 12.3146 10.2061 12.3145 10.2061C12.3144 10.2062 12.3144 10.2062 12.3143 10.2062C12.3142 10.2062 12.3142 10.2062 12.4001 10.8C12.486 11.3938 12.486 11.3938 12.4859 11.3938C12.4859 11.3938 12.4858 11.3939 12.4858 11.3939C12.4858 11.3939 12.4858 11.3939 12.4858 11.3939C12.4858 11.3939 12.4859 11.3938 12.4861 11.3938C12.4864 11.3938 12.4872 11.3937 12.4882 11.3935C12.4904 11.3932 12.4939 11.3927 12.4988 11.3921C12.5085 11.3907 12.5235 11.3887 12.5434 11.3861C12.5831 11.381 12.6422 11.3737 12.7168 11.3654C12.8663 11.3488 13.0769 11.3285 13.3194 11.3137C13.8143 11.2834 14.4028 11.2788 14.8728 11.3591L15.0748 10.1762ZM11.9009 10.4672C11.7137 10.7479 11.0283 11.4 10.0001 11.4V12.6C11.5319 12.6 12.5531 11.6521 12.8993 11.1328L11.9009 10.4672ZM12.9822 10.9455C13.0792 10.5575 13.0772 9.97795 12.7756 9.43052C12.4601 8.85776 11.8616 8.40042 10.9178 8.21166L10.6824 9.38836C11.3386 9.5196 11.6067 9.7956 11.7246 10.0095C11.8563 10.2487 11.8543 10.5092 11.818 10.6545L12.9822 10.9455ZM15.1758 6.77575C14.815 7.13659 14.3072 8.01859 14.6309 8.98975L15.7693 8.61028C15.7065 8.42192 15.7203 8.22552 15.7838 8.03703C15.8496 7.84172 15.9573 7.69136 16.0244 7.62428L15.1758 6.77575ZM14.6309 8.98975C14.8779 9.73093 15.2852 10.1389 15.7564 10.3483C15.9724 10.4443 16.1784 10.4877 16.3303 10.5153C16.5144 10.5488 16.5641 10.5538 16.6104 10.5692L16.9898 9.4308C16.8361 9.37955 16.6358 9.3512 16.5449 9.33469C16.4218 9.3123 16.3278 9.28905 16.2438 9.25173C16.115 9.19451 15.9222 9.06909 15.7693 8.61028L14.6309 8.98975ZM15.3898 8.2308C15.129 8.14385 14.7184 8.06463 14.2996 8.11417C13.8716 8.16479 13.3456 8.36745 13.0634 8.93168L14.1368 9.46834C14.1746 9.39258 14.2486 9.32857 14.4406 9.30586C14.6418 9.28206 14.8712 9.32284 15.0104 9.36922L15.3898 8.2308Z" fill="#B8D958"/>
</g>
<defs>
<clipPath id="clip0">
<rect width="24" height="24" fill="white"/>
</clipPath>
</defs>
</svg>
