<svg width="56" height="56" viewBox="0 0 56 56" fill="none" xmlns="http://www.w3.org/2000/svg">
<circle cx="28" cy="28" r="28" fill="#B8D6ED"/>
<g clip-path="url(#clip0)">
<path d="M12.9999 38.5C13.0999 38.4 13.0999 38.3 13.0999 38.1C13.3999 36.9 14.3999 36 15.6999 36C18.2999 36 23.7999 36 26.3999 36C27.4999 36 28.3999 36.6 28.6999 37.7C28.7999 37.9 28.8999 38 29.0999 37.9C30.9999 37.4 32.4999 35.7 32.4999 33.7C32.5999 31.4 30.9999 29.3 28.5999 28.9C28.4999 28.9 28.3999 28.9 28.1999 29C27.4999 29.4 26.7999 29.6 25.9999 29.4C25.7999 29.4 25.6999 29.4 25.5999 29.6C25.1999 30.3 24.7999 30.9 24.3999 31.6C23.7999 32.6 22.5999 32.9 21.5999 32.3C20.9999 32 20.3999 31.6 19.7999 31.3C18.7999 30.7 18.4999 29.5 19.0999 28.5C21.1999 24.9 23.3999 21.2 25.4999 17.6C25.7999 17.1 26.3999 16.9 26.8999 17.2C27.0999 17.3 27.1999 17.3 27.3999 17.1C27.9999 16 28.6999 15 29.3999 14C29.7999 13.4 30.3999 13.1 31.1999 13.2C31.8999 13.3 32.3999 13.9 32.3999 14.6C32.3999 15 32.2999 15.3 32.0999 15.6C31.4999 16.6 30.7999 17.6 30.1999 18.6C30.0999 18.8 30.0999 18.9 30.2999 19C30.3999 19 30.3999 19.1 30.4999 19.1C31.1999 19.4 31.3999 20 30.9999 20.6C30.3999 21.7 29.6999 22.7 29.0999 23.8C28.8999 24.1 28.8999 24.1 29.1999 24.1C33.2999 24.7 36.4999 27.8 37.1999 32C37.9999 37 34.6999 41.9 29.5999 42.9C29.3999 43 29.0999 43 28.7999 43C25.3999 43 19.0999 43 15.5999 43C14.1999 43 13.2999 42.3 12.9999 40.9C12.9999 40.9 12.9999 40.8 12.8999 40.8C12.9999 40 12.9999 39.2 12.9999 38.5ZM22.6999 42.1C24.2999 42.1 26.8999 42.1 28.4999 42.1C28.8999 42.1 29.3999 42 29.7999 41.9C34.0999 40.9 36.8999 36.6 36.2999 32.2C35.7999 28.5 32.8999 25.7 29.1999 25.1C28.7999 25 28.3999 25 28.0999 24.7C27.7999 24.3 27.6999 24.2 27.9999 23.8C28.6999 22.6 29.3999 21.4 30.1999 20.2C30.1999 20 30.1999 20 29.9999 19.8C28.8999 19.2 27.8999 18.6 26.7999 18C26.5999 17.9 26.4999 17.9 26.2999 18.1C24.7999 20.6 23.3999 23.1 21.8999 25.6C21.7999 25.8 21.7999 25.9 21.9999 26C23.1999 26.7 24.3999 27.4 25.5999 28.1C26.3999 28.6 27.1999 28.5 27.8999 28C28.0999 27.9 28.2999 27.8 28.4999 27.8C29.0999 27.9 29.6999 28.1 30.2999 28.3C33.4999 29.9 34.5999 34.2 32.0999 37C31.0999 38.1 29.8999 38.7 28.4999 38.9C28.0999 39 27.8999 38.8 27.8999 38.4C27.7999 37.4 27.1999 36.9 26.2999 36.9C23.6999 36.9 18.2999 36.9 15.6999 36.9C14.6999 36.9 13.8999 37.6 13.8999 38.7C13.8999 39.2 13.8999 39.8 13.8999 40.3C13.8999 41.3 14.4999 41.9 15.4999 41.9C17.2999 42.1 20.9999 42.1 22.6999 42.1ZM19.8999 29.4C19.8999 29.8 20.0999 30.1 20.3999 30.3C20.9999 30.7 21.6999 31 22.2999 31.4C22.7999 31.7 23.3999 31.6 23.7999 31C24.1999 30.4 24.5999 29.7 24.9999 29.1C25.0999 28.9 25.0999 28.8 24.8999 28.8C23.7999 28.2 22.6999 27.5 21.5999 26.9C21.3999 26.8 21.2999 26.8 21.1999 27C20.7999 27.6 20.4999 28.3 20.0999 28.9C19.9999 29 19.8999 29.2 19.8999 29.4ZM31.4999 14.6C31.4999 14.3 31.2999 14 31.0999 14C30.7999 13.9 30.4999 14 30.2999 14.3C29.5999 15.4 28.9999 16.4 28.2999 17.5C28.1999 17.6 28.1999 17.7 28.3999 17.8C28.5999 17.9 28.8999 18.1 29.0999 18.2C29.2999 18.3 29.2999 18.3 29.3999 18.1C30.0999 17.1 30.6999 16 31.3999 15C31.4999 14.9 31.5999 14.7 31.4999 14.6Z" fill="#1E3F6D"/>
<path d="M26.8999 26.9C26.5999 26.9 26.3999 26.7 26.3999 26.4C26.3999 26.1 26.5999 25.9 26.8999 25.9C27.1999 25.9 27.3999 26.1 27.3999 26.4C27.2999 26.7 27.0999 26.9 26.8999 26.9Z" fill="#0088CC"/>
</g>
<defs>
<clipPath id="clip0">
<rect width="30" height="30" fill="white" transform="translate(13 13)"/>
</clipPath>
</defs>
</svg>
