<svg width="56" height="56" viewBox="0 0 56 56" fill="none" xmlns="http://www.w3.org/2000/svg">
<circle cx="28" cy="28" r="28" fill="#B8D6ED"/>
<g clip-path="url(#clip0)">
<path d="M16.7001 42C16.4001 41.8 16.3001 41.6 16.3001 41.2C16.3001 39.2 16.3001 37.1 16.3001 35.1C16.3001 34.7 16.5001 34.5 16.8001 34.5C17.1001 34.5 17.2001 34.6 17.3001 34.9C17.3001 35 17.3001 35.2 17.3001 35.3C17.3001 37.1 17.3001 38.8 17.3001 40.6C17.3001 40.9 17.4001 40.9 17.6001 40.9C24.6001 40.9 31.5001 40.9 38.5001 40.9C38.8001 40.9 38.8001 40.8 38.8001 40.6C38.8001 33.6 38.8001 26.7 38.8001 19.7C38.8001 19.4 38.7001 19.4 38.5001 19.4C31.5001 19.4 24.6001 19.4 17.6001 19.4C17.3001 19.4 17.2001 19.5 17.3001 19.7C17.3001 21.1 17.3001 22.5 17.3001 23.9C17.3001 24 17.3001 24.1 17.3001 24.2C17.3001 24.5 17.1001 24.7 16.8001 24.7C16.5001 24.7 16.3001 24.5 16.3001 24.2C16.3001 23.4 16.3001 22.5 16.3001 21.7C16.3001 21 16.3001 20.4 16.3001 19.7C16.3001 19.4 16.2001 19.3 15.9001 19.4C15.7001 19.4 15.5001 19.4 15.3001 19.4C14.7001 19.4 14.5001 19 14.8001 18.5C15.2001 17.8 15.6001 17.1 16.0001 16.3C16.1001 16.1 16.1001 16 15.8001 15.9C15.1001 15.7 14.3001 15.4 13.6001 15.2C13.0001 15 12.9001 14.6 13.3001 14.2C14.0001 13.5 14.7001 12.9 15.3001 12.2C15.5001 12 15.7001 11.9 16.0001 12.1C16.9001 12.4 17.8001 12.6 18.7001 13C18.9001 13 19.2001 13.1 19.4001 13.1C25.2001 13.1 31.1001 13.1 36.9001 13.1C37.1001 13.1 37.3001 13.1 37.4001 13C38.3001 12.7 39.2001 12.4 40.1001 12.1C40.5001 12 40.7001 12 40.9001 12.2C41.6001 12.9 42.2001 13.5 42.9001 14.2C43.3001 14.6 43.2001 15 42.7001 15.2C41.9001 15.5 41.2001 15.7 40.4001 15.9C40.2001 16 40.2001 16.1 40.3001 16.2C40.6001 17 41.0001 17.8 41.4001 18.6C41.7001 19.1 41.4001 19.5 40.9001 19.5C40.6001 19.5 40.2001 19.4 40.0001 19.6C39.8001 19.8 39.9001 20.2 39.9001 20.5C39.9001 27.5 39.9001 34.4 39.9001 41.4C39.9001 41.7 39.8001 41.9 39.5001 42.1C31.9001 42 24.3001 42 16.7001 42ZM28.1001 18.4C28.7001 18.4 29.3001 18.4 30.0001 18.4C33.3001 18.4 36.6001 18.4 39.9001 18.4C40.1001 18.4 40.2001 18.4 40.1001 18.1C39.8001 17.6 39.5001 17 39.3001 16.5C39.2001 16.3 39.1001 16.2 38.8001 16.2C34.8001 16.2 30.8001 16.2 26.7001 16.2C23.6001 16.2 20.6001 16.2 17.5001 16.2C17.3001 16.2 17.2001 16.2 17.1001 16.4C16.8001 17 16.5001 17.6 16.2001 18.2C16.1001 18.4 16.2001 18.4 16.4001 18.4C16.5001 18.4 16.6001 18.4 16.6001 18.4C20.4001 18.4 24.3001 18.4 28.1001 18.4ZM18.1001 15.2C18.3001 15.3 18.4001 15.3 18.6001 15.3C23.5001 15.3 28.4001 15.3 33.3001 15.3C34.8001 15.3 36.3001 15.3 37.8001 15.3C37.9001 15.3 38.0001 15.3 38.0001 15.3C38.1001 15.1 38.0001 15 37.9001 15C37.7001 14.8 37.4001 14.6 37.2001 14.3C37.1001 14.1 36.9001 14.1 36.7001 14.1C34.9001 14.1 33.2001 14.1 31.4001 14.1C27.4001 14.1 23.5001 14.1 19.5001 14.1C19.4001 14.1 19.2001 14.1 19.1001 14.2C18.8001 14.5 18.5001 14.8 18.1001 15.2ZM18.0001 13.9C18.0001 13.8 17.9001 13.8 17.9001 13.8C17.2001 13.5 16.6001 13.3 16.1001 13.1C16.0001 13.1 15.9001 13.1 15.8001 13.2C15.5001 13.5 15.1001 13.9 14.8001 14.2C14.6001 14.4 14.6001 14.4 14.8001 14.5C15.4001 14.7 15.9001 14.9 16.5001 15.1C16.6001 15.1 16.7001 15.1 16.8001 15C17.1001 14.7 17.5001 14.3 17.8001 14C17.9001 13.9 17.9001 13.9 18.0001 13.9ZM41.6001 14.4C41.6001 14.3 41.5001 14.3 41.6001 14.4C41.2001 13.9 40.8001 13.6 40.4001 13.2C40.3001 13.1 40.2001 13.1 40.2001 13.2C39.6001 13.4 39.0001 13.6 38.4001 13.8C38.2001 13.9 38.2001 13.9 38.3001 14C38.6001 14.3 39.0001 14.7 39.3001 15C39.4001 15.1 39.5001 15.1 39.6001 15.1C40.2001 14.9 40.8001 14.7 41.4001 14.5C41.5001 14.5 41.6001 14.5 41.6001 14.4Z" fill="#1E3F6D"/>
<path d="M12 30.6C12.1 30.4 12.2 30.2 12.5 30.2C12.8 30.2 13 30.3 13.1 30.6C13.2 30.9 13.1 31.1 12.8 31.2C12.6 31.3 12.3 31.2 12.1 31L12 30.9C12 30.8 12 30.7 12 30.6Z" fill="#0088CC"/>
<path d="M34.0002 29.6999C34.0002 32.8999 31.4002 35.5999 28.1002 35.5999C24.9002 35.5999 22.2002 32.8999 22.2002 29.6999C22.2002 26.4999 24.8002 23.7999 28.1002 23.7999C31.4002 23.7999 34.0002 26.3999 34.0002 29.6999ZM28.3002 24.7999C25.8002 24.5999 23.4002 26.6999 23.2002 29.2999C23.0002 31.9999 25.1002 34.2999 27.8002 34.4999C30.4002 34.6999 32.8002 32.6999 32.9002 29.7999C33.1002 26.9999 30.8002 24.8999 28.3002 24.7999Z" fill="#0088CC"/>
<path d="M17.4002 31.1999C16.3002 31.1999 15.3002 31.1999 14.2002 31.1999C13.9002 31.1999 13.7002 30.9999 13.7002 30.7999C13.7002 30.5999 13.8002 30.3999 14.0002 30.2999C14.1002 30.2999 14.2002 30.2999 14.4002 30.2999C15.7002 30.2999 17.0002 30.2999 18.3002 30.2999C19.1002 30.2999 19.8002 30.2999 20.6002 30.2999C21.0002 30.2999 21.1002 30.4999 21.2002 30.6999C21.2002 31.0999 21.0002 31.2999 20.6002 31.2999C19.5002 31.1999 18.4002 31.1999 17.4002 31.1999Z" fill="#0088CC"/>
<path d="M18.4002 33.4C17.5002 33.4 16.7002 33.4 15.8002 33.4C15.4002 33.4 15.2002 33.2 15.2002 32.9C15.2002 32.6 15.4002 32.4 15.8002 32.4C17.5002 32.4 19.3002 32.4 21.0002 32.4C21.3002 32.4 21.5002 32.5 21.6002 32.8C21.7002 33 21.6002 33.2 21.4002 33.3C21.3002 33.4 21.1002 33.4 21.0002 33.4C20.1002 33.4 19.3002 33.4 18.4002 33.4Z" fill="#0088CC"/>
<path d="M17.4002 27C16.7002 27 16.0002 27 15.3002 27C14.9002 27 14.7002 26.8 14.7002 26.5C14.7002 26.2 14.9002 26 15.3002 26C16.7002 26 18.1002 26 19.5002 26C19.8002 26 20.1002 26.2 20.1002 26.5C20.1002 26.8 19.9002 27 19.5002 27C18.8002 27 18.1002 27 17.4002 27Z" fill="#0088CC"/>
<path d="M18.9999 28.1C19.4999 28.1 19.9999 28.1 20.4999 28.1C20.7999 28.1 20.9999 28.3 21.0999 28.6C21.0999 28.9 20.8999 29.1 20.5999 29.1C19.5999 29.1 18.4999 29.1 17.4999 29.1C17.1999 29.1 16.8999 28.9 16.8999 28.6C16.8999 28.3 17.0999 28.1 17.4999 28.1C17.8999 28.1 18.4999 28.1 18.9999 28.1Z" fill="#0088CC"/>
<path d="M37.2002 24.6C37.5002 24.6 37.7002 24.8 37.7002 25.1C37.7002 25.4 37.5002 25.6 37.2002 25.6C36.9002 25.6 36.7002 25.4 36.7002 25.1C36.7002 24.9 37.0002 24.6 37.2002 24.6Z" fill="#1E3F6D"/>
<path d="M37.7002 33.2C37.7002 33.5 37.5002 33.7 37.2002 33.7C36.9002 33.7 36.7002 33.5 36.7002 33.2C36.7002 32.9 36.9002 32.7 37.2002 32.7C37.5002 32.7 37.7002 32.9 37.7002 33.2Z" fill="#1E3F6D"/>
<path d="M21.5 39.2999C21.5 39.5999 21.3 39.7999 21 39.7999C20.7 39.7999 20.5 39.5999 20.5 39.2999C20.5 38.9999 20.8 38.7999 21 38.7999C21.3 38.7999 21.5 38.9999 21.5 39.2999Z" fill="#1E3F6D"/>
<path d="M23 38.7999C23.3 38.7999 23.5 38.9999 23.5 39.2999C23.5 39.5999 23.3 39.7999 23 39.7999C22.7 39.7999 22.5 39.5999 22.5 39.2999C22.5 38.9999 22.8 38.7999 23 38.7999Z" fill="#1E3F6D"/>
<path d="M37.7002 31.2C37.7002 31.5 37.5002 31.7 37.2002 31.7C36.9002 31.7 36.7002 31.5 36.7002 31.2C36.7002 30.9 37.0002 30.7 37.2002 30.7C37.5002 30.7 37.7002 30.9 37.7002 31.2Z" fill="#1E3F6D"/>
<path d="M19 23.7C18.7 23.7 18.5 23.5 18.5 23.2C18.5 22.9 18.7 22.7 19 22.7C19.3 22.7 19.5 22.9 19.5 23.2C19.5 23.5 19.3 23.7 19 23.7Z" fill="#1E3F6D"/>
<path d="M19.5 39.2999C19.5 39.5999 19.3 39.7999 19 39.7999C18.7 39.7999 18.5 39.5999 18.5 39.2999C18.5 38.9999 18.8 38.7999 19 38.7999C19.3 38.7999 19.5 38.9999 19.5 39.2999Z" fill="#1E3F6D"/>
<path d="M29.6001 39.2999C29.6001 39.5999 29.4001 39.7999 29.1001 39.7999C28.8001 39.7999 28.6001 39.5999 28.6001 39.2999C28.6001 38.9999 28.8001 38.7999 29.1001 38.7999C29.4001 38.7999 29.6001 38.9999 29.6001 39.2999Z" fill="#1E3F6D"/>
<path d="M31.2002 39.7999C30.9002 39.7999 30.7002 39.5999 30.7002 39.2999C30.7002 38.9999 30.9002 38.7999 31.2002 38.7999C31.5002 38.7999 31.7002 38.9999 31.7002 39.2999C31.7002 39.5999 31.4002 39.7999 31.2002 39.7999Z" fill="#1E3F6D"/>
<path d="M33.7002 39.2999C33.7002 39.5999 33.5002 39.7999 33.2002 39.7999C32.9002 39.7999 32.7002 39.5999 32.7002 39.2999C32.7002 38.9999 32.9002 38.7999 33.2002 38.7999C33.4002 38.7999 33.7002 38.9999 33.7002 39.2999Z" fill="#1E3F6D"/>
<path d="M37.2002 23.6C36.9002 23.6 36.7002 23.4 36.7002 23.1C36.7002 22.8 37.0002 22.6 37.2002 22.6C37.5002 22.6 37.7002 22.8 37.7002 23.1C37.7002 23.4 37.5002 23.6 37.2002 23.6Z" fill="#1E3F6D"/>
<path d="M21.6001 26.4C21.6001 26.7 21.4001 26.9 21.1001 26.9C20.8001 26.9 20.6001 26.7 20.6001 26.4C20.6001 26.1 20.8001 25.9 21.1001 25.9C21.4001 25.9 21.6001 26.2 21.6001 26.4Z" fill="#0088CC"/>
<path d="M19.5 35C19.5 35.3 19.3 35.5 19 35.5C18.7 35.5 18.5 35.3 18.5 35C18.5 34.7 18.7 34.5 19 34.5C19.3 34.5 19.5 34.7 19.5 35Z" fill="#1E3F6D"/>
<path d="M25.1001 38.7999C25.4001 38.7999 25.6001 39.0999 25.6001 39.2999C25.6001 39.5999 25.4001 39.7999 25.1001 39.7999C24.8001 39.7999 24.6001 39.5999 24.6001 39.2999C24.6001 38.9999 24.8001 38.7999 25.1001 38.7999Z" fill="#1E3F6D"/>
<path d="M37.2002 39.7999C36.9002 39.7999 36.7002 39.5999 36.7002 39.2999C36.7002 38.9999 36.9002 38.7999 37.2002 38.7999C37.5002 38.7999 37.7002 38.9999 37.7002 39.2999C37.7002 39.5999 37.5002 39.7999 37.2002 39.7999Z" fill="#1E3F6D"/>
<path d="M19.5 21.1C19.5 21.4 19.3 21.6 19 21.6C18.7 21.6 18.5 21.4 18.5 21.1C18.5 20.8 18.7 20.6 19 20.6C19.3 20.6 19.5 20.8 19.5 21.1Z" fill="#1E3F6D"/>
<path d="M27.1001 38.7999C27.4001 38.7999 27.6001 38.9999 27.6001 39.2999C27.6001 39.5999 27.4001 39.7999 27.1001 39.7999C26.8001 39.7999 26.6001 39.5999 26.6001 39.2999C26.6001 38.9999 26.8001 38.7999 27.1001 38.7999Z" fill="#1E3F6D"/>
<path d="M19.5 37.2C19.5 37.5 19.3 37.7 19 37.7C18.7 37.7 18.5 37.5 18.5 37.2C18.5 36.9 18.7 36.7 19 36.7C19.3 36.7 19.5 36.9 19.5 37.2Z" fill="#1E3F6D"/>
<path d="M35.7002 39.2999C35.7002 39.5999 35.5002 39.7999 35.2002 39.7999C34.9002 39.7999 34.7002 39.5999 34.7002 39.2999C34.7002 38.9999 34.9002 38.7999 35.2002 38.7999C35.5002 38.7999 35.7002 38.9999 35.7002 39.2999Z" fill="#1E3F6D"/>
<path d="M37.7002 21.1C37.7002 21.4 37.5002 21.6 37.2002 21.6C36.9002 21.6 36.7002 21.4 36.7002 21.1C36.7002 20.8 36.9002 20.6 37.2002 20.6C37.5002 20.6 37.7002 20.8 37.7002 21.1Z" fill="#1E3F6D"/>
<path d="M37.7002 27.2C37.7002 27.5 37.5002 27.7 37.2002 27.7C36.9002 27.7 36.7002 27.4 36.7002 27.2C36.7002 26.9 36.9002 26.7 37.2002 26.7C37.5002 26.7 37.7002 26.9 37.7002 27.2Z" fill="#1E3F6D"/>
<path d="M37.7002 35.2999C37.7002 35.5999 37.5002 35.7999 37.2002 35.7999C36.9002 35.7999 36.7002 35.4999 36.7002 35.2999C36.7002 34.9999 36.9002 34.7999 37.2002 34.7999C37.5002 34.7999 37.7002 34.9999 37.7002 35.2999Z" fill="#1E3F6D"/>
<path d="M37.7002 37.2999C37.7002 37.5999 37.5002 37.7999 37.2002 37.7999C36.9002 37.7999 36.7002 37.5999 36.7002 37.2999C36.7002 36.9999 36.9002 36.7999 37.2002 36.7999C37.5002 36.7999 37.7002 36.9999 37.7002 37.2999Z" fill="#1E3F6D"/>
<path d="M37.2002 29.7C36.9002 29.7 36.7002 29.5 36.7002 29.2C36.7002 28.9 36.9002 28.7 37.2002 28.7C37.5002 28.7 37.7002 28.9 37.7002 29.2C37.7002 29.5 37.5002 29.7 37.2002 29.7Z" fill="#1E3F6D"/>
<path d="M27.3998 31.9999C27.1998 31.9999 27.0998 31.8999 26.9998 31.7999C26.5998 31.3999 26.0998 31 25.6998 30.6C25.3998 30.3 25.3998 29.9999 25.5998 29.7999C25.7998 29.5999 26.0998 29.5999 26.3998 29.7999C26.5998 29.9999 26.7998 30.1999 26.9998 30.3999C27.2998 30.6999 27.2998 30.6999 27.4998 30.2999C28.0998 29.3999 28.6998 28.3999 29.1998 27.4999C29.3998 27.0999 29.7998 27.1 30.0998 27.3C30.2998 27.5 30.2998 27.6999 30.1998 27.8999C29.3998 29.0999 28.6998 30.4 27.8998 31.6C27.6998 32 27.5998 31.9999 27.3998 31.9999Z" fill="#0088CC"/>
</g>
<defs>
<clipPath id="clip0">
<rect width="32" height="32" fill="white" transform="translate(12 12)"/>
</clipPath>
</defs>
</svg>
