<svg width="56" height="56" viewBox="0 0 56 56" fill="none" xmlns="http://www.w3.org/2000/svg">
<circle cx="28" cy="28" r="28" fill="#B8D6ED"/>
<g clip-path="url(#clip0)">
<path d="M13 13.4C13.1 13.1 13.3 13 13.7 13C19 13 24.3 13 29.6 13C29.8 13 29.9 13.1 30 13.2C31.6 14.8 33.3 16.5 34.9 18.1C35.1 18.3 35.1 18.4 35.1 18.7C35.1 22.2 35.1 25.8 35.1 29.3C35.1 33 35.1 38.6 35.1 42.3C35.1 42.6 35 42.9 34.7 43C27.6 43 20.5 43 13.4 43C13.2 42.9 13.1 42.7 13 42.5C13 33.4 13 22.5 13 13.4ZM14 27.1C14 31.3 14 37.4 14 41.6C14 42 13.9 42 14.4 42C20.9 42 27.3 42 33.8 42C34.1 42 34.1 41.9 34.1 41.7C34.1 34.9 34.1 26.2 34.1 19.3C34.2 19 34.1 19 33.8 19C32.5 19 31.1 19 29.8 19C29.2 19 29.1 18.9 29.1 18.3C29.1 17 29.1 15.7 29.1 14.4C29.1 14 29.1 14 28.7 14C23.9 14 19.2 14 14.4 14C14 14 14 14 14 14.4C14 18.6 14 22.8 14 27.1ZM30.1 14.7C30.1 14.8 30.1 14.8 30.1 14.8C30.1 15.8 30.1 16.8 30.1 17.8C30.1 18 30.2 18 30.4 18C31.3 18 32.2 18 33.1 18C33.2 18 33.3 18 33.3 17.9C33.3 17.8 33.2 17.8 33.2 17.7C32.5 17 31.8 16.3 31.1 15.6C30.8 15.3 30.5 15 30.1 14.7Z" fill="#1E3F6D"/>
<path d="M43.0001 26.5C43.0001 26.5 43.0001 26.6 43.0001 26.5C42.8001 26.9 42.7001 27 42.4001 26.9C42.1001 26.8 42.0001 26.7 42.0001 26.4C42.0001 25.6 42.0001 24.8 42.0001 24.1C42.0001 22.8 42.0001 21.5 42.0001 20.3C42.0001 20 42.0001 19.9 41.7001 19.9C41.0001 19.9 41.0001 19.9 41.0001 20.6C41.0001 26.4 41.0001 32.1 41.0001 37.9C41.0001 38.3 40.9001 38.8 40.8001 39.2C40.5001 40 40.3001 40.7 40.0001 41.5C39.9001 41.7 39.8001 41.9 39.6001 42C39.5001 42 39.5001 42.1 39.5001 42.2C39.5001 42.3 39.5001 42.4 39.5001 42.6C39.5001 42.9 39.3001 43 39.0001 43.1C38.7001 43.1 38.5001 43 38.5001 42.7C38.5001 42.6 38.5001 42.5 38.5001 42.4C38.5001 42.2 38.5001 42.1 38.3001 42C38.2001 42 38.1001 41.8 38.1001 41.7C37.8001 40.7 37.5001 39.8 37.1001 38.8C37.1001 38.7 37.1001 38.5 37.1001 38.4C37.1001 31.8 37.1001 25.2 37.1001 18.6C37.1001 17.6 37.7001 17 38.7001 17C39.0001 17 39.3001 17 39.6001 17C40.4001 17 41.0001 17.6 41.1001 18.4C41.1001 19 41.1001 19 41.7001 19C41.9001 19 42.2001 19 42.4001 19C42.8001 19 43.0001 19.1 43.1001 19.4C43.0001 21.7 43.0001 24.1 43.0001 26.5ZM37.9001 31.5C37.9001 33.6 37.9001 35.7 37.9001 37.7C37.9001 37.9 38.0001 38 38.2001 38C38.7001 38 39.1001 38 39.6001 38C39.9001 38 40.0001 37.9 40.0001 37.6C40.0001 36.5 40.0001 35.3 40.0001 34.2C40.0001 31.2 40.0001 28.2 40.0001 25.2C40.0001 24.9 39.9001 24.8 39.6001 24.8C39.1001 24.8 38.7001 24.8 38.2001 24.8C37.9001 24.8 37.8001 24.9 37.8001 25.2C37.9001 27.3 37.9001 29.4 37.9001 31.5ZM40.0001 21.1C40.0001 20.2 40.0001 19.4 40.0001 18.5C40.0001 18.1 39.8001 17.9 39.4001 17.9C39.1001 17.9 38.9001 17.9 38.6001 17.9C38.2001 17.9 38.0001 18.1 38.0001 18.5C38.0001 20.2 38.0001 22 38.0001 23.7C38.0001 23.9 38.1001 24 38.3001 24C38.8001 24 39.3001 24 39.8001 24C40.0001 24 40.1001 23.9 40.1001 23.7C40.0001 22.8 40.0001 22 40.0001 21.1ZM39.8001 39.1C39.8001 39 39.7001 39 39.6001 39C39.2001 39 38.8001 39 38.4001 39C38.2001 39 38.2001 39.1 38.2001 39.2C38.4001 39.7 38.6001 40.3 38.7001 40.8C38.7001 40.9 38.8001 41 38.9001 41C39.1001 41 39.1001 40.9 39.1001 40.8C39.3001 40.3 39.5001 39.7 39.6001 39.2C39.7001 39.2 39.8001 39.2 39.8001 39.1Z" fill="#0088CC"/>
<path d="M26.6001 33C26.8001 33 27.1001 33.1 27.3001 33.1C27.9001 33.3 28.1001 33.8 27.8001 34.3C27.5001 34.8 27.1001 35.2 26.6001 35.6C26.2001 35.9 25.8001 36.2 25.4001 36.4C25.3001 36.5 25.2001 36.6 25.2001 36.7C25.2001 37 25.2001 37.4 25.2001 37.7C25.2001 37.9 25.3001 37.9 25.4001 37.8C25.8001 37.5 26.1001 37.1 26.4001 36.8C26.7001 36.4 27.0001 36.4 27.3001 36.8C27.4001 36.9 27.4001 36.8 27.5001 36.8C27.7001 36.6 27.9001 36.4 28.2001 36.3C28.6001 36 29.0001 36.2 29.2001 36.6C29.3001 36.8 29.3001 36.7 29.4001 36.6C29.6001 36.4 29.8001 36.3 29.9001 36.1C30.3001 35.8 30.6001 35.8 30.9001 36.3C31.0001 36.4 31.0001 36.5 31.2001 36.4C31.4001 36.3 31.6001 36.5 31.7001 36.7C31.8001 36.9 31.7001 37.1 31.5001 37.3C31.2001 37.6 30.7001 37.6 30.3001 37.3C30.2001 37.2 30.1001 37.2 29.9001 37.3C29.7001 37.5 29.4001 37.7 29.2001 37.9C28.8001 38.2 28.4001 38.1 28.2001 37.6C28.1001 37.4 28.1001 37.4 27.9001 37.5C27.7001 37.7 27.4001 37.9 27.2001 38.1C27.0001 38.3 26.7001 38.3 26.5001 38.1C26.4001 38 26.3001 38 26.2001 38.1C26.0001 38.3 25.8001 38.5 25.5001 38.7C24.9001 39.1 24.3001 38.8 24.1001 38.1C24.0001 37.8 24.0001 37.4 24.0001 37.1C24.0001 36.9 23.9001 36.9 23.8001 37C23.5001 37.1 23.1001 37.3 22.8001 37.4C22.5001 37.5 22.2001 37.4 22.2001 37.1C22.1001 36.8 22.2001 36.6 22.5001 36.5C22.9001 36.4 23.4001 36.2 23.8001 36C24.0001 35.9 24.1001 35.8 24.1001 35.6C24.2001 35 24.4001 34.3 24.8001 33.8C25.4001 33.3 25.9001 33 26.6001 33ZM25.4001 35.3C25.9001 35 26.4001 34.6 26.7001 34.3C26.7001 34.3 26.8001 34.2 26.8001 34.1C26.8001 34 26.7001 34 26.6001 34C26.3001 34 26.1001 34 25.9001 34.2C25.7001 34.5 25.5001 34.8 25.4001 35.3Z" fill="#0088CC"/>
<path d="M24.1002 26C22.0002 26 19.8002 26 17.7002 26C17.4002 26 17.2002 25.9 17.1002 25.6C17.0002 25.2 17.2002 25 17.6002 25C18.5002 25 19.4002 25 20.3002 25C23.6002 25 27.0002 25 30.3002 25C30.4002 25 30.5002 25 30.6002 25C30.9002 25 31.1002 25.3 31.0002 25.5C31.0002 25.8 30.8002 25.9 30.5002 26C29.9002 26 29.2002 26 28.6002 26C27.1002 26 25.6002 26 24.1002 26Z" fill="#0088CC"/>
<path d="M24.1002 23.9C22.0002 23.9 19.9002 23.9 17.7002 23.9C17.4002 23.9 17.2002 23.8 17.1002 23.5C17.0002 23.3 17.2002 23 17.6002 23C18.4002 23 19.2002 23 20.0002 23C23.5002 23 26.9002 23 30.4002 23C30.5002 23 30.5002 23 30.6002 23C30.9002 23 31.1002 23.2 31.1002 23.5C31.1002 23.8 30.9002 23.9 30.6002 24C30.2002 24 29.9002 24 29.5002 24C27.7002 23.9 25.9002 23.9 24.1002 23.9Z" fill="#0088CC"/>
<path d="M24.1002 28C21.9002 28 19.8002 28 17.6002 28C17.2002 28 17.0002 27.7 17.1002 27.4C17.2002 27.1 17.4002 27 17.7002 27C18.6002 27 19.6002 27 20.5002 27C23.8002 27 27.1002 27 30.4002 27C30.5002 27 30.6002 27 30.7002 27C31.0002 27 31.1002 27.3 31.1002 27.5C31.1002 27.8 30.9002 27.9 30.6002 27.9C29.7002 27.9 28.8002 27.9 27.9002 27.9C26.6002 28 25.4002 28 24.1002 28Z" fill="#0088CC"/>
<path d="M24.1002 30C22.0002 30 19.8002 30 17.7002 30C17.4002 30 17.2002 29.9 17.1002 29.7C17.0002 29.3 17.2002 29 17.6002 29C18.3002 29 19.1002 29 19.8002 29C23.3002 29 26.8002 29 30.3002 29C30.4002 29 30.5002 29 30.6002 29C30.9002 29 31.0002 29.2 31.0002 29.5C31.0002 29.7 30.8002 29.9 30.5002 29.9C30.1002 29.9 29.7002 29.9 29.3002 29.9C27.6002 30 25.9002 30 24.1002 30Z" fill="#0088CC"/>
<path d="M20.1001 17.9C19.3001 17.9 18.5001 17.9 17.7001 17.9C17.3001 17.9 17.1001 17.7 17.1001 17.4C17.1001 17.1 17.3001 16.9 17.7001 16.9C19.3001 16.9 20.9001 16.9 22.6001 16.9C22.9001 16.9 23.1001 17.1 23.1001 17.4C23.1001 17.7 22.9001 17.9 22.5001 17.9C21.7001 17.9 20.9001 17.9 20.1001 17.9Z" fill="#0088CC"/>
<path d="M19.5001 32C18.9001 32 18.2001 32 17.6001 32C17.3001 32 17.1001 31.8 17.1001 31.5C17.1001 31.2 17.3001 31 17.6001 31C18.9001 31 20.2001 31 21.5001 31C21.8001 31 22.0001 31.2 22.0001 31.5C22.0001 31.8 21.8001 32 21.5001 32C20.8001 32 20.2001 32 19.5001 32Z" fill="#0088CC"/>
<path d="M18.6002 19C18.9002 19 19.2002 19 19.6002 19C19.8002 19 20.0002 19.1 20.0002 19.4C20.0002 19.7 19.8002 19.9 19.5002 19.9C18.8002 19.9 18.1002 19.9 17.5002 19.9C17.2002 19.9 17.0002 19.7 17.1002 19.4C17.1002 19.1 17.2002 19 17.5002 19C17.9002 19 18.2002 19 18.6002 19Z" fill="#0088CC"/>
</g>
<defs>
<clipPath id="clip0">
<rect width="30" height="30" fill="white" transform="translate(13 13)"/>
</clipPath>
</defs>
</svg>
