<svg width="56" height="56" viewBox="0 0 56 56" fill="none" xmlns="http://www.w3.org/2000/svg">
<circle cx="28" cy="28" r="28" fill="#B8D6ED"/>
<g clip-path="url(#clip0)">
<path d="M24.4002 43C24.3002 42.9 24.1002 42.9 24.0002 42.9C23.3002 42.6999 22.7002 42.4 22.2002 41.9C19.5002 39.1999 16.7002 36.4 14.0002 33.7C12.6002 32.3 12.6002 30.2 14.0002 28.8C18.9002 23.9 23.9002 18.9 28.8002 14C30.2002 12.6 32.3002 12.6 33.7002 14C36.4002 16.7 39.2002 19.5 41.9002 22.2C43.3002 23.6 43.3002 25.8 41.9002 27.2C37.0002 32.1 32.1002 37 27.2002 41.9C26.6002 42.5 26.0002 42.7999 25.2002 42.9C25.1002 42.9 25.1002 42.9 25.0002 43C24.8002 43 24.6002 43 24.4002 43ZM24.7002 42C25.4002 42 26.0002 41.7 26.6002 41.2C31.5002 36.3 36.4002 31.4 41.3002 26.5C42.4002 25.4 42.4002 23.9 41.3002 22.8C38.6002 20.1 35.9002 17.4 33.2002 14.7C32.1002 13.6 30.6002 13.6 29.5002 14.7C24.6002 19.6 19.7002 24.5 14.8002 29.4C13.7002 30.5 13.7002 32 14.8002 33C17.5002 35.7 20.3002 38.5 23.0002 41.2C23.4002 41.8 24.0002 42 24.7002 42Z" fill="#1E3F6D"/>
<path d="M22.9003 30.5999C22.9003 32.1999 21.6003 33.3999 20.1003 33.3999C18.5003 33.3999 17.3003 32.0999 17.3003 30.5999C17.3003 29.0999 18.6003 27.7999 20.1003 27.7999C21.7003 27.7999 22.9003 29.0999 22.9003 30.5999ZM20.1003 32.3999C21.1003 32.3999 22.0003 31.5999 21.9003 30.5999C21.9003 29.5999 21.1003 28.7999 20.0003 28.7999C19.0003 28.7999 18.2003 29.5999 18.2003 30.5999C18.3003 31.5999 19.1003 32.4999 20.1003 32.3999Z" fill="#1E3F6D"/>
<path d="M22.6001 25.4C22.6001 23.9 23.8001 22.6 25.4001 22.6C26.9001 22.6 28.2001 23.9 28.2001 25.4C28.2001 27 27.0001 28.2 25.4001 28.2C23.8001 28.2 22.6001 26.9 22.6001 25.4ZM25.4001 23.5C24.4001 23.5 23.5001 24.3 23.5001 25.4C23.5001 26.4 24.3001 27.2 25.3001 27.2C26.3001 27.2 27.2001 26.4 27.2001 25.4C27.2001 24.4 26.4001 23.5 25.4001 23.5Z" fill="#1E3F6D"/>
<path d="M30.6003 17.2999C32.1003 17.2999 33.4003 18.4999 33.4003 20.0999C33.4003 21.6999 32.2003 22.8999 30.6003 22.8999C29.1003 22.8999 27.8003 21.5999 27.8003 20.0999C27.8003 18.5999 29.1003 17.2999 30.6003 17.2999ZM30.6003 21.8999C31.6003 21.8999 32.4003 21.0999 32.4003 20.0999C32.4003 19.0999 31.6003 18.2999 30.6003 18.2999C29.6003 18.2999 28.7003 19.0999 28.7003 20.0999C28.8003 21.0999 29.6003 21.9999 30.6003 21.8999Z" fill="#1E3F6D"/>
<path d="M22.6001 35.9C22.6001 34.4 23.9001 33.1 25.4001 33.1C26.9001 33.1 28.2001 34.4 28.2001 35.9C28.2001 37.4 27.0001 38.7 25.4001 38.7C23.8001 38.7 22.6001 37.4 22.6001 35.9ZM25.3001 37.7C26.3001 37.7 27.2001 36.9 27.2001 35.9C27.2001 34.9 26.4001 34.1 25.5001 34C24.4001 34 23.6001 34.7 23.5001 35.8C23.5001 36.8 24.3001 37.7 25.3001 37.7Z" fill="#1E3F6D"/>
<path d="M33.1001 25.4C33.1001 23.9 34.3001 22.6 35.9001 22.6C37.5001 22.6 38.7001 23.8 38.7001 25.4C38.7001 26.9 37.5001 28.2 35.9001 28.2C34.3001 28.2 33.1001 26.9 33.1001 25.4ZM37.7001 25.4C37.7001 24.4 36.9001 23.6 35.9001 23.6C34.9001 23.6 34.0001 24.4 34.0001 25.5C34.0001 26.5 34.8001 27.3 35.9001 27.3C36.9001 27.2 37.7001 26.4 37.7001 25.4Z" fill="#1E3F6D"/>
<path d="M27.8003 30.5999C27.8003 29.0999 29.0003 27.7999 30.6003 27.7999C32.1003 27.7999 33.4003 28.9999 33.4003 30.5999C33.4003 32.0999 32.1003 33.3999 30.6003 33.3999C29.1003 33.3999 27.8003 32.1999 27.8003 30.5999ZM30.6003 28.7999C29.6003 28.7999 28.8003 29.5999 28.8003 30.5999C28.8003 31.5999 29.6003 32.3999 30.6003 32.3999C31.6003 32.3999 32.5003 31.5999 32.4003 30.5999C32.4003 29.5999 31.6003 28.7999 30.6003 28.7999Z" fill="#1E3F6D"/>
<path d="M30 31.9002C30 31.8002 30 31.7002 30 31.5002C30.1 31.2002 30.2 30.9002 30.5 30.6002C30.6 30.5002 30.6 30.4002 30.5 30.3002C30.3 29.3002 30.4 28.9002 31.3 28.4002C31.4 28.3002 31.4 28.3002 31.5 28.2002C31.6 27.2002 31.9 26.9002 32.9 26.7002C33.1 26.7002 33.2 26.6002 33.2 26.5002C33.6 25.7002 34.2 25.5002 35 25.8002C35.2 25.9002 35.3 25.8002 35.4 25.7002C36.1 25.2002 36.7 25.2002 37.3 25.7002C37.5 25.8002 37.6 25.9002 37.8 25.8002C38.6 25.6002 39.2 25.8002 39.5 26.5002C39.6 26.7002 39.7 26.8002 39.9 26.8002C40.8 26.9002 41.2 27.3002 41.3 28.2002C41.3 28.3002 41.4 28.4002 41.5 28.5002C42.3 29.0002 42.5 29.5002 42.3 30.4002C42.3 30.5002 42.2 30.6002 42.3 30.7002C42.5 31.0002 42.7 31.3002 42.8 31.6002C42.8 31.7002 42.8 31.8002 42.8 32.0002C42.7 32.3002 42.5 32.7002 42.3 32.9002C42.2 33.0002 42.3 33.1002 42.3 33.2002C42.5 34.1002 42.3 34.6002 41.5 35.0002C41.4 35.1002 41.3 35.2002 41.3 35.3002C41.3 35.6002 41.2 36.0002 41 36.2002C41 36.4002 41 36.6002 41 36.8002C41.4 38.4002 41.8 39.9002 42.3 41.5002C42.3 41.7002 42.4 41.8002 42.2 41.9002C42 42.0002 41.9 41.9002 41.8 41.9002C41.2 41.5002 40.5 41.2002 39.9 40.8002C39.7 40.7002 39.6 40.7002 39.4 40.9002C39 41.6002 38.6 42.3002 38.1 43.0002C38 43.0002 38 43.0002 37.9 43.0002C37.7 42.8002 37.7 42.6002 37.6 42.4002C37.3 41.1002 36.9 39.9002 36.6 38.6002C36.6 38.5002 36.6 38.3002 36.4 38.3002C36.2 38.3002 36.3 38.5002 36.2 38.6002C35.8 39.9002 35.5 41.2002 35.1 42.6002C35.1 42.8002 35 42.9002 34.9 43.1002C34.8 43.1002 34.8 43.1002 34.7 43.1002C34.3 42.4002 33.8 41.7002 33.4 41.0002C33.3 40.8002 33.2 40.7002 32.9 40.9002C32.3 41.3002 31.7 41.6002 31 42.0002C30.9 42.1002 30.7 42.2002 30.5 42.1002C30.3 42.0002 30.4 41.8002 30.4 41.6002C30.8 40.0002 31.2 38.5002 31.6 36.9002C31.6 36.7002 31.7 36.6002 31.6 36.4002C31.3 36.1002 31.2 35.8002 31.2 35.4002C31.2 35.2002 31.1 35.2002 31 35.1002C30.2 34.6002 30 34.1002 30.2 33.2002C30.2 33.1002 30.3 33.0002 30.2 32.9002C30.2 32.5002 30.1 32.2002 30 31.9002Z" fill="#0088CC"/>
<path d="M34.6998 41.2C34.4998 40.8 34.1998 40.4 33.9998 40.1C33.7998 39.8 33.6998 39.7 33.3998 39.7C33.2998 39.7 33.0998 39.7 32.9998 39.8C32.5998 40 32.1998 40.3 31.7998 40.5C31.7998 40.5 32.4998 37.8 32.6998 37.1V37C32.7998 37 32.8998 37 32.8998 37C33.2998 37.7 33.6998 38.1 34.3998 38.1C34.5998 38.1 34.7998 38.1 35.1998 38C35.2998 38 35.3998 38 35.3998 38.1C35.3998 38.2 35.4998 38.2 35.4998 38.2C35.1998 39.3 34.9998 40.3 34.6998 41.2Z" fill="#B8D6ED"/>
<path d="M37.5 38.3001C37.5 38.3001 37.5 38.2001 37.6 38.2001C37.7 38.1001 37.8 38.1001 37.8 38.1001C38.1 38.2001 38.4 38.2001 38.6 38.2001C39.3 38.2001 39.7 37.8001 40.1 37.2001C40.1 37.2001 40.1 37.1001 40.3 37.1001C40.3 37.2001 40.3 37.2001 40.3 37.2001L41.2 40.6001L40 39.8001C39.8 39.7001 39.7 39.6001 39.5 39.6001C39.2 39.6001 39 39.9001 38.9 40.0001L38.2 41.1001C38 40.3001 37.7 39.3001 37.5 38.3001Z" fill="#B8D6ED"/>
<path d="M36.175 37.45C35.975 37.45 35.875 37.35 35.575 37.05C35.375 36.85 35.275 36.85 35.075 36.85C34.975 36.85 34.875 36.85 34.775 36.95C34.475 37.05 34.275 37.05 34.175 37.05C33.975 37.05 33.875 37.05 33.575 36.45C33.475 36.15 33.175 35.95 32.775 35.95C32.175 35.95 31.975 35.75 31.975 35.15C31.975 34.75 31.775 34.55 31.475 34.35C30.875 34.05 30.775 33.85 31.075 33.25C31.275 32.85 31.075 32.55 30.875 32.45C30.375 31.95 30.375 31.75 30.875 31.25C31.075 30.95 31.175 30.75 31.075 30.35C30.775 29.75 30.875 29.45 31.575 29.25C31.875 29.15 32.075 28.85 32.075 28.45C32.075 27.85 32.275 27.65 32.875 27.65C33.275 27.65 33.475 27.45 33.675 27.15C33.875 26.65 34.075 26.65 34.275 26.65C34.375 26.65 34.575 26.65 34.775 26.75C34.875 26.85 35.075 26.85 35.175 26.85C35.375 26.85 35.575 26.75 35.775 26.55C35.975 26.35 36.175 26.25 36.375 26.25C36.575 26.25 36.675 26.35 36.975 26.55C37.175 26.75 37.375 26.85 37.575 26.85C37.675 26.85 37.775 26.85 37.975 26.75C38.175 26.65 38.275 26.65 38.475 26.65C38.675 26.65 38.875 26.75 39.075 27.15C39.275 27.55 39.475 27.65 39.875 27.65C40.475 27.65 40.675 27.85 40.675 28.45C40.675 28.95 40.975 29.15 41.175 29.25C41.575 29.45 41.675 29.55 41.675 29.85C41.675 29.95 41.675 30.15 41.575 30.25C41.475 30.55 41.475 30.85 41.675 31.05C42.175 31.65 42.175 31.75 41.675 32.35C41.475 32.55 41.375 32.85 41.575 33.15C41.875 33.75 41.775 34.05 41.075 34.25C40.775 34.35 40.575 34.65 40.575 35.05C40.575 35.65 40.375 35.85 39.775 35.85C39.375 35.85 39.175 36.05 39.075 36.35C38.475 37.05 38.275 37.05 38.175 37.05C38.075 37.05 37.875 37.05 37.675 36.95C37.575 36.95 37.475 36.85 37.375 36.85C37.175 36.85 36.975 36.95 36.875 37.05C36.475 37.35 36.275 37.45 36.175 37.45Z" fill="#B8D6ED"/>
<path d="M34.5748 30.6498C35.4748 30.6498 35.2748 30.7498 35.5748 29.9498C35.6748 29.7498 35.6748 29.6498 35.7748 29.4498C35.8748 29.2498 35.9748 29.0498 36.2748 29.0498C36.5748 29.0498 36.6748 29.1498 36.7748 29.4498C36.8748 29.7498 36.9748 30.0498 37.0748 30.3498C37.1748 30.5498 37.1748 30.5498 37.3748 30.5498C37.6748 30.5498 37.9748 30.5498 38.3748 30.5498C38.5748 30.5498 38.7748 30.6498 38.8748 30.8498C38.9748 31.0498 38.8748 31.3498 38.6748 31.4498C38.4748 31.6498 38.1748 31.8498 37.9748 32.0498C37.7748 32.1498 37.7748 32.3498 37.8748 32.5498C37.9748 32.8498 38.0748 33.1498 38.1748 33.4498C38.2748 33.6498 38.1748 33.8498 37.9748 34.0498C37.7748 34.1498 37.5748 34.2498 37.3748 34.0498C37.0748 33.8498 36.8748 33.6498 36.5748 33.4498C36.3748 33.3498 36.2748 33.3498 36.1748 33.4498C35.9748 33.6498 35.6748 33.7498 35.3748 33.9498C35.1748 34.0498 34.9748 34.1498 34.7748 33.9498C34.5748 33.7498 34.5748 33.5498 34.5748 33.3498C34.6748 33.0498 34.7748 32.7498 34.8748 32.5498C34.9748 32.3498 34.8748 32.2498 34.7748 32.1498C34.5748 31.9498 34.3748 31.7498 34.0748 31.6498C33.7748 31.4498 33.6748 31.2498 33.7748 30.9498C33.8748 30.6498 34.1748 30.6498 34.3748 30.6498C34.2748 30.6498 34.3748 30.6498 34.5748 30.6498ZM38.0748 31.2498C38.0748 31.2498 38.0748 31.1498 38.0748 31.2498C37.7748 31.1498 37.3748 31.1498 37.0748 31.1498C36.7748 31.1498 36.5748 31.0498 36.4748 30.7498C36.3748 30.4498 36.2748 30.1498 36.0748 29.7498C35.9748 30.1498 35.7748 30.4498 35.7748 30.7498C35.6748 31.0498 35.5748 31.1498 35.1748 31.1498C34.8748 31.1498 34.5748 31.0498 34.1748 31.2498C34.4748 31.4498 34.6748 31.6498 34.8748 31.8498C35.1748 32.0498 35.2748 32.3498 35.0748 32.6498C34.9748 32.9498 34.8748 33.2498 34.7748 33.4498C35.0748 33.3498 35.3748 33.1498 35.6748 32.9498C35.8748 32.8498 36.0748 32.7498 36.2748 32.9498C36.5748 33.1498 36.8748 33.3498 37.1748 33.6498C37.0748 33.2498 36.9748 32.8498 36.8748 32.5498C36.7748 32.2498 36.8748 32.1498 37.0748 31.9498C37.5748 31.6498 37.7748 31.4498 38.0748 31.2498Z" fill="#0088CC"/>
<path d="M37.5746 27.45C37.5746 27.65 37.4746 27.75 37.2746 27.75C37.1746 27.75 36.9746 27.65 37.0746 27.45C37.0746 27.35 37.1746 27.25 37.3746 27.25C37.4746 27.25 37.5746 27.35 37.5746 27.45Z" fill="#0088CC"/>
<path d="M37.5746 36.1496C37.5746 36.3496 37.4746 36.3496 37.2746 36.3496C37.0746 36.3496 37.0746 36.2496 36.9746 36.1496C36.9746 35.9496 37.0746 35.8496 37.2746 35.8496C37.4746 35.8496 37.5746 35.9496 37.5746 36.1496Z" fill="#0088CC"/>
<path d="M35.2748 27.45C35.2748 27.65 35.1748 27.75 34.9748 27.75C34.7748 27.75 34.6748 27.65 34.6748 27.45C34.6748 27.25 34.7748 27.25 34.8748 27.25C35.1748 27.25 35.2748 27.35 35.2748 27.45Z" fill="#0088CC"/>
<path d="M34.9749 35.8496C35.1749 35.8496 35.2749 35.9496 35.2749 36.1496C35.2749 36.3496 35.1749 36.4496 34.9749 36.3496C34.7749 36.3496 34.7749 36.2496 34.7749 36.1496C34.7749 35.9496 34.8749 35.8496 34.9749 35.8496Z" fill="#0088CC"/>
<path d="M31.8747 33.2499C31.6747 33.2499 31.5747 33.1499 31.5747 32.9499C31.5747 32.8499 31.6747 32.7499 31.7747 32.6499C31.9747 32.6499 32.0747 32.7499 32.0747 32.8499C32.1747 33.0499 32.0747 33.1499 31.8747 33.2499Z" fill="#0088CC"/>
<path d="M32.5746 29.55C32.5746 29.75 32.4746 29.85 32.2746 29.85C32.1746 29.85 32.0746 29.75 31.9746 29.65C31.9746 29.45 32.0746 29.35 32.1746 29.35C32.4746 29.25 32.5746 29.45 32.5746 29.55Z" fill="#0088CC"/>
<path d="M39.9748 29.25C40.1748 29.25 40.1748 29.35 40.1748 29.55C40.1748 29.75 40.0748 29.75 39.9748 29.75C39.7748 29.75 39.6748 29.65 39.6748 29.45C39.7748 29.45 39.8748 29.35 39.9748 29.25Z" fill="#0088CC"/>
<path d="M32.1748 30.5496C32.1748 30.7496 32.0748 30.8496 31.8748 30.8496C31.6748 30.8496 31.6748 30.7496 31.6748 30.6496C31.6748 30.4496 31.7748 30.3496 31.8748 30.3496C31.9748 30.3496 32.0748 30.4496 32.1748 30.5496Z" fill="#0088CC"/>
<path d="M39.2746 35.1498C39.0746 35.1498 38.9746 35.0498 38.9746 34.8498C38.9746 34.7498 39.0746 34.5498 39.1746 34.5498C39.3746 34.5498 39.4746 34.6498 39.4746 34.7498C39.5746 35.0498 39.4746 35.1498 39.2746 35.1498Z" fill="#0088CC"/>
<path d="M33.9748 35.3496C34.1748 35.3496 34.2748 35.4496 34.1748 35.6496C34.1748 35.8496 34.0748 35.9496 33.8748 35.8496C33.7748 35.8496 33.6748 35.7496 33.6748 35.5496C33.6748 35.4496 33.7748 35.3496 33.9748 35.3496Z" fill="#0088CC"/>
<path d="M38.375 35.3496C38.575 35.3496 38.675 35.4496 38.675 35.6496C38.675 35.7496 38.575 35.8496 38.475 35.9496C38.275 35.9496 38.175 35.8496 38.175 35.7496C38.075 35.5496 38.175 35.3496 38.375 35.3496Z" fill="#0088CC"/>
<path d="M36.3749 27.3496C36.3749 27.5496 36.2749 27.6496 36.0749 27.6496C35.8749 27.6496 35.7749 27.5496 35.7749 27.3496C35.7749 27.1496 35.8749 27.1496 35.9749 27.1496C36.2749 27.0496 36.3749 27.1496 36.3749 27.3496Z" fill="#0088CC"/>
<path d="M34.1747 27.9497C34.1747 28.1497 34.0747 28.2497 33.8747 28.2497C33.7747 28.2497 33.6747 28.1497 33.5747 28.0497C33.5747 27.8497 33.6747 27.7497 33.7747 27.7497C34.0747 27.6497 34.1747 27.7497 34.1747 27.9497Z" fill="#0088CC"/>
<path d="M38.3747 28.2499C38.1747 28.2499 38.0747 28.1499 38.0747 27.9499C38.0747 27.7499 38.1747 27.6499 38.3747 27.6499C38.4747 27.6499 38.5747 27.7499 38.5747 27.9499C38.6747 28.0499 38.5747 28.1499 38.3747 28.2499Z" fill="#0088CC"/>
<path d="M39.5747 28.65C39.5747 28.85 39.4747 28.95 39.2747 28.85C39.0747 28.85 39.0747 28.75 39.0747 28.55C39.0747 28.35 39.1747 28.25 39.3747 28.25C39.4747 28.35 39.5747 28.45 39.5747 28.65Z" fill="#0088CC"/>
<path d="M40.6748 30.6496C40.6748 30.7496 40.5748 30.8496 40.4748 30.9496C40.2748 30.9496 40.1748 30.8496 40.1748 30.6496C40.1748 30.4496 40.2748 30.3496 40.3748 30.3496C40.5748 30.3496 40.6748 30.4496 40.6748 30.6496Z" fill="#0088CC"/>
<path d="M40.6748 32.9497C40.6748 33.1497 40.5748 33.2497 40.4748 33.2497C40.2748 33.2497 40.1748 33.1497 40.1748 32.9497C40.1748 32.7497 40.2748 32.6497 40.4748 32.7497C40.6748 32.6497 40.6748 32.8497 40.6748 32.9497Z" fill="#0088CC"/>
<path d="M40.5749 32.0498C40.4749 32.0498 40.3749 31.9498 40.2749 31.8498C40.2749 31.6498 40.3749 31.5498 40.5749 31.5498C40.7749 31.5498 40.8749 31.6498 40.8749 31.7498C40.8749 31.9498 40.7749 32.0498 40.5749 32.0498Z" fill="#0088CC"/>
<path d="M32.5746 34.0498C32.5746 34.2498 32.4746 34.3498 32.2746 34.3498C32.1746 34.3498 32.0746 34.2498 31.9746 34.1498C31.9746 33.9498 32.0746 33.8498 32.1746 33.8498C32.4746 33.7498 32.5746 33.8498 32.5746 34.0498Z" fill="#0088CC"/>
<path d="M39.9748 34.2499C39.7748 34.2499 39.6748 34.1499 39.6748 33.9499C39.6748 33.7499 39.7748 33.6499 39.9748 33.6499C40.0748 33.6499 40.1748 33.7499 40.1748 33.9499C40.2748 34.1499 40.1748 34.2499 39.9748 34.2499Z" fill="#0088CC"/>
<path d="M36.175 35.9497C36.375 35.9497 36.475 36.0497 36.475 36.2497C36.475 36.4497 36.375 36.4497 36.175 36.4497C35.975 36.4497 35.875 36.3497 35.875 36.1497C35.875 36.0497 35.975 35.9497 36.175 35.9497Z" fill="#0088CC"/>
<path d="M31.9746 31.7498C31.9746 31.9498 31.8746 31.9498 31.7746 32.0498C31.5746 32.0498 31.4746 31.9498 31.4746 31.8498C31.4746 31.6498 31.5746 31.5498 31.7746 31.5498C31.8746 31.5498 31.9746 31.6498 31.9746 31.7498Z" fill="#0088CC"/>
<path d="M32.9749 35.1499C32.7749 35.1499 32.7749 35.0499 32.7749 34.8499C32.7749 34.6499 32.8749 34.6499 32.9749 34.6499C33.1749 34.6499 33.2749 34.7499 33.1749 34.9499C33.2749 35.0499 33.1749 35.1499 32.9749 35.1499Z" fill="#0088CC"/>
<path d="M32.9749 28.9496C32.7749 28.9496 32.7749 28.8496 32.7749 28.6496C32.7749 28.4496 32.8749 28.3496 33.0749 28.3496C33.2749 28.3496 33.2749 28.4496 33.2749 28.6496C33.2749 28.7496 33.1749 28.8496 32.9749 28.9496Z" fill="#0088CC"/>
</g>
<defs>
<clipPath id="clip0">
<rect width="31" height="31" fill="white" transform="translate(13 13)"/>
</clipPath>
</defs>
</svg>
