<svg width="56" height="56" viewBox="0 0 56 56" fill="none" xmlns="http://www.w3.org/2000/svg">
<circle cx="28" cy="28" r="28" fill="#B8D6ED"/>
<g clip-path="url(#clip0)">
<path d="M28.0999 18.1C29.3999 18.1 30.6999 18.1 31.9999 18.1C32.3999 18.1 32.5999 18.2 32.8999 18.5C33.8999 19.6 34.8999 20.6 35.8999 21.7C36.2999 22.1 36.2999 22.4 35.8999 22.8C33.3999 25.6 30.9999 28.4 28.4999 31.2C28.0999 31.7 27.8999 31.7 27.3999 31.2C24.8999 28.4 22.3999 25.6 19.8999 22.8C19.6999 22.3 19.6999 22 20.0999 21.7C21.0999 20.6 22.1999 19.5 23.2999 18.4C23.4999 18.2 23.7999 18.1 24.0999 18.1C25.3999 18.1 26.7999 18.1 28.0999 18.1ZM28.0999 29.3L28.1999 29.2C28.8999 27.2 29.5999 25.1 30.2999 23.1C30.3999 22.7 30.2999 22.6 29.9999 22.6C28.7999 22.6 27.5999 22.6 26.3999 22.6C25.8999 22.6 25.7999 22.7 25.9999 23.2C26.6999 25.1 27.2999 26.9 27.8999 28.8C27.8999 29 27.8999 29.2 28.0999 29.3ZM26.5999 28.7L26.6999 28.6C26.0999 26.7 25.3999 24.9 24.7999 23C24.6999 22.7 24.4999 22.7 24.1999 22.7C23.3999 22.7 22.6999 22.7 21.8999 22.7C21.6999 22.7 21.4999 22.6 21.3999 22.8C21.3999 22.9 21.5999 23 21.6999 23.2C22.5999 24.2 23.3999 25.2 24.2999 26.2C25.0999 27 25.8999 27.8 26.5999 28.7ZM29.4999 28.5C29.4999 28.5 29.5999 28.5 29.5999 28.6C29.6999 28.5 29.8999 28.3 29.9999 28.2C31.2999 26.7 32.5999 25.2 33.8999 23.7C34.0999 23.4 34.6999 23.1 34.4999 22.8C34.3999 22.5 33.7999 22.7 33.3999 22.7C32.6999 22.7 31.9999 22.4 31.4999 22.8C30.9999 23.2 30.9999 23.9 30.7999 24.5C30.2999 25.9 29.8999 27.2 29.4999 28.5ZM28.0999 21.7C28.5999 21.7 29.0999 21.7 29.6999 21.7C29.9999 21.7 30.1999 21.6 29.8999 21.3C29.3999 20.7 28.8999 20.1 28.3999 19.5C28.1999 19.3 28.0999 19.3 27.8999 19.5C27.3999 20.1 26.8999 20.7 26.3999 21.3C26.0999 21.6 26.2999 21.7 26.5999 21.7C27.0999 21.7 27.5999 21.7 28.0999 21.7ZM21.4999 21.5C21.4999 21.6 21.5999 21.6 21.5999 21.7C22.3999 21.7 23.2999 21.7 24.0999 21.7C24.2999 21.7 24.3999 21.6 24.2999 21.4C24.0999 20.9 23.8999 20.3 23.6999 19.8C23.5999 19.6 23.4999 19.5 23.2999 19.7C22.6999 20.3 22.0999 20.9 21.4999 21.5ZM34.4999 21.7C34.4999 21.6 34.4999 21.6 34.5999 21.5C33.9999 20.9 33.4999 20.3 32.8999 19.7C32.6999 19.5 32.5999 19.4 32.4999 19.8C32.2999 20.3 32.1999 20.8 31.9999 21.3C31.8999 21.5 31.9999 21.7 32.1999 21.7C32.8999 21.7 33.6999 21.7 34.4999 21.7ZM27.0999 19.1C26.6999 19.1 26.4999 19.1 26.1999 19.1C25.6999 19.2 24.8999 18.8 24.5999 19.2C24.3999 19.6 24.8999 20.2 24.9999 20.7V20.8C25.0999 21.1 25.1999 21.1 25.3999 20.9C25.9999 20.4 26.3999 19.8 27.0999 19.1ZM29.0999 19.1C29.6999 19.8 30.1999 20.4 30.6999 21C30.8999 21.2 30.9999 21.1 31.0999 20.9C31.2999 20.4 31.3999 20 31.5999 19.5C31.6999 19.2 31.5999 19.1 31.2999 19.1C30.5999 19.1 29.9999 19.1 29.0999 19.1Z" fill="#0088CC"/>
<path d="M36.2998 37.8001C37.3998 38.1001 37.5998 38.4001 37.5998 39.4001C37.5998 40.2001 37.5998 41.0001 37.5998 41.8001C37.5998 42.5001 37.0998 43.0001 36.3998 43.0001C34.2998 43.0001 32.1998 43.0001 30.0998 43.0001C29.4998 43.0001 29.0998 42.7001 28.9998 42.1001C28.8998 41.1001 28.6998 40.1001 28.6998 39.1001C28.5998 38.4001 28.9998 37.9001 29.6998 37.9001C30.0998 37.9001 30.1998 37.7001 30.1998 37.3001C30.1998 36.1001 30.2998 35.0001 30.5998 33.9001C31.0998 32.2001 32.0998 30.8001 33.6998 30.1001C34.8998 29.6001 35.5998 28.6001 36.2998 27.6001C36.5998 27.1001 36.8998 26.6001 37.3998 26.2001C37.8998 25.7001 38.4998 25.6001 39.1998 25.9001C39.5998 26.1001 39.6998 25.9001 39.6998 25.6001C39.7998 24.8001 39.9998 24.0001 40.0998 23.2001C40.1998 22.4001 40.7998 21.8001 41.4998 21.8001C42.0998 21.7001 42.6998 22.0001 42.8998 22.6001C42.9998 22.9001 43.0998 23.1001 43.0998 23.4001C43.0998 25.4001 43.0998 27.4001 43.0998 29.4001C43.0998 29.8001 42.9998 30.1001 42.7998 30.4001C41.7998 32.4001 40.4998 34.2001 39.1998 36.0001C38.4998 37.0001 37.5998 37.5001 36.2998 37.8001ZM42.0998 26.5001C42.0998 25.5001 42.0998 24.5001 42.0998 23.5001C42.0998 23.2001 42.0998 22.8001 41.6998 22.7001C41.2998 22.7001 41.0998 23.0001 40.9998 23.4001C40.6998 25.3001 40.1998 27.1001 40.2998 29.0001C40.2998 29.2001 40.1998 29.4001 40.0998 29.5001C39.0998 30.6001 37.8998 31.4001 37.5998 33.0001C37.4998 33.3001 37.2998 33.5001 36.9998 33.4001C36.5998 33.3001 36.5998 33.0001 36.6998 32.7001C36.8998 32.0001 37.0998 31.3001 37.5998 30.7001C38.1998 30.0001 38.5998 29.1001 38.9998 28.3001C39.0998 28.0001 39.1998 27.7001 39.1998 27.4001C39.1998 27.2001 39.1998 26.9001 38.8998 26.8001C38.5998 26.6001 38.3998 26.7001 38.1998 26.9001C37.7998 27.1001 37.5998 27.5001 37.3998 27.8001C36.9998 28.5001 36.3998 29.2001 35.8998 29.8001C35.5998 30.2001 35.1998 30.5001 34.6998 30.7001C33.2998 31.2001 32.2998 32.2001 31.7998 33.6001C31.2998 34.8001 31.1998 36.2001 31.1998 37.5001C31.1998 37.9001 31.3998 37.9001 31.6998 37.9001C32.6998 37.9001 33.6998 37.9001 34.5998 37.9001C34.8998 37.9001 34.9998 37.9001 35.1998 37.6001C35.4998 37.1001 35.8998 36.9001 36.3998 36.8001C37.3998 36.6001 38.1998 36.1001 38.7998 35.2001C39.6998 34.0001 40.3998 32.7001 41.2998 31.4001C41.9998 30.4001 42.2998 29.3001 42.1998 28.1001C42.0998 27.6001 42.0998 27.0001 42.0998 26.5001ZM33.0998 38.8001C32.0998 38.8001 31.0998 38.8001 29.9998 38.8001C29.6998 38.8001 29.3998 38.9001 29.4998 39.3001C29.5998 40.1001 29.6998 40.9001 29.7998 41.7001C29.7998 42.0001 29.9998 42.1001 30.2998 42.1001C32.1998 42.1001 34.1998 42.1001 36.0998 42.1001C36.4998 42.1001 36.5998 41.9001 36.5998 41.6001C36.5998 40.9001 36.5998 40.2001 36.5998 39.4001C36.5998 39.0001 36.3998 38.8001 35.9998 38.8001C35.0998 38.8001 34.0998 38.8001 33.0998 38.8001Z" fill="#1E3F6D"/>
<path d="M19.7 37.8001C17.9 37.5001 16.9 36.2001 16 34.8001C15.1 33.4001 14.2 32.1001 13.4 30.7001C13.1 30.2001 13 29.8001 13 29.2001C13 27.4001 13 25.6001 13 23.8001C13 23.6001 13 23.4001 13 23.3001C13.1 22.4001 13.6 21.8001 14.4 21.7001C15.2 21.7001 15.9 22.2001 16 23.1001C16.2 23.9001 16.3 24.7001 16.4 25.6001C16.5 25.9001 16.5 26.1001 16.9 25.9001C17.6 25.6001 18.2 25.8001 18.7 26.3001C19.1 26.7001 19.4 27.2001 19.8 27.7001C20.5 28.7001 21.2 29.6001 22.3 30.1001C24.6 31.2001 25.5 33.3001 25.8 35.7001C25.8 36.1001 25.9 36.4001 25.9 36.8001C25.9 37.4001 25.9 38.0001 26.8 38.1001C27.3 38.2001 27.5 38.7001 27.5 39.2001C27.4 40.1001 27.3 41.1001 27.2 42.0001C27.1 42.7001 26.7 43.1001 25.9 43.1001C23.9 43.1001 21.9 43.1001 19.9 43.1001C19 43.1001 18.5 42.7001 18.5 41.7001C18.5 40.9001 18.5 40.2001 18.5 39.4001C18.5 38.4001 18.8 38.1001 19.7 37.8001ZM14 26.4001C14 27.4001 14 28.3001 14 29.3001C14 29.6001 14.1 29.9001 14.2 30.2001C15.2 31.9001 16.2 33.6001 17.4 35.2001C18 36.0001 18.8 36.6001 19.8 36.8001C20.3 36.9001 20.7 37.1001 21 37.6001C21.2 37.9001 21.3 37.9001 21.6 37.9001C22.6 37.9001 23.6 37.9001 24.5 37.9001C24.9 37.9001 25 37.7001 25 37.4001C25 37.0001 25 36.5001 25 36.1001C24.8 33.5001 23.8 31.5001 21.2 30.6001C21 30.5001 20.9 30.4001 20.8 30.3001C20.3 29.7001 19.9 29.2001 19.4 28.6001C19.1 28.2001 18.9 27.6001 18.5 27.2001C18.2 26.9001 17.9 26.5001 17.4 26.8001C16.9 27.1001 17.1 27.5001 17.2 27.9001C17.5 28.9001 18 29.8001 18.7 30.6001C19.2 31.2001 19.5 31.9001 19.6 32.6001C19.7 32.9001 19.8 33.3001 19.3 33.4001C18.9 33.5001 18.8 33.2001 18.6 32.9001C18.4 32.5001 18.5 32.0001 18.2 31.7001C17.5 31.0001 16.9 30.1001 16.1 29.5001C15.9 29.3001 15.9 29.2001 15.9 28.9001C15.9 27.0001 15.4 25.2001 15.2 23.3001C15 23.0001 14.8 22.6001 14.4 22.7001C14 22.8001 14 23.1001 14 23.4001C14 24.4001 14 25.4001 14 26.4001ZM23 38.8001C22 38.8001 21 38.8001 20.1 38.8001C19.7 38.8001 19.5 38.9001 19.5 39.4001C19.5 40.1001 19.5 40.8001 19.5 41.4001C19.5 41.9001 19.7 42.1001 20.2 42.0001C22 42.0001 23.9 42.0001 25.7 42.0001C26.1 42.0001 26.3 41.8001 26.3 41.5001C26.4 40.8001 26.5 40.1001 26.6 39.4001C26.7 38.9001 26.5 38.7001 26 38.8001C25 38.8001 24 38.8001 23 38.8001Z" fill="#1E3F6D"/>
<path d="M33.2999 14.2C33.2999 14.3 33.1999 14.4 33.1999 14.4C32.7999 15.1 32.4999 15.7 32.0999 16.4C31.8999 16.7 31.6999 16.9 31.3999 16.7C31.0999 16.6 31.0999 16.3 31.1999 16C31.5999 15.3 31.9999 14.7 32.3999 14C32.4999 13.8 32.6999 13.7 32.9999 13.8C33.1999 13.8 33.2999 14 33.2999 14.2Z" fill="#0088CC"/>
<path d="M23.3998 13.8C23.5998 13.8 23.6998 13.9 23.7998 14.1C24.1998 14.7 24.4998 15.4 24.8998 16C25.0998 16.4 25.0998 16.7 24.7998 16.9C24.4998 17.1 24.2998 16.9 24.0998 16.6C23.6998 16 23.3998 15.3 22.9998 14.7C22.7998 14.2 22.9998 13.9 23.3998 13.8Z" fill="#0088CC"/>
<path d="M28.5 14.7C28.5 15.1 28.5 15.5 28.5 15.8C28.5 16.1 28.3 16.3 28 16.3C27.7 16.3 27.5 16.1 27.5 15.8C27.5 15 27.5 14.2 27.5 13.4C27.5 13.1 27.6 12.9 27.9 12.9C28.2 12.9 28.4 13.1 28.4 13.4C28.5 13.9 28.5 14.3 28.5 14.7Z" fill="#0088CC"/>
<path d="M36.9 16.8C36.9 17 36.8 17.1 36.7 17.3C36.2 17.7 35.7 18.1 35.2 18.4C34.9 18.6 34.7 18.6 34.5 18.4C34.3 18.1 34.4 17.9 34.7 17.7C35.2 17.3 35.7 16.9 36.2 16.6C36.4 16.2 36.8 16.4 36.9 16.8Z" fill="#0088CC"/>
<path d="M19.7998 16.2001C19.8998 16.2001 20.0998 16.3001 20.1998 16.3001C20.5998 16.7001 21.0998 17.1001 21.4998 17.5001C21.7998 17.7001 21.8998 18.0001 21.6998 18.2001C21.4998 18.5001 21.1998 18.4001 20.9998 18.2001C20.4998 17.8001 19.9998 17.4001 19.4998 17.0001C19.2998 16.9001 19.2998 16.7001 19.2998 16.5001C19.3998 16.3001 19.4998 16.2001 19.7998 16.2001Z" fill="#0088CC"/>
<path d="M31.1999 40C31.4999 40.1 31.6999 40.2 31.6999 40.5C31.6999 40.8 31.4999 40.9 31.2999 40.9C30.9999 40.9 30.7999 40.7 30.7999 40.4C30.6999 40.1 30.8999 40 31.1999 40Z" fill="#1E3F6D"/>
<path d="M25.4 40.5C25.4 40.8 25.2 40.9 24.9 40.9C24.6 40.9 24.5 40.7 24.5 40.5C24.5 40.2 24.7 40 25 40C25.2 40 25.4 40.2 25.4 40.5Z" fill="#1E3F6D"/>
</g>
<defs>
<clipPath id="clip0">
<rect width="31" height="31" fill="white" transform="translate(13 13)"/>
</clipPath>
</defs>
</svg>
