<svg width="56" height="56" viewBox="0 0 56 56" fill="none" xmlns="http://www.w3.org/2000/svg">
<circle cx="28" cy="28" r="28" fill="#B8D6ED"/>
<path d="M43.9002 37.8C43.3002 39.2 42.0002 39.5 40.7002 39.7C39.3002 39.9 38.0002 39.8 36.6002 39.3C36.2002 39.2 36.1002 39.3 36.2002 39.6C36.3002 40.4 35.9002 40.9 35.2002 41.3C33.1002 42.3 30.9002 42.3 28.8002 41.3C28.5002 41.2 28.2002 41 28.1002 40.7C27.9002 40.3 27.6002 40.3 27.1002 40.4C25.3002 41 23.5002 41.1 21.7002 40.4C20.5002 40 20.2002 39.5 20.2002 38.2C20.2002 36.4 20.2002 34.6 20.2002 32.8C20.2002 31.5 20.5002 31 21.8002 30.6C23.6002 29.9 25.4002 30 27.2002 30.6C27.8002 30.8 27.8002 30.6 27.8002 30.1C27.8002 28 28.3002 27.4 30.4002 27C32.1002 26.7 33.7002 26.7 35.3002 27.5C36.0002 27.9 36.4002 28.4 36.4002 29.3C36.4002 30.7 36.4002 32.1 36.4002 33.5C36.4002 34 36.5002 34 36.9002 33.9C38.6002 33.3 40.3002 33.3 42.1002 33.8C43.0002 34 43.7002 34.5 44.0002 35.4C43.9002 36.1 43.9002 37 43.9002 37.8ZM24.3002 33.4C25.5002 33.4 26.6002 33.1 27.2002 32.8C27.8002 32.4 27.8002 32 27.2002 31.8C25.3002 31 23.4002 30.9 21.6002 31.8C21.0002 32.1 21.0002 32.5 21.6002 32.8C22.5002 33.2 23.5002 33.3 24.3002 33.4ZM39.5002 36.6C40.5002 36.6 41.4002 36.5 42.3002 36.1C42.5002 36 42.8002 35.9 42.8002 35.6C42.8002 35.3 42.5002 35.1 42.3002 35C40.5002 34.2 38.7002 34.2 36.8002 35C36.6002 35.1 36.3002 35.3 36.3002 35.6C36.3002 35.9 36.6002 36 36.8002 36.2C37.7002 36.5 38.6002 36.6 39.5002 36.6ZM32.0002 30.1C32.9002 30.1 33.8002 30 34.6002 29.6C34.9002 29.5 35.2002 29.3 35.2002 29C35.2002 28.7 34.9002 28.5 34.6002 28.4C32.8002 27.6 31.0002 27.7 29.2002 28.4C29.0002 28.5 28.7002 28.6 28.7002 29C28.7002 29.3 29.0002 29.5 29.3002 29.6C30.2002 30 31.1002 30.1 32.0002 30.1ZM32.2002 32.3C32.2002 32.3 32.4002 32.3 32.6002 32.3C33.4002 32.2 34.2002 32.1 34.9002 31.6C35.3002 31.4 35.3002 31 35.2002 30.7C35.1002 30.4 34.8002 30.7 34.5002 30.8C32.7002 31.3 31.0002 31.3 29.2002 30.8C29.0002 30.7 28.8002 30.5 28.6002 30.7C28.4002 30.9 28.5002 31.2 28.7002 31.5C28.9002 31.8 29.2002 31.9 29.4002 32C30.3002 32.2 31.2002 32.3 32.2002 32.3ZM32.0002 34.4C32.8002 34.4 33.7002 34.3 34.4002 34C34.7002 33.9 34.9002 33.8 35.1002 33.6C35.3002 33.3 35.3002 33 35.2002 32.8C35.1002 32.6 34.8002 32.8 34.6002 32.9C32.8002 33.5 31.0002 33.5 29.2002 32.9C29.0002 32.8 28.8002 32.6 28.7002 32.8C28.5002 33 28.6002 33.3 28.7002 33.5C28.8002 33.7 29.1002 33.9 29.3002 34C30.2002 34.3 31.1002 34.4 32.0002 34.4ZM31.9002 36.6C32.9002 36.6 33.8002 36.5 34.6002 36.1C34.8002 36 35.0002 35.9 35.1002 35.7C35.2002 35.5 35.3002 35.2 35.1002 35C35.0002 34.8 34.7002 35 34.5002 35.1C32.7002 35.7 30.9002 35.7 29.1002 35.1C28.9002 35 28.7002 34.8 28.5002 35C28.4002 35.2 28.4002 35.5 28.6002 35.8C28.8002 36 29.0002 36.1 29.2002 36.2C30.3002 36.5 31.1002 36.6 31.9002 36.6ZM39.6002 38.7C39.9002 38.7 40.2002 38.7 40.4002 38.7C41.2002 38.6 41.9002 38.5 42.6002 38C42.9002 37.8 43.0002 37.4 42.9002 37.1C42.7002 36.7 42.5002 37.1 42.3002 37.1C40.5002 37.6 38.7002 37.7 36.9002 37.1C36.7002 37 36.5002 36.8 36.4002 37C36.3002 37.2 36.3002 37.5 36.4002 37.8C36.5002 38 36.8002 38.1 37.0002 38.2C37.8002 38.6 38.7002 38.8 39.6002 38.7ZM32.0002 38.7C32.8002 38.7 33.7002 38.6 34.4002 38.3C34.7002 38.2 34.9002 38.1 35.1002 37.9C35.3002 37.6 35.3002 37.3 35.2002 37.1C35.1002 36.9 34.8002 37.1 34.6002 37.2C32.8002 37.8 31.0002 37.8 29.2002 37.2C29.0002 37.1 28.8002 36.9 28.7002 37.1C28.5002 37.3 28.6002 37.6 28.7002 37.8C28.8002 38.1 29.1002 38.2 29.3002 38.3C30.3002 38.6 31.1002 38.8 32.0002 38.7ZM32.0002 40.9C32.3002 40.9 32.6002 40.9 32.9002 40.9C33.7002 40.8 34.4002 40.7 35.0002 40.2C35.3002 40 35.3002 39.6 35.2002 39.3C35.0002 38.9 34.8002 39.3 34.6002 39.3C32.8002 39.8 31.0002 39.8 29.3002 39.3C29.1002 39.2 28.9002 39 28.7002 39.2C28.6002 39.4 28.6002 39.7 28.7002 39.9C28.8002 40.1 29.0002 40.3 29.3002 40.4C30.2002 40.8 31.1002 40.9 32.0002 40.9ZM24.4002 35.5C25.1002 35.5 25.7002 35.4 26.3002 35.2C26.7002 35.1 27.1002 34.9 27.4002 34.7C27.7002 34.5 27.8002 34.1 27.7002 33.8C27.5002 33.4 27.3002 33.8 27.1002 33.8C25.3002 34.3 23.6002 34.4 21.8002 33.8C21.6002 33.7 21.4002 33.5 21.2002 33.7C21.0002 33.9 21.1002 34.3 21.3002 34.5C21.4002 34.7 21.7002 34.8 21.9002 34.9C22.7002 35.4 23.5002 35.5 24.4002 35.5ZM24.4002 39.9C25.3002 39.9 26.0002 39.8 26.8002 39.5C27.1002 39.4 27.3002 39.3 27.6002 39.1C27.9002 38.9 27.9002 38.5 27.8002 38.2C27.7002 37.9 27.4002 38.2 27.2002 38.3C25.4002 38.9 23.7002 38.9 21.9002 38.3C21.7002 38.2 21.4002 37.9 21.3002 38.2C21.2002 38.5 21.2002 38.8 21.5002 39.1C21.7002 39.3 22.0002 39.4 22.3002 39.5C22.9002 39.8 23.7002 39.8 24.4002 39.9ZM21.2002 36.3C21.2002 36.8 21.5002 37 21.9002 37.2C23.5002 37.9 25.1002 37.9 26.7002 37.3C27.0002 37.2 27.2002 37.1 27.5002 36.9C27.8002 36.7 27.8002 36.3 27.7002 36C27.6002 35.7 27.3002 36 27.1002 36.1C25.3002 36.6 23.5002 36.7 21.7002 36C21.3002 35.9 21.1002 35.8 21.2002 36.3Z" fill="#0088CC"/>
<path d="M42.9 30.6C42.7 30.8 42.5 30.9 42.1 30.9C40.6 30.9 39.1 30.9 37.7 30.9C37.3 30.9 37 30.9 37 30.4C37 30 37.4 30 37.7 30C38.9 30 40.2 30 41.4 30C41.8 30 42 29.9 42 29.5C42 24.8 42 20.1 42 15.4C42 14.8 41.6 14.9 41.3 14.9C34.8 14.9 28.2 14.9 21.7 14.9C19.3 14.9 17 14.9 14.6 14.9C14 14.9 13.9 15 13.9 15.6C13.9 20.2 13.9 24.8 13.9 29.4C13.9 29.9 14.1 30.1 14.6 30.1C16.1 30.1 17.5 30.1 19 30.1C19.1 30.1 19.3 30.1 19.4 30.1C19.7 30.1 20 30.2 20 30.5C20 30.9 19.7 31 19.4 31C17.5 31 15.6 31 13.7 31C13.4 31 13.2 30.9 13 30.7C13 25.3 13 19.8 13 14.4C13.2 14.1 13.5 14 13.8 14C23.2 14 32.6 14 42 14C42.4 14 42.6 14.1 42.9 14.3C42.9 19.8 42.9 25.2 42.9 30.6Z" fill="#1E3F6D"/>
<path d="M30.6 17C31.8 18.2 32.5 19.5 32.8 21.1C33 22.2 32.9 23.2 32.7 24.3C32.6 24.6 32.5 25 32.1 24.8C31.7 24.7 31.7 24.4 31.8 24C32.1 22.3 32 20.6 31 18.9C30.1 17.4 28.7 16.7 27.3 17C26.4 17.2 25.8 17.7 25.2 18.3C23.7 20.1 23.4 23.4 24.5 25.5C24.7 25.8 24.8 25.9 25.1 25.7C25.3 25.5 25.6 25.4 25.8 25.3C26.3 25.2 26.4 24.9 26.1 24.5C25.6 23.5 25.6 22.4 25.5 21.4C25.5 21 25.6 20.7 25.9 20.4C26.2 20.1 26.5 19.8 26.6 19.4C26.7 19.1 27 19 27.2 19.2C27.7 19.5 28.3 19.6 28.8 19.8C29.8 20.1 30.1 20.9 30.1 21.9C30 23 29.9 24 29.4 24.9C29.3 25.2 29.2 25.5 28.8 25.4C28.4 25.3 28.5 25 28.5 24.7C28.6 24.4 28.7 24.1 28.8 23.8C29.2 23 29 22.2 29.1 21.4C29.2 21 28.9 20.7 28.5 20.6C28.3 20.5 28 20.5 27.8 20.4C27.2 20.2 26.3 20.9 26.4 21.6C26.5 22.6 26.5 23.5 27 24.4C27.4 25.3 27.1 25.8 26.2 26.1C26 26.2 25.9 26.2 25.7 26.3C25.3 26.5 25.1 26.7 25.6 27.1C25.8 27.3 25.9 27.6 25.7 27.8C25.4 28.1 25.2 27.9 24.9 27.7C23.5 26.2 22.9 24.5 22.9 22.4C22.9 20.4 23.5 18.6 25 17.2C25.1 17.1 25.1 17.1 25.1 17C25 16.9 24.8 16.9 24.6 16.9C22.5 16.9 20.5 16.9 18.4 16.9C18 16.9 17.8 17 17.7 17.4C17.5 18.1 17 18.5 16.3 18.7C16 18.9 15.9 19 15.9 19.4C15.9 21.5 15.9 23.5 15.9 25.6C15.9 25.9 16 26.1 16.3 26.2C17 26.4 17.5 26.9 17.7 27.6C17.8 28 18 28 18.4 28C19.2 28 20 28 20.8 28C21.1 28 21.4 28 21.4 28.4C21.4 28.8 21.1 28.9 20.8 28.9C19.7 28.9 18.7 28.9 17.6 28.9C17.2 28.9 17 28.7 16.9 28.3C16.8 27.4 16.4 27 15.5 26.9C15.2 26.9 15 26.7 15 26.3C15 23.7 15 21.2 15 18.6C15 18.3 15.2 18 15.5 18C16.4 17.9 16.9 17.4 17 16.6C17 16 17.4 16 17.8 16C21.9 16 25.9 16 30 16C32.7 16 35.4 16 38 16C38.5 16 38.8 16.1 38.9 16.7C39 17.4 39.5 17.9 40.2 18C40.8 18.1 40.9 18.3 40.9 18.9C40.9 21.3 40.9 23.7 40.9 26.1C40.9 26.6 40.8 27 40.1 27C39.5 27.1 39 27.6 38.9 28.2C38.9 28.5 38.8 28.8 38.5 28.9C38 29 37.6 29.1 37.1 28.8C37 28.7 36.9 28.5 37 28.4C37.1 28.2 37.2 28.1 37.4 28.1C37.9 28.2 38 27.9 38.2 27.5C38.5 26.9 38.9 26.4 39.6 26.2C39.9 26.1 40 25.9 40 25.6C40 23.5 40 21.5 40 19.4C40 19.1 39.9 18.9 39.6 18.8C38.9 18.6 38.4 18.1 38.2 17.4C38.1 17.2 38 17 37.7 17C35.4 17 33.2 17 30.9 17C30.8 16.9 30.7 17 30.6 17Z" fill="#1E3F6D"/>
<path d="M36.3999 23.9C35.5999 23.9 34.8999 23.3 34.8999 22.5C34.9999 21.7 35.5999 21 36.3999 21C37.1999 21 37.8999 21.6 37.8999 22.4C37.8999 23.3 37.1999 23.9 36.3999 23.9ZM36.9999 22.5C36.9999 22.2 36.7999 22 36.4999 22C36.1999 22 35.8999 22.2 35.8999 22.5C35.8999 22.8 36.0999 23 36.3999 23C36.6999 23 36.8999 22.8 36.9999 22.5Z" fill="#1E3F6D"/>
<path d="M20.9 22.5C20.9 23.3 20.3 23.9 19.5 23.9C18.6 23.9 18 23.3 18 22.5C18 21.7 18.6 21 19.4 21C20.2 21 20.9 21.7 20.9 22.5ZM19.5 23C19.8 22.9 20 22.8 20 22.4C20 22.1 19.8 21.9 19.4 21.9C19.1 22 18.9 22.2 18.9 22.5C18.9 22.8 19.1 23 19.5 23Z" fill="#1E3F6D"/>
</svg>
