<svg width="50" height="32" viewBox="0 0 50 32" fill="none" xmlns="http://www.w3.org/2000/svg">
<path d="M29.3635 23.8644H20.6143V8.14062H29.3635V23.8644Z" fill="#FF5F00"/>
<path d="M21.1748 16.0012C21.1748 12.8116 22.6682 9.97032 24.9938 8.13931C23.2931 6.80038 21.1468 6.00122 18.8142 6.00122C13.2919 6.00122 8.81543 10.4783 8.81543 16.0012C8.81543 21.5241 13.2919 26.0012 18.8142 26.0012C21.1468 26.0012 23.2931 25.2021 24.9938 23.8631C22.6682 22.0321 21.1748 19.1909 21.1748 16.0012Z" fill="#EB001B"/>
<path d="M41.1634 16.0012C41.1634 21.5241 36.687 26.0012 31.1647 26.0012C28.832 26.0012 26.6857 25.2021 24.9844 23.8631C27.3107 22.0321 28.8041 19.1909 28.8041 16.0012C28.8041 12.8116 27.3107 9.97032 24.9844 8.13931C26.6857 6.80038 28.832 6.00122 31.1647 6.00122C36.687 6.00122 41.1634 10.4783 41.1634 16.0012Z" fill="#F79E1B"/>
<path d="M16.3393 16.0646C16.3393 15.6278 16.6256 15.269 17.0933 15.269C17.5402 15.269 17.8419 15.6123 17.8419 16.0646C17.8419 16.5169 17.5402 16.8602 17.0933 16.8602C16.6256 16.8602 16.3393 16.5014 16.3393 16.0646ZM18.3513 16.0646V14.822H17.811V15.1238C17.6396 14.9 17.3796 14.7596 17.0261 14.7596C16.3292 14.7596 15.7829 15.3059 15.7829 16.0646C15.7829 16.8239 16.3292 17.3696 17.0261 17.3696C17.3796 17.3696 17.6396 17.2292 17.811 17.0054V17.3071H18.3513V16.0646ZM36.6111 16.0646C36.6111 15.6278 36.8974 15.269 37.3651 15.269C37.8126 15.269 38.1137 15.6123 38.1137 16.0646C38.1137 16.5169 37.8126 16.8602 37.3651 16.8602C36.8974 16.8602 36.6111 16.5014 36.6111 16.0646ZM38.6237 16.0646V13.8241H38.0828V15.1238C37.9114 14.9 37.6513 14.7596 37.2979 14.7596C36.601 14.7596 36.0547 15.3059 36.0547 16.0646C36.0547 16.8239 36.601 17.3696 37.2979 17.3696C37.6513 17.3696 37.9114 17.2292 38.0828 17.0054V17.3071H38.6237V16.0646ZM25.0586 15.2434C25.4067 15.2434 25.6305 15.4618 25.6876 15.8462H24.3981C24.4558 15.4874 24.6736 15.2434 25.0586 15.2434ZM25.0693 14.7596C24.3409 14.7596 23.8315 15.2898 23.8315 16.0646C23.8315 16.8549 24.3618 17.3696 25.1056 17.3696C25.4799 17.3696 25.8227 17.2762 26.1244 17.0215L25.8596 16.621C25.6513 16.787 25.3859 16.8811 25.1366 16.8811C24.7884 16.8811 24.4713 16.7198 24.3933 16.2723H26.2387C26.244 16.205 26.2494 16.1372 26.2494 16.0646C26.244 15.2898 25.7656 14.7596 25.0693 14.7596ZM31.5939 16.0646C31.5939 15.6278 31.8802 15.269 32.3479 15.269C32.7948 15.269 33.0965 15.6123 33.0965 16.0646C33.0965 16.5169 32.7948 16.8602 32.3479 16.8602C31.8802 16.8602 31.5939 16.5014 31.5939 16.0646ZM33.6059 16.0646V14.822H33.0656V15.1238C32.8936 14.9 32.6341 14.7596 32.2806 14.7596C31.5838 14.7596 31.0375 15.3059 31.0375 16.0646C31.0375 16.8239 31.5838 17.3696 32.2806 17.3696C32.6341 17.3696 32.8936 17.2292 33.0656 17.0054V17.3071H33.6059V16.0646ZM28.5423 16.0646C28.5423 16.8186 29.0672 17.3696 29.8681 17.3696C30.2425 17.3696 30.4918 17.2863 30.762 17.0733L30.5025 16.6365C30.2996 16.7823 30.0865 16.8602 29.8521 16.8602C29.4206 16.8549 29.1035 16.543 29.1035 16.0646C29.1035 15.5861 29.4206 15.2743 29.8521 15.269C30.0865 15.269 30.2996 15.3469 30.5025 15.4927L30.762 15.0559C30.4918 14.8429 30.2425 14.7596 29.8681 14.7596C29.0672 14.7596 28.5423 15.3106 28.5423 16.0646ZM35.509 14.7596C35.1972 14.7596 34.9943 14.9054 34.8538 15.1238V14.822H34.3182V17.3071H34.8592V15.914C34.8592 15.5028 35.0359 15.2743 35.3894 15.2743C35.4989 15.2743 35.6132 15.2898 35.7274 15.3368L35.894 14.8274C35.7744 14.7804 35.6185 14.7596 35.509 14.7596ZM21.0239 15.0196C20.7638 14.8482 20.4056 14.7596 20.0105 14.7596C19.3808 14.7596 18.9756 15.0613 18.9756 15.5552C18.9756 15.9605 19.2773 16.2104 19.8331 16.2883L20.0884 16.3246C20.3848 16.3663 20.5246 16.4443 20.5246 16.5847C20.5246 16.7769 20.327 16.8864 19.9581 16.8864C19.5838 16.8864 19.3136 16.7668 19.1315 16.6264L18.8768 17.0471C19.1732 17.2655 19.5475 17.3696 19.9527 17.3696C20.6704 17.3696 21.0864 17.0316 21.0864 16.5585C21.0864 16.1217 20.7591 15.8932 20.2181 15.8152L19.9634 15.7784C19.7296 15.7474 19.5421 15.701 19.5421 15.5344C19.5421 15.3523 19.7189 15.2434 20.0152 15.2434C20.3324 15.2434 20.6395 15.363 20.79 15.4564L21.0239 15.0196ZM27.996 14.7596C27.6842 14.7596 27.4812 14.9054 27.3414 15.1238V14.822H26.8058V17.3071H27.3461V15.914C27.3461 15.5028 27.5229 15.2743 27.8764 15.2743C27.9859 15.2743 28.1001 15.2898 28.2144 15.3368L28.381 14.8274C28.2614 14.7804 28.1055 14.7596 27.996 14.7596ZM23.3846 14.822H22.5009V14.0681H21.9546V14.822H21.4506V15.316H21.9546V16.4496C21.9546 17.0263 22.1784 17.3696 22.8175 17.3696C23.052 17.3696 23.3221 17.297 23.4935 17.1774L23.3376 16.7144C23.1763 16.8079 22.9996 16.8549 22.8592 16.8549C22.589 16.8549 22.5009 16.6882 22.5009 16.4389V15.316H23.3846V14.822ZM15.3051 17.3071V15.7474C15.3051 15.1601 14.9307 14.7649 14.3273 14.7596C14.0101 14.7542 13.6828 14.853 13.4537 15.2017C13.2823 14.9262 13.0122 14.7596 12.6325 14.7596C12.3671 14.7596 12.1076 14.8375 11.9047 15.1285V14.822H11.3638V17.3071H11.9095V15.9295C11.9095 15.4981 12.1487 15.269 12.5182 15.269C12.8771 15.269 13.0586 15.5028 13.0586 15.9242V17.3071H13.6049V15.9295C13.6049 15.4981 13.8542 15.269 14.2131 15.269C14.582 15.269 14.7588 15.5028 14.7588 15.9242V17.3071H15.3051Z" fill="white"/>
</svg>
