<?xml version="1.0" encoding="UTF-8" standalone="no" ?>
<!DOCTYPE svg PUBLIC "-//W3C//DTD SVG 1.1//EN" "http://www.w3.org/Graphics/SVG/1.1/DTD/svg11.dtd">
<svg xmlns="http://www.w3.org/2000/svg" xmlns:xlink="http://www.w3.org/1999/xlink" version="1.1" width="500" height="500" viewBox="0 0 500 500" xml:space="preserve">
<desc>Created with Fabric.js 3.6.3</desc>
<defs>
</defs>
<g transform="matrix(1.2105263157894737 0 0 1.2105263157894737 253.26577740470782 250)"  >
<path style="stroke: none; stroke-width: 1; stroke-dasharray: none; stroke-linecap: butt; stroke-dashoffset: 0; stroke-linejoin: miter; stroke-miterlimit: 4; fill: rgb(52,152,219); fill-rule: evenodd; opacity: 1;"  transform=" translate(-256, -256)" d="M 76 436 V 391 h 5.126 v 40.048 H 430.874 V 80.952 H 81.126 V 304 H 76 V 76 H 436 V 436 H 76 Z" stroke-linecap="round" />
</g>
<g transform="matrix(1 0 0 1 231.98066960280792 368.37790308284184)" style=""  ><path fill="#96CA2D" opacity="1" d="M-149.24-37.55L-149.51-37.55C-151.03-37.55-152.29-36.30-152.29-34.77C-152.29-34.77-152.29 9.77-152.29 12.11C-152.29 14.44-152.74 15.25-154.27 12.91C-155.88 10.67-188.21-36.39-188.21-36.39C-189.02-37.55-190.46-37.82-191.80-37.28C-192.79-36.93-193.51-35.58-193.51-34.68L-193.51 25.22C-193.51 26.74-192.25 28-190.73 28L-190.46 28C-188.93 28-187.67 26.74-187.67 25.22C-187.67 25.22-187.67-18.25-187.67-21.03C-187.67-23.81-186.86-24.17-185.43-22.11C-184.08-20.13-151.84 26.74-151.84 26.74C-151.03 27.91-149.60 28.27-148.34 27.73C-147.26 27.28-146.45 26.29-146.45 25.13L-146.45-34.77C-146.45-36.30-147.71-37.55-149.24-37.55Z"/><path fill="#96CA2D" opacity="1" d="M-104.91-38.63C-123.68-38.63-138.86-23.55-138.86-4.78C-138.86 13.90-123.68 29.17-104.91 29.17C-86.14 29.17-71.87 13.90-71.87-4.78C-71.87-23.55-86.14-38.63-104.91-38.63ZM-104.91 23.78C-120.45 23.78-133.11 10.76-133.11-4.78C-133.11-20.40-120.45-33.33-104.91-33.33C-89.38-33.33-77.61-20.40-77.61-4.78C-77.61 10.76-89.38 23.78-104.91 23.78Z"/><path fill="#96CA2D" opacity="1" d="M-23.98-37.28L-24.16-37.37C-25.60-37.91-27.21-37.19-27.75-35.76L-38.62-6.57C-38.62-6.57-44.99 12.02-45.71 14.08C-47.51 18.84-47.51 17.76-48.77 14.44C-49.57 12.20-56.22-6.57-56.22-6.57L-67.09-35.76C-67.62-37.19-69.24-37.91-70.68-37.37L-70.86-37.28C-72.29-36.75-73.01-35.13-72.47-33.69L-50.20 26.20C-49.75 27.37-48.59 28-47.42 28C-46.25 28-45.08 27.37-44.64 26.20L-22.36-33.69C-21.83-35.13-22.54-36.75-23.98-37.28Z"/><path fill="#96CA2D" opacity="1" d="M-0.30-35.85C-0.75-37.02-1.83-37.55-2.99-37.55C-4.07-37.55-5.24-37.02-5.69-35.85L-30.83 24.05C-31.37 25.40-30.74 27.10-29.31 27.64L-29.13 27.73C-27.69 28.36-26.07 27.64-25.44 26.29C-25.44 26.29-19.07 11.12-18.62 10.04C-18.17 8.96-17.54 8.60-16.46 8.60C-15.57 8.60 4.46 8.60 10.39 8.60C11.46 8.60 12.18 8.96 12.54 9.77C12.90 10.58 19.46 26.29 19.46 26.29C20.08 27.64 21.70 28.36 23.14 27.73L23.32 27.64C24.75 27.10 25.47 25.40 24.84 24.05L-0.30-35.85ZM-15.12 1.60C-14.85 0.97-6.68-19.68-3.89-25.70C-3.17-27.23-2.81-27.23-2.19-25.70C0.33-19.68 8.59 0.43 9.04 1.33C9.49 2.41 9.31 2.77 8.05 2.77C6.88 2.77-9.01 2.77-14.04 2.77C-15.03 2.77-15.39 2.41-15.12 1.60Z"/><path fill="#96CA2D" opacity="1" d="M62.00 22.16L36.31 22.16C35.51 22.16 35.33 21.89 35.33 21.09L35.33-34.77C35.33-36.30 34.07-37.55 32.54-37.55L32.27-37.55C30.75-37.55 29.49-36.30 29.49-34.77L29.49 25.22C29.49 26.74 30.75 28 32.27 28L62.00 28C63.52 28 64.78 26.74 64.78 25.22L64.78 24.95C64.78 23.42 63.52 22.16 62.00 22.16Z"/><path fill="#96CA2D" opacity="1" d="M73.45-37.55L73.27-37.55C71.75-37.55 70.49-36.30 70.49-34.77L70.49 25.22C70.49 26.74 71.75 28 73.27 28L73.45 28C74.98 28 76.24 26.74 76.24 25.22L76.24-34.77C76.24-36.30 74.98-37.55 73.45-37.55Z"/><path fill="#96CA2D" opacity="1" d="M103.99-13.49C105.61-15.55 119.16-32.97 119.16-32.97C120.15-34.14 119.88-35.94 118.72-36.84L118.54-37.02C117.28-37.91 115.57-37.73 114.59-36.48C114.59-36.48 93.93-9.90 92.85-8.46C91.78-7.02 91.33-7.20 91.33-9.27C91.33-11.24 91.33-34.77 91.33-34.77C91.33-36.30 90.07-37.55 88.54-37.55L88.27-37.55C86.75-37.55 85.49-36.30 85.49-34.77L85.49 25.22C85.49 26.74 86.75 28 88.27 28L88.54 28C90.07 28 91.33 26.74 91.33 25.22C91.33 25.22 91.33 8.96 91.33 6.36C91.33 3.75 91.69 2.41 92.76 1.06C93.48 0.07 95.64-2.62 96.98-4.42C97.70-5.32 98.51-5.41 99.23-4.24C99.95-3.07 118.90 26.74 118.90 26.74C119.70 28 121.50 28.36 122.76 27.55L122.94 27.46C124.28 26.56 124.64 24.86 123.83 23.60C123.83 23.60 104.26-7.20 103.18-8.73C102.19-10.34 102.37-11.42 103.99-13.49Z"/></g>
<g transform="matrix(1 0 0 1 116.52111032074446 87.47990308284186)" style=""  ><path fill="#3498db" opacity="1" d="M-59.67-37.48L-55.44-37.48L-53.35-35.43L-53.35-30.61L-55.42-28.43L-58.03-28.43L-58.03-24L-59.67-24L-59.67-37.48ZM-58.03-35.84L-58.03-30.07L-56.12-30.07L-55.01-31.25L-55.01-34.75L-56.10-35.84L-58.03-35.84Z"/><path fill="#3498db" opacity="1" d="M-47.39-35.83L-49.05-35.83L-49.05-30.17L-47.41-30.17L-46.29-31.38L-46.29-34.73L-47.39-35.83ZM-47.63-28.54L-49.05-28.54L-49.05-24L-50.69-24L-50.69-37.48L-46.73-37.48L-44.66-35.39L-44.66-30.73L-46.11-29.17L-43.72-24L-45.52-24L-47.63-28.54Z"/><path fill="#3498db" opacity="1" d="M-38.13-37.66L-36.10-35.63L-36.10-26.11L-38.13-23.95L-40.72-23.95L-42.74-26.11L-42.74-35.63L-40.71-37.66L-38.13-37.66ZM-40.02-25.57L-38.83-25.57L-37.74-26.74L-37.74-34.96L-38.82-36.04L-40.04-36.04L-41.12-34.96L-41.12-26.74L-40.02-25.57Z"/><path fill="#3498db" opacity="1" d="M-32.01-35.81L-32.01-25.64L-30.03-25.64L-28.97-26.70L-28.97-34.76L-30.03-35.81L-32.01-35.81ZM-29.35-24L-33.65-24L-33.65-37.45L-29.35-37.45L-27.33-35.43L-27.33-26.03L-29.35-24Z"/><path fill="#3498db" opacity="1" d="M-24.65-26.09L-24.65-37.50L-23.01-37.50L-23.01-26.70L-21.99-25.57L-20.91-25.57L-19.88-26.70L-19.88-37.50L-18.24-37.50L-18.24-26.09L-20.17-23.93L-22.71-23.93L-24.65-26.09Z"/><path fill="#3498db" opacity="1" d="M-9.26-33.52L-10.90-33.52L-10.90-34.91L-11.92-35.97L-13.09-35.97L-14.10-34.91L-14.10-26.70L-13.08-25.55L-11.94-25.55L-10.90-26.70L-10.90-28.19L-9.26-28.21L-9.26-26.09L-11.22-23.91L-13.80-23.91L-15.74-26.09L-15.74-35.56L-13.78-37.61L-11.22-37.61L-9.26-35.56L-9.26-33.52Z"/><path fill="#3498db" opacity="1" d="M-3.75-24L-5.39-24L-5.39-36.02L-7.77-36.02L-7.77-37.50L-1.36-37.50L-1.36-36.02L-3.75-36.02L-3.75-24Z"/><path fill="#3498db" opacity="1" d="M1.95-37.50L1.95-24L0.31-24L0.31-37.50L1.95-37.50Z"/><path fill="#3498db" opacity="1" d="M7.87-37.66L9.90-35.63L9.90-26.11L7.87-23.95L5.28-23.95L3.26-26.11L3.26-35.63L5.29-37.66L7.87-37.66ZM5.98-25.57L7.17-25.57L8.26-26.74L8.26-34.96L7.18-36.04L5.96-36.04L4.88-34.96L4.88-26.74L5.98-25.57Z"/><path fill="#3498db" opacity="1" d="M13.93-24L12.30-24L12.30-37.45L14.51-37.45L16.04-32.62L17.43-27.58L17.48-27.58L17.17-32.71L17.17-37.45L18.81-37.45L18.81-24L17.07-24L14.96-30.62L13.79-34.60L13.74-34.60L13.93-30.48L13.93-24Z"/><path fill="#3498db" opacity="1" d=""/><path fill="#3498db" opacity="1" d=""/><path fill="#3498db" opacity="1" d="M-58.01-15.81L-58.01-5.64L-56.03-5.64L-54.97-6.70L-54.97-14.76L-56.03-15.81L-58.01-15.81ZM-55.35-4L-59.65-4L-59.65-17.45L-55.35-17.45L-53.33-15.43L-53.33-6.03L-55.35-4Z"/><path fill="#3498db" opacity="1" d="M-49.03-15.84L-49.03-11.49L-45.77-11.49L-45.77-9.85L-49.03-9.85L-49.03-5.64L-44.89-5.64L-44.89-4L-50.67-4L-50.67-17.48L-45.14-17.48L-45.14-15.84L-49.03-15.84Z"/><path fill="#3498db" opacity="1" d="M-38.88-17.50L-37.22-17.50L-39.28-3.93L-42.48-3.93L-44.50-17.50L-42.82-17.50L-41.06-5.57L-40.68-5.57L-38.88-17.50Z"/><path fill="#3498db" opacity="1" d="M-33.03-15.84L-33.03-11.49L-29.77-11.49L-29.77-9.85L-33.03-9.85L-33.03-5.64L-28.89-5.64L-28.89-4L-34.67-4L-34.67-17.48L-29.14-17.48L-29.14-15.84L-33.03-15.84Z"/><path fill="#3498db" opacity="1" d="M-27.69-4L-27.69-17.48L-26.05-17.48L-26.05-5.57L-21.98-5.57L-21.98-4L-27.69-4Z"/><path fill="#3498db" opacity="1" d="M-16.13-17.66L-14.10-15.63L-14.10-6.11L-16.13-3.95L-18.72-3.95L-20.74-6.11L-20.74-15.63L-18.71-17.66L-16.13-17.66ZM-18.02-5.57L-16.83-5.57L-15.74-6.74L-15.74-14.96L-16.82-16.04L-18.04-16.04L-19.12-14.96L-19.12-6.74L-18.02-5.57Z"/><path fill="#3498db" opacity="1" d="M-11.67-17.48L-7.44-17.48L-5.35-15.43L-5.35-10.61L-7.42-8.43L-10.03-8.43L-10.03-4L-11.67-4L-11.67-17.48ZM-10.03-15.84L-10.03-10.07L-8.12-10.07L-7.01-11.25L-7.01-14.75L-8.10-15.84L-10.03-15.84Z"/><path fill="#3498db" opacity="1" d="M6.35-4.02L4.71-4.02L4.71-15.88L4.51-15.88L2.88-5.15L0.79-5.15L-0.85-15.88L-1.05-15.88L-1.05-4.02L-2.69-4.02L-2.69-17.48L0.54-17.48L1.31-12.21L1.81-7.51L1.87-7.51L2.35-12.14L3.13-17.48L6.35-17.48L6.35-4.02Z"/><path fill="#3498db" opacity="1" d="M9.97-15.84L9.97-11.49L13.23-11.49L13.23-9.85L9.97-9.85L9.97-5.64L14.11-5.64L14.11-4L8.33-4L8.33-17.48L13.86-17.48L13.86-15.84L9.97-15.84Z"/><path fill="#3498db" opacity="1" d="M16.93-4L15.30-4L15.30-17.45L17.51-17.45L19.04-12.62L20.43-7.58L20.48-7.58L20.17-12.71L20.17-17.45L21.81-17.45L21.81-4L20.07-4L17.96-10.62L16.79-14.60L16.74-14.60L16.93-10.48L16.93-4Z"/><path fill="#3498db" opacity="1" d="M27.25-4L25.61-4L25.61-16.02L23.23-16.02L23.23-17.50L29.64-17.50L29.64-16.02L27.25-16.02L27.25-4Z"/><path fill="#3498db" opacity="1" d=""/><path fill="#3498db" opacity="1" d=""/><path fill="#3498db" opacity="1" d="M-59.67 1.52L-55.44 1.52L-53.35 3.57L-53.35 8.39L-55.42 10.57L-58.03 10.57L-58.03 15L-59.67 15L-59.67 1.52ZM-58.03 3.16L-58.03 8.93L-56.12 8.93L-55.01 7.75L-55.01 4.25L-56.10 3.16L-58.03 3.16Z"/><path fill="#3498db" opacity="1" d="M-47.39 3.17L-49.05 3.17L-49.05 8.83L-47.41 8.83L-46.29 7.62L-46.29 4.27L-47.39 3.17ZM-47.63 10.46L-49.05 10.46L-49.05 15L-50.69 15L-50.69 1.52L-46.73 1.52L-44.66 3.61L-44.66 8.27L-46.11 9.83L-43.72 15L-45.52 15L-47.63 10.46Z"/><path fill="#3498db" opacity="1" d="M-38.13 1.34L-36.10 3.37L-36.10 12.89L-38.13 15.05L-40.72 15.05L-42.74 12.89L-42.74 3.37L-40.71 1.34L-38.13 1.34ZM-40.02 13.43L-38.83 13.43L-37.74 12.26L-37.74 4.04L-38.82 2.96L-40.04 2.96L-41.12 4.04L-41.12 12.26L-40.02 13.43Z"/><path fill="#3498db" opacity="1" d="M-24.65 14.98L-26.29 14.98L-26.29 3.12L-26.49 3.12L-28.12 13.85L-30.21 13.85L-31.85 3.12L-32.05 3.12L-32.05 14.98L-33.69 14.98L-33.69 1.52L-30.46 1.52L-29.69 6.79L-29.19 11.49L-29.13 11.49L-28.65 6.86L-27.87 1.52L-24.65 1.52L-24.65 14.98Z"/><path fill="#3498db" opacity="1" d="M-17.13 1.34L-15.10 3.37L-15.10 12.89L-17.13 15.05L-19.72 15.05L-21.74 12.89L-21.74 3.37L-19.71 1.34L-17.13 1.34ZM-19.02 13.43L-17.83 13.43L-16.74 12.26L-16.74 4.04L-17.82 2.96L-19.04 2.96L-20.12 4.04L-20.12 12.26L-19.02 13.43Z"/><path fill="#3498db" opacity="1" d="M-9.75 15L-11.39 15L-11.39 2.98L-13.77 2.98L-13.77 1.50L-7.36 1.50L-7.36 2.98L-9.75 2.98L-9.75 15Z"/><path fill="#3498db" opacity="1" d="M-4.05 1.50L-4.05 15L-5.69 15L-5.69 1.50L-4.05 1.50Z"/><path fill="#3498db" opacity="1" d="M2.87 1.34L4.90 3.37L4.90 12.89L2.87 15.05L0.28 15.05L-1.74 12.89L-1.74 3.37L0.29 1.34L2.87 1.34ZM0.98 13.43L2.17 13.43L3.26 12.26L3.26 4.04L2.18 2.96L0.96 2.96L-0.12 4.04L-0.12 12.26L0.98 13.43Z"/><path fill="#3498db" opacity="1" d="M8.93 15L7.30 15L7.30 1.55L9.51 1.55L11.04 6.38L12.43 11.42L12.48 11.42L12.17 6.29L12.17 1.55L13.81 1.55L13.81 15L12.07 15L9.96 8.38L8.79 4.40L8.74 4.40L8.93 8.52L8.93 15Z"/><path fill="#3498db" opacity="1" d=""/><path fill="#3498db" opacity="1" d=""/><path fill="#3498db" opacity="1" d="M-58.01 24.19L-58.01 34.36L-56.03 34.36L-54.97 33.30L-54.97 25.24L-56.03 24.19L-58.01 24.19ZM-55.35 36L-59.65 36L-59.65 22.55L-55.35 22.55L-53.33 24.57L-53.33 33.97L-55.35 36Z"/><path fill="#3498db" opacity="1" d="M-49.05 22.50L-49.05 36L-50.69 36L-50.69 22.50L-49.05 22.50Z"/><path fill="#3498db" opacity="1" d="M-46.94 31.54L-45.32 31.54L-45.32 33.35L-44.26 34.47L-43.07 34.47L-42.01 33.35L-42.01 31.21L-46.85 27.83L-46.85 24.44L-44.92 22.43L-42.40 22.43L-40.48 24.44L-40.48 26.51L-42.10 26.51L-42.10 25.11L-43.10 24.05L-44.24 24.05L-45.23 25.11L-45.23 26.98L-40.40 30.37L-40.40 34.00L-42.38 36.09L-44.96 36.09L-46.94 34.00L-46.94 31.54Z"/><path fill="#3498db" opacity="1" d="M-34.75 36L-36.39 36L-36.39 23.98L-38.77 23.98L-38.77 22.50L-32.36 22.50L-32.36 23.98L-34.75 23.98L-34.75 36Z"/><path fill="#3498db" opacity="1" d="M-27.39 24.17L-29.05 24.17L-29.05 29.83L-27.41 29.83L-26.29 28.62L-26.29 25.27L-27.39 24.17ZM-27.63 31.46L-29.05 31.46L-29.05 36L-30.69 36L-30.69 22.52L-26.73 22.52L-24.66 24.61L-24.66 29.27L-26.11 30.83L-23.72 36L-25.52 36L-27.63 31.46Z"/><path fill="#3498db" opacity="1" d="M-22.65 33.91L-22.65 22.50L-21.01 22.50L-21.01 33.30L-19.99 34.43L-18.91 34.43L-17.88 33.30L-17.88 22.50L-16.24 22.50L-16.24 33.91L-18.17 36.07L-20.71 36.07L-22.65 33.91Z"/><path fill="#3498db" opacity="1" d="M-9.24 36L-13.56 36L-13.56 22.54L-9.60 22.54L-7.58 24.57L-7.58 27.86L-8.57 29.05L-7.22 30.38L-7.22 33.98L-9.24 36ZM-11.90 24.21L-11.90 28.35L-10.19 28.35L-9.24 27.22L-9.24 25.25L-10.28 24.21L-11.90 24.21ZM-10.03 30.01L-11.90 30.01L-11.90 34.34L-9.92 34.34L-8.88 33.30L-8.88 31.14L-10.03 30.01Z"/><path fill="#3498db" opacity="1" d="M-4.65 33.91L-4.65 22.50L-3.01 22.50L-3.01 33.30L-1.99 34.43L-0.91 34.43L0.12 33.30L0.12 22.50L1.76 22.50L1.76 33.91L-0.17 36.07L-2.71 36.07L-4.65 33.91Z"/><path fill="#3498db" opacity="1" d="M6.25 36L4.61 36L4.61 23.98L2.23 23.98L2.23 22.50L8.64 22.50L8.64 23.98L6.25 23.98L6.25 36Z"/><path fill="#3498db" opacity="1" d="M11.95 22.50L11.95 36L10.31 36L10.31 22.50L11.95 22.50Z"/><path fill="#3498db" opacity="1" d="M18.87 22.34L20.90 24.37L20.90 33.89L18.87 36.05L16.28 36.05L14.26 33.89L14.26 24.37L16.29 22.34L18.87 22.34ZM16.98 34.43L18.17 34.43L19.26 33.26L19.26 25.04L18.18 23.96L16.96 23.96L15.88 25.04L15.88 33.26L16.98 34.43Z"/><path fill="#3498db" opacity="1" d="M25.93 36L24.30 36L24.30 22.55L26.51 22.55L28.04 27.38L29.43 32.42L29.48 32.42L29.17 27.29L29.17 22.55L30.81 22.55L30.81 36L29.07 36L26.96 29.38L25.79 25.40L25.74 25.40L25.93 29.52L25.93 36Z"/></g>
</svg>