<svg width="17" height="18" viewBox="0 0 17 18" fill="none" xmlns="http://www.w3.org/2000/svg">
<path d="M16.7918 16.5411L12.6563 12.4439C13.6659 11.2237 14.2696 9.66659 14.2696 7.96515C14.2696 4.06385 11.0743 0.898132 7.13653 0.898132C3.19531 0.898132 0 4.06385 0 7.96858C0 11.8733 3.19531 15.039 7.13653 15.039C8.85041 15.039 10.4255 14.441 11.6571 13.4407L15.7892 17.5345C16.0667 17.8095 16.5143 17.8095 16.7918 17.5345C17.0694 17.2595 17.0694 16.8161 16.7918 16.5411ZM1.41551 7.96858C1.41551 4.84067 3.97592 2.30397 7.13306 2.30397C10.2902 2.30397 12.8506 4.84067 12.8506 7.96858C12.8506 11.0965 10.2902 13.6332 7.13306 13.6332C3.97592 13.6332 1.41551 11.0965 1.41551 7.96858Z" fill="#242424" fill-opacity="0.5"/>
</svg>
