<svg width="26" height="26" viewBox="0 0 26 26" fill="none" xmlns="http://www.w3.org/2000/svg">
<rect x="1" y="1" width="24" height="24" rx="12" stroke="white"/>
<path fill-rule="evenodd" clip-rule="evenodd" d="M18.869 8.07003C19.5115 8.24301 20.0181 8.7496 20.191 9.3921C20.5123 10.5659 20.4999 13.0123 20.4999 13.0123C20.4999 13.0123 20.4999 15.4464 20.191 16.6202C20.0181 17.2627 19.5115 17.7693 18.869 17.9423C17.6952 18.2512 13 18.2512 13 18.2512C13 18.2512 8.31712 18.2512 7.13097 17.93C6.48846 17.757 5.98188 17.2504 5.80889 16.6079C5.5 15.4464 5.5 13 5.5 13C5.5 13 5.5 10.5659 5.80889 9.3921C5.98188 8.7496 6.50082 8.23066 7.13097 8.05767C8.30477 7.74878 13 7.74878 13 7.74878C13 7.74878 17.6952 7.74878 18.869 8.07003ZM15.4094 13L11.5049 15.2487V10.7512L15.4094 13Z" fill="white"/>
</svg>
