<svg width="26" height="26" viewBox="0 0 26 26" fill="none" xmlns="http://www.w3.org/2000/svg">
<rect x="1" y="1" width="24" height="24" rx="12" stroke="white"/>
<path d="M10.5009 13C10.5009 11.6193 11.6198 10.4998 13.0005 10.4998C14.3811 10.4998 15.5007 11.6193 15.5007 13C15.5007 14.3807 14.3811 15.5002 13.0005 15.5002C11.6198 15.5002 10.5009 14.3807 10.5009 13ZM9.14933 13C9.14933 15.127 10.8735 16.8512 13.0005 16.8512C15.1275 16.8512 16.8516 15.127 16.8516 13C16.8516 10.873 15.1275 9.14884 13.0005 9.14884C10.8735 9.14884 9.14933 10.873 9.14933 13ZM16.1041 8.99614C16.104 9.17414 16.1568 9.34817 16.2556 9.49621C16.3544 9.64426 16.4949 9.75967 16.6594 9.82785C16.8238 9.89604 17.0047 9.91393 17.1793 9.87928C17.3539 9.84462 17.5143 9.75897 17.6403 9.63315C17.7662 9.50733 17.8519 9.347 17.8867 9.17243C17.9215 8.99787 17.9038 8.8169 17.8357 8.65242C17.7677 8.48794 17.6524 8.34733 17.5044 8.24838C17.3565 8.14943 17.1825 8.09657 17.0045 8.0965H17.0041C16.7655 8.09661 16.5367 8.19142 16.368 8.3601C16.1992 8.52878 16.1043 8.75754 16.1041 8.99614ZM9.97049 19.1048C9.23927 19.0715 8.84183 18.9497 8.57771 18.8468C8.22755 18.7105 7.97771 18.5481 7.71503 18.2858C7.45235 18.0235 7.28975 17.7739 7.15403 17.4237C7.05107 17.1597 6.92927 16.7622 6.89603 16.031C6.85967 15.2404 6.85241 15.0029 6.85241 13.0001C6.85241 10.9972 6.86027 10.7604 6.89603 9.96916C6.92933 9.23794 7.05203 8.84116 7.15403 8.57638C7.29035 8.22622 7.45271 7.97638 7.71503 7.7137C7.97735 7.45102 8.22695 7.28842 8.57771 7.1527C8.84171 7.04974 9.23927 6.92794 9.97049 6.8947C10.761 6.85834 10.9985 6.85108 13.0005 6.85108C15.0024 6.85108 15.2402 6.85894 16.0314 6.8947C16.7626 6.928 17.1594 7.0507 17.4242 7.1527C17.7743 7.28842 18.0242 7.45138 18.2868 7.7137C18.5495 7.97602 18.7115 8.22622 18.8478 8.57638C18.9508 8.84038 19.0726 9.23794 19.1058 9.96916C19.1422 10.7604 19.1495 10.9972 19.1495 13.0001C19.1495 15.0029 19.1422 15.2397 19.1058 16.031C19.0725 16.7622 18.9501 17.1596 18.8478 17.4237C18.7115 17.7739 18.5492 18.0237 18.2868 18.2858C18.0245 18.5479 17.7743 18.7105 17.4242 18.8468C17.1602 18.9498 16.7626 19.0716 16.0314 19.1048C15.2408 19.1412 15.0033 19.1484 13.0005 19.1484C10.9976 19.1484 10.7608 19.1412 9.97049 19.1048ZM9.90839 5.54542C9.10997 5.58178 8.56439 5.70838 8.08793 5.89378C7.59449 6.08524 7.17677 6.3421 6.75935 6.75886C6.34193 7.17562 6.08573 7.594 5.89427 8.08744C5.70887 8.5642 5.58227 9.10948 5.54591 9.9079C5.50895 10.7076 5.50049 10.9632 5.50049 13C5.50049 15.0368 5.50895 15.2924 5.54591 16.0921C5.58227 16.8906 5.70887 17.4358 5.89427 17.9126C6.08573 18.4057 6.34199 18.8246 6.75935 19.2411C7.17671 19.6577 7.59449 19.9142 8.08793 20.1062C8.56529 20.2916 9.10997 20.4182 9.90839 20.4546C10.7085 20.4909 10.9637 20.5 13.0005 20.5C15.0372 20.5 15.2929 20.4915 16.0926 20.4546C16.8911 20.4182 17.4363 20.2916 17.913 20.1062C18.4062 19.9142 18.8242 19.6579 19.2416 19.2411C19.659 18.8244 19.9147 18.4057 20.1067 17.9126C20.2921 17.4358 20.4193 16.8905 20.4551 16.0921C20.4914 15.2918 20.4999 15.0368 20.4999 13C20.4999 10.9632 20.4914 10.7076 20.4551 9.9079C20.4187 9.10942 20.2921 8.5639 20.1067 8.08744C19.9147 7.5943 19.6584 7.17628 19.2416 6.75886C18.8249 6.34144 18.4062 6.08524 17.9136 5.89378C17.4363 5.70838 16.891 5.58118 16.0932 5.54542C15.2935 5.50906 15.0378 5.5 13.0011 5.5C10.9643 5.5 10.7085 5.50846 9.90839 5.54542Z" fill="white"/>
</svg>
