<svg width="26" height="26" viewBox="0 0 26 26" fill="none" xmlns="http://www.w3.org/2000/svg">
<rect x="1" y="1" width="24" height="24" rx="12" stroke="white"/>
<path d="M19.6626 18.6625C18.8751 18.6438 18.1063 18.6438 17.3188 18.6625C17.1501 18.6625 17.1126 18.625 17.1126 18.4563C17.1126 17.0688 17.1126 15.6625 17.1126 14.275C17.1126 13.9563 17.0938 13.6375 17.0001 13.3375C16.7188 12.3625 15.5938 12.0063 14.7876 12.6625C14.3563 13 14.1876 13.4688 14.1876 14.0313C14.1876 15.3438 14.1876 16.6563 14.1876 17.9688C14.1876 18.1375 14.1688 18.3063 14.1876 18.4938C14.2063 18.6438 14.1313 18.6813 14.0001 18.6625C13.1938 18.6625 12.4063 18.6625 11.6001 18.6625C11.4501 18.6625 11.4126 18.625 11.4126 18.475C11.4313 17.2938 11.4313 16.1125 11.4313 14.9125C11.4313 13.45 11.4313 11.9875 11.4126 10.5438C11.4126 10.375 11.4501 10.3375 11.6001 10.3375C12.4063 10.3375 13.1938 10.3375 14.0001 10.3375C14.1501 10.3375 14.1876 10.375 14.1876 10.525C14.1876 10.825 14.1876 11.125 14.1876 11.4813C14.2438 11.425 14.2626 11.4063 14.2813 11.3875C15.0126 10.3188 16.0438 10.0188 17.2626 10.2063C18.6688 10.4313 19.5688 11.4063 19.7938 12.9063C19.8501 13.2625 19.8688 13.6188 19.8688 13.975C19.8688 15.475 19.8688 16.9563 19.8688 18.4563C19.8688 18.6063 19.8313 18.6625 19.6626 18.6625Z" fill="white"/>
<path d="M9.9125 14.4999C9.9125 15.8124 9.9125 17.1249 9.9125 18.4374C9.9125 18.6062 9.875 18.6624 9.70625 18.6624C8.91875 18.6437 8.13125 18.6624 7.34375 18.6624C7.19375 18.6624 7.15625 18.6249 7.15625 18.4749C7.15625 15.8312 7.15625 13.1687 7.15625 10.5249C7.15625 10.3937 7.19375 10.3374 7.34375 10.3374C8.15 10.3374 8.95625 10.3374 9.7625 10.3374C9.93125 10.3374 9.95 10.3937 9.95 10.5437C9.9125 11.8562 9.9125 13.1687 9.9125 14.4999Z" fill="white"/>
<path d="M10.0437 8.16251C9.85622 8.91251 9.08747 9.34376 8.20622 9.19376C7.26872 9.04376 6.74372 8.12501 7.08122 7.22501C7.30622 6.66251 7.84997 6.32501 8.54372 6.34376C9.59372 6.32501 10.2875 7.16876 10.0437 8.16251Z" fill="white"/>
</svg>
