<svg width="34" height="34" viewBox="0 0 34 34" fill="none" xmlns="http://www.w3.org/2000/svg">
<circle cx="17" cy="17" r="17" fill="#B8D6ED"/>
<path d="M25 25V23C25 21.9391 24.5786 20.9217 23.8284 20.1716C23.0783 19.4214 22.0609 19 21 19H13C11.9391 19 10.9217 19.4214 10.1716 20.1716C9.42143 20.9217 9 21.9391 9 23V25M21 11C21 13.2091 19.2091 15 17 15C14.7909 15 13 13.2091 13 11C13 8.79086 14.7909 7 17 7C19.2091 7 21 8.79086 21 11Z" stroke="#1E3F6D" stroke-width="1.65" stroke-linecap="round" stroke-linejoin="round"/>
</svg>
